<?xml version="1.0" encoding="UTF-8" standalone="no"?><svg xmlns="http://www.w3.org/2000/svg" xmlns:xlink="http://www.w3.org/1999/xlink" clip-rule="evenodd" stroke-miterlimit="4.00" viewBox="0 0 1920 1080"><desc>SVG generated by Keynote</desc><defs></defs><g transform="matrix(1.00, 0.00, -0.00, -1.00, 0.0, 1080.0)"><g><clipPath id="clip-1359"><path d="M 0.0 1080.0 L 1920.0 1080.0 L 1920.0 0.0 L 0.0 0.0 Z M 0.0 1080.0 "></path></clipPath><g clip-path="url(#clip-1359)"><image xlink:href="../../1A0DE70C-F61B-4676-8BB6-F4857BFF56AD/assets/B0E4B2F49AA342F7FB226A4FA1212BF9.png" width="960.00" height="768.00" transform="matrix(2.00, 0.00, -0.00, -1.41, 0.0, 1080.0)"></image></g></g><image xlink:href="../../1A0DE70C-F61B-4676-8BB6-F4857BFF56AD/assets/FDAADD4F67D3860E728FE9F36FD602FD.png" width="145.00" height="38.00" transform="matrix(1.00, 0.00, -0.00, -1.03, 1725.0, 1080.0)"></image><text xml:space="preserve" font-family="Helvetica" font-size="84.0" fill="#2E302E" transform="matrix(1.00, 0.00, -0.00, -1.00, 528.0, 915.0)">C</text><text xml:space="preserve" font-family="Helvetica" font-size="84.0" fill="#2E302E" transform="matrix(1.00, 0.00, -0.00, -1.00, 588.7, 915.0)">u</text><text xml:space="preserve" font-family="Helvetica" font-size="84.0" fill="#2E302E" transform="matrix(1.00, 0.00, -0.00, -1.00, 635.4, 915.0)">r</text><text xml:space="preserve" font-family="Helvetica" font-size="84.0" fill="#2E302E" transform="matrix(1.00, 0.00, -0.00, -1.00, 663.4, 915.0)">r</text><text xml:space="preserve" font-family="Helvetica" font-size="84.0" fill="#2E302E" transform="matrix(1.00, 0.00, -0.00, -1.00, 691.4, 915.0)">e</text><text xml:space="preserve" font-family="Helvetica" font-size="84.0" fill="#2E302E" transform="matrix(1.00, 0.00, -0.00, -1.00, 738.1, 915.0)">n</text><text xml:space="preserve" font-family="Helvetica" font-size="84.0" fill="#2E302E" transform="matrix(1.00, 0.00, -0.00, -1.00, 784.8, 915.0)">t</text><text xml:space="preserve" font-family="Helvetica" font-size="84.0" fill="#2E302E" transform="matrix(1.00, 0.00, -0.00, -1.00, 808.1, 915.0)"> </text><text xml:space="preserve" font-family="Helvetica" font-size="84.0" fill="#2E302E" transform="matrix(1.00, 0.00, -0.00, -1.00, 831.5, 915.0)">f</text><text xml:space="preserve" font-family="Helvetica" font-size="84.0" fill="#2E302E" transform="matrix(1.00, 0.00, -0.00, -1.00, 854.8, 915.0)">i</text><text xml:space="preserve" font-family="Helvetica" font-size="84.0" fill="#2E302E" transform="matrix(1.00, 0.00, -0.00, -1.00, 873.5, 915.0)">r</text><text xml:space="preserve" font-family="Helvetica" font-size="84.0" fill="#2E302E" transform="matrix(1.00, 0.00, -0.00, -1.00, 901.4, 915.0)">e</text><text xml:space="preserve" font-family="Helvetica" font-size="84.0" fill="#2E302E" transform="matrix(1.00, 0.00, -0.00, -1.00, 948.2, 915.0)">f</text><text xml:space="preserve" font-family="Helvetica" font-size="84.0" fill="#2E302E" transform="matrix(1.00, 0.00, -0.00, -1.00, 971.5, 915.0)">o</text><text xml:space="preserve" font-family="Helvetica" font-size="84.0" fill="#2E302E" transform="matrix(1.00, 0.00, -0.00, -1.00, 1018.2, 915.0)">x</text><text xml:space="preserve" font-family="Helvetica" font-size="84.0" fill="#2E302E" transform="matrix(1.00, 0.00, -0.00, -1.00, 1060.2, 915.0)"> </text><text xml:space="preserve" font-family="Helvetica" font-size="84.0" fill="#2E302E" transform="matrix(1.00, 0.00, -0.00, -1.00, 1083.5, 915.0)">f</text><text xml:space="preserve" font-family="Helvetica" font-size="84.0" fill="#2E302E" transform="matrix(1.00, 0.00, -0.00, -1.00, 1106.9, 915.0)">a</text><text xml:space="preserve" font-family="Helvetica" font-size="84.0" fill="#2E302E" transform="matrix(1.00, 0.00, -0.00, -1.00, 1153.6, 915.0)">v</text><text xml:space="preserve" font-family="Helvetica" font-size="84.0" fill="#2E302E" transform="matrix(1.00, 0.00, -0.00, -1.00, 1195.6, 915.0)">i</text><text xml:space="preserve" font-family="Helvetica" font-size="84.0" fill="#2E302E" transform="matrix(1.00, 0.00, -0.00, -1.00, 1214.3, 915.0)">c</text><text xml:space="preserve" font-family="Helvetica" font-size="84.0" fill="#2E302E" transform="matrix(1.00, 0.00, -0.00, -1.00, 1256.3, 915.0)">o</text><text xml:space="preserve" font-family="Helvetica" font-size="84.0" fill="#2E302E" transform="matrix(1.00, 0.00, -0.00, -1.00, 1303.0, 915.0)">n</text><text xml:space="preserve" font-family="Helvetica" font-size="84.0" fill="#2E302E" transform="matrix(1.00, 0.00, -0.00, -1.00, 1349.8, 915.0)">s</text><text xml:space="preserve" font-family="GillSans-Light" font-size="42.1" fill="#414141" transform="matrix(1.00, 0.00, -0.00, -1.00, 99.6, 779.4)">•</text><text xml:space="preserve" font-family="Helvetica" font-size="52.0" fill="#2E302E" transform="matrix(1.00, 0.00, -0.00, -1.00, 124.0, 774.0)">B</text><text xml:space="preserve" font-family="Helvetica" font-size="52.0" fill="#2E302E" transform="matrix(1.00, 0.00, -0.00, -1.00, 158.7, 774.0)">l</text><text xml:space="preserve" font-family="Helvetica" font-size="52.0" fill="#2E302E" transform="matrix(1.00, 0.00, -0.00, -1.00, 170.2, 774.0)">u</text><text xml:space="preserve" font-family="Helvetica" font-size="52.0" fill="#2E302E" transform="matrix(1.00, 0.00, -0.00, -1.00, 199.2, 774.0)">r</text><text xml:space="preserve" font-family="Helvetica" font-size="52.0" fill="#2E302E" transform="matrix(1.00, 0.00, -0.00, -1.00, 216.5, 774.0)">r</text><text xml:space="preserve" font-family="Helvetica" font-size="52.0" fill="#2E302E" transform="matrix(1.00, 0.00, -0.00, -1.00, 233.8, 774.0)">y</text><text xml:space="preserve" font-family="Helvetica" font-size="52.0" fill="#2E302E" transform="matrix(1.00, 0.00, -0.00, -1.00, 259.8, 774.0)"> </text><text xml:space="preserve" font-family="Helvetica" font-size="52.0" fill="#2E302E" transform="matrix(1.00, 0.00, -0.00, -1.00, 274.2, 774.0)">a</text><text xml:space="preserve" font-family="Helvetica" font-size="52.0" fill="#2E302E" transform="matrix(1.00, 0.00, -0.00, -1.00, 303.2, 774.0)">n</text><text xml:space="preserve" font-family="Helvetica" font-size="52.0" fill="#2E302E" transform="matrix(1.00, 0.00, -0.00, -1.00, 332.1, 774.0)">d</text><text xml:space="preserve" font-family="Helvetica" font-size="52.0" fill="#2E302E" transform="matrix(1.00, 0.00, -0.00, -1.00, 361.0, 774.0)"> </text><text xml:space="preserve" font-family="Helvetica" font-size="52.0" fill="#2E302E" transform="matrix(1.00, 0.00, -0.00, -1.00, 375.5, 774.0)">p</text><text xml:space="preserve" font-family="Helvetica" font-size="52.0" fill="#2E302E" transform="matrix(1.00, 0.00, -0.00, -1.00, 404.4, 774.0)">i</text><text xml:space="preserve" font-family="Helvetica" font-size="52.0" fill="#2E302E" transform="matrix(1.00, 0.00, -0.00, -1.00, 416.0, 774.0)">x</text><text xml:space="preserve" font-family="Helvetica" font-size="52.0" fill="#2E302E" transform="matrix(1.00, 0.00, -0.00, -1.00, 442.0, 774.0)">e</text><text xml:space="preserve" font-family="Helvetica" font-size="52.0" fill="#2E302E" transform="matrix(1.00, 0.00, -0.00, -1.00, 470.9, 774.0)">l</text><text xml:space="preserve" font-family="Helvetica" font-size="52.0" fill="#2E302E" transform="matrix(1.00, 0.00, -0.00, -1.00, 482.5, 774.0)">a</text><text xml:space="preserve" font-family="Helvetica" font-size="52.0" fill="#2E302E" transform="matrix(1.00, 0.00, -0.00, -1.00, 511.4, 774.0)">t</text><text xml:space="preserve" font-family="Helvetica" font-size="52.0" fill="#2E302E" transform="matrix(1.00, 0.00, -0.00, -1.00, 525.8, 774.0)">e</text><text xml:space="preserve" font-family="Helvetica" font-size="52.0" fill="#2E302E" transform="matrix(1.00, 0.00, -0.00, -1.00, 554.8, 774.0)">d</text><text xml:space="preserve" font-family="Helvetica" font-size="52.0" fill="#2E302E" transform="matrix(1.00, 0.00, -0.00, -1.00, 583.7, 774.0)"> </text><text xml:space="preserve" font-family="Helvetica" font-size="52.0" fill="#2E302E" transform="matrix(1.00, 0.00, -0.00, -1.00, 598.1, 774.0)">a</text><text xml:space="preserve" font-family="Helvetica" font-size="52.0" fill="#2E302E" transform="matrix(1.00, 0.00, -0.00, -1.00, 627.1, 774.0)">t</text><text xml:space="preserve" font-family="Helvetica" font-size="52.0" fill="#2E302E" transform="matrix(1.00, 0.00, -0.00, -1.00, 641.5, 774.0)"> </text><text xml:space="preserve" font-family="Helvetica" font-size="52.0" fill="#2E302E" transform="matrix(1.00, 0.00, -0.00, -1.00, 655.9, 774.0)">h</text><text xml:space="preserve" font-family="Helvetica" font-size="52.0" fill="#2E302E" transform="matrix(1.00, 0.00, -0.00, -1.00, 684.9, 774.0)">i</text><text xml:space="preserve" font-family="Helvetica" font-size="52.0" fill="#2E302E" transform="matrix(1.00, 0.00, -0.00, -1.00, 696.4, 774.0)">g</text><text xml:space="preserve" font-family="Helvetica" font-size="52.0" fill="#2E302E" transform="matrix(1.00, 0.00, -0.00, -1.00, 725.4, 774.0)">h</text><text xml:space="preserve" font-family="Helvetica" font-size="52.0" fill="#2E302E" transform="matrix(1.00, 0.00, -0.00, -1.00, 754.3, 774.0)"> </text><text xml:space="preserve" font-family="Helvetica" font-size="52.0" fill="#2E302E" transform="matrix(1.00, 0.00, -0.00, -1.00, 768.7, 774.0)">r</text><text xml:space="preserve" font-family="Helvetica" font-size="52.0" fill="#2E302E" transform="matrix(1.00, 0.00, -0.00, -1.00, 786.0, 774.0)">e</text><text xml:space="preserve" font-family="Helvetica" font-size="52.0" fill="#2E302E" transform="matrix(1.00, 0.00, -0.00, -1.00, 815.0, 774.0)">s</text><text xml:space="preserve" font-family="Helvetica" font-size="52.0" fill="#2E302E" transform="matrix(1.00, 0.00, -0.00, -1.00, 841.0, 774.0)">o</text><text xml:space="preserve" font-family="Helvetica" font-size="52.0" fill="#2E302E" transform="matrix(1.00, 0.00, -0.00, -1.00, 869.9, 774.0)">l</text><text xml:space="preserve" font-family="Helvetica" font-size="52.0" fill="#2E302E" transform="matrix(1.00, 0.00, -0.00, -1.00, 881.5, 774.0)">u</text><text xml:space="preserve" font-family="Helvetica" font-size="52.0" fill="#2E302E" transform="matrix(1.00, 0.00, -0.00, -1.00, 910.4, 774.0)">t</text><text xml:space="preserve" font-family="Helvetica" font-size="52.0" fill="#2E302E" transform="matrix(1.00, 0.00, -0.00, -1.00, 924.8, 774.0)">i</text><text xml:space="preserve" font-family="Helvetica" font-size="52.0" fill="#2E302E" transform="matrix(1.00, 0.00, -0.00, -1.00, 936.4, 774.0)">o</text><text xml:space="preserve" font-family="Helvetica" font-size="52.0" fill="#2E302E" transform="matrix(1.00, 0.00, -0.00, -1.00, 965.3, 774.0)">n</text><text xml:space="preserve" font-family="Helvetica" font-size="52.0" fill="#2E302E" transform="matrix(1.00, 0.00, -0.00, -1.00, 994.3, 774.0)"> </text><text xml:space="preserve" font-family="Helvetica" font-size="52.0" fill="#2E302E" transform="matrix(1.00, 0.00, -0.00, -1.00, 1008.7, 774.0)">s</text><text xml:space="preserve" font-family="Helvetica" font-size="52.0" fill="#2E302E" transform="matrix(1.00, 0.00, -0.00, -1.00, 1034.7, 774.0)">c</text><text xml:space="preserve" font-family="Helvetica" font-size="52.0" fill="#2E302E" transform="matrix(1.00, 0.00, -0.00, -1.00, 1060.7, 774.0)">r</text><text xml:space="preserve" font-family="Helvetica" font-size="52.0" fill="#2E302E" transform="matrix(1.00, 0.00, -0.00, -1.00, 1078.0, 774.0)">e</text><text xml:space="preserve" font-family="Helvetica" font-size="52.0" fill="#2E302E" transform="matrix(1.00, 0.00, -0.00, -1.00, 1106.9, 774.0)">e</text><text xml:space="preserve" font-family="Helvetica" font-size="52.0" fill="#2E302E" transform="matrix(1.00, 0.00, -0.00, -1.00, 1135.9, 774.0)">n</text><text xml:space="preserve" font-family="Helvetica" font-size="52.0" fill="#2E302E" transform="matrix(1.00, 0.00, -0.00, -1.00, 1164.8, 774.0)">s</text><text xml:space="preserve" font-family="Helvetica" font-size="52.0" fill="#2E302E" transform="matrix(1.00, 0.00, -0.00, -1.00, 1190.8, 774.0)">:</text><text xml:space="preserve" font-family="GillSans-Light" font-size="42.1" fill="#414141" transform="matrix(1.00, 0.00, -0.00, -1.00, 129.6, 666.4)">•</text><text xml:space="preserve" font-family="Helvetica" font-size="52.0" fill="#2E302E" transform="matrix(1.00, 0.00, -0.00, -1.00, 154.0, 661.0)">e</text><text xml:space="preserve" font-family="Helvetica" font-size="52.0" fill="#2E302E" transform="matrix(1.00, 0.00, -0.00, -1.00, 182.9, 661.0)">.</text><text xml:space="preserve" font-family="Helvetica" font-size="52.0" fill="#2E302E" transform="matrix(1.00, 0.00, -0.00, -1.00, 197.4, 661.0)">g</text><text xml:space="preserve" font-family="Helvetica" font-size="52.0" fill="#2E302E" transform="matrix(1.00, 0.00, -0.00, -1.00, 226.3, 661.0)">.</text><text xml:space="preserve" font-family="Helvetica" font-size="52.0" fill="#2E302E" transform="matrix(1.00, 0.00, -0.00, -1.00, 240.7, 661.0)">:</text><text xml:space="preserve" font-family="Helvetica" font-size="52.0" fill="#2E302E" transform="matrix(1.00, 0.00, -0.00, -1.00, 255.2, 661.0)"> </text><text xml:space="preserve" font-family="Helvetica" font-size="52.0" fill="#2E302E" transform="matrix(1.00, 0.00, -0.00, -1.00, 269.6, 661.0)">S</text><text xml:space="preserve" font-family="Helvetica" font-size="52.0" fill="#2E302E" transform="matrix(1.00, 0.00, -0.00, -1.00, 304.3, 661.0)">h</text><text xml:space="preserve" font-family="Helvetica" font-size="52.0" fill="#2E302E" transform="matrix(1.00, 0.00, -0.00, -1.00, 333.2, 661.0)">o</text><text xml:space="preserve" font-family="Helvetica" font-size="52.0" fill="#2E302E" transform="matrix(1.00, 0.00, -0.00, -1.00, 362.2, 661.0)">w</text><text xml:space="preserve" font-family="Helvetica" font-size="52.0" fill="#2E302E" transform="matrix(1.00, 0.00, -0.00, -1.00, 399.7, 661.0)">i</text><text xml:space="preserve" font-family="Helvetica" font-size="52.0" fill="#2E302E" transform="matrix(1.00, 0.00, -0.00, -1.00, 411.3, 661.0)">n</text><text xml:space="preserve" font-family="Helvetica" font-size="52.0" fill="#2E302E" transform="matrix(1.00, 0.00, -0.00, -1.00, 440.2, 661.0)">g</text><text xml:space="preserve" font-family="Helvetica" font-size="52.0" fill="#2E302E" transform="matrix(1.00, 0.00, -0.00, -1.00, 469.1, 661.0)"> </text><text xml:space="preserve" font-family="Helvetica" font-size="52.0" fill="#2E302E" transform="matrix(1.00, 0.00, -0.00, -1.00, 483.6, 661.0)">a</text><text xml:space="preserve" font-family="Helvetica" font-size="52.0" fill="#2E302E" transform="matrix(1.00, 0.00, -0.00, -1.00, 512.5, 661.0)"> </text><text xml:space="preserve" font-family="Helvetica" font-size="52.0" fill="#2E302E" transform="matrix(1.00, 0.00, -0.00, -1.00, 526.9, 661.0)">3</text><text xml:space="preserve" font-family="Helvetica" font-size="52.0" fill="#2E302E" transform="matrix(1.00, 0.00, -0.00, -1.00, 555.9, 661.0)">2</text><text xml:space="preserve" font-family="Helvetica" font-size="52.0" fill="#2E302E" transform="matrix(1.00, 0.00, -0.00, -1.00, 584.8, 661.0)">×</text><text xml:space="preserve" font-family="Helvetica" font-size="52.0" fill="#2E302E" transform="matrix(1.00, 0.00, -0.00, -1.00, 615.2, 661.0)">3</text><text xml:space="preserve" font-family="Helvetica" font-size="52.0" fill="#2E302E" transform="matrix(1.00, 0.00, -0.00, -1.00, 644.1, 661.0)">2</text><text xml:space="preserve" font-family="Helvetica" font-size="52.0" fill="#2E302E" transform="matrix(1.00, 0.00, -0.00, -1.00, 673.0, 661.0)"> </text><text xml:space="preserve" font-family="Helvetica" font-size="52.0" fill="#2E302E" transform="matrix(1.00, 0.00, -0.00, -1.00, 687.5, 661.0)">i</text><text xml:space="preserve" font-family="Helvetica" font-size="52.0" fill="#2E302E" transform="matrix(1.00, 0.00, -0.00, -1.00, 699.0, 661.0)">m</text><text xml:space="preserve" font-family="Helvetica" font-size="52.0" fill="#2E302E" transform="matrix(1.00, 0.00, -0.00, -1.00, 742.3, 661.0)">a</text><text xml:space="preserve" font-family="Helvetica" font-size="52.0" fill="#2E302E" transform="matrix(1.00, 0.00, -0.00, -1.00, 771.3, 661.0)">g</text><text xml:space="preserve" font-family="Helvetica" font-size="52.0" fill="#2E302E" transform="matrix(1.00, 0.00, -0.00, -1.00, 800.2, 661.0)">e</text><text xml:space="preserve" font-family="Helvetica" font-size="52.0" fill="#2E302E" transform="matrix(1.00, 0.00, -0.00, -1.00, 829.1, 661.0)"> </text><text xml:space="preserve" font-family="Helvetica" font-size="52.0" fill="#2E302E" transform="matrix(1.00, 0.00, -0.00, -1.00, 843.6, 661.0)">u</text><text xml:space="preserve" font-family="Helvetica" font-size="52.0" fill="#2E302E" transform="matrix(1.00, 0.00, -0.00, -1.00, 872.5, 661.0)">s</text><text xml:space="preserve" font-family="Helvetica" font-size="52.0" fill="#2E302E" transform="matrix(1.00, 0.00, -0.00, -1.00, 898.5, 661.0)">i</text><text xml:space="preserve" font-family="Helvetica" font-size="52.0" fill="#2E302E" transform="matrix(1.00, 0.00, -0.00, -1.00, 910.1, 661.0)">n</text><text xml:space="preserve" font-family="Helvetica" font-size="52.0" fill="#2E302E" transform="matrix(1.00, 0.00, -0.00, -1.00, 939.0, 661.0)">g</text><text xml:space="preserve" font-family="Helvetica" font-size="52.0" fill="#2E302E" transform="matrix(1.00, 0.00, -0.00, -1.00, 967.9, 661.0)"> </text><text xml:space="preserve" font-family="Helvetica" font-size="52.0" fill="#2E302E" transform="matrix(1.00, 0.00, -0.00, -1.00, 982.4, 661.0)">1</text><text xml:space="preserve" font-family="Helvetica" font-size="52.0" fill="#2E302E" transform="matrix(1.00, 0.00, -0.00, -1.00, 1011.3, 661.0)">6</text><text xml:space="preserve" font-family="Helvetica" font-size="52.0" fill="#2E302E" transform="matrix(1.00, 0.00, -0.00, -1.00, 1040.2, 661.0)">×</text><text xml:space="preserve" font-family="Helvetica" font-size="52.0" fill="#2E302E" transform="matrix(1.00, 0.00, -0.00, -1.00, 1070.4, 661.0)">1</text><text xml:space="preserve" font-family="Helvetica" font-size="52.0" fill="#2E302E" transform="matrix(1.00, 0.00, -0.00, -1.00, 1099.4, 661.0)">6</text><text xml:space="preserve" font-family="Helvetica" font-size="52.0" fill="#2E302E" transform="matrix(1.00, 0.00, -0.00, -1.00, 1128.3, 661.0)"> </text><text xml:space="preserve" font-family="Helvetica" font-size="52.0" fill="#2E302E" transform="matrix(1.00, 0.00, -0.00, -1.00, 1142.7, 661.0)">p</text><text xml:space="preserve" font-family="Helvetica" font-size="52.0" fill="#2E302E" transform="matrix(1.00, 0.00, -0.00, -1.00, 1171.7, 661.0)">i</text><text xml:space="preserve" font-family="Helvetica" font-size="52.0" fill="#2E302E" transform="matrix(1.00, 0.00, -0.00, -1.00, 1183.2, 661.0)">x</text><text xml:space="preserve" font-family="Helvetica" font-size="52.0" fill="#2E302E" transform="matrix(1.00, 0.00, -0.00, -1.00, 1209.2, 661.0)">e</text><text xml:space="preserve" font-family="Helvetica" font-size="52.0" fill="#2E302E" transform="matrix(1.00, 0.00, -0.00, -1.00, 1238.2, 661.0)">l</text><text xml:space="preserve" font-family="Helvetica" font-size="52.0" fill="#2E302E" transform="matrix(1.00, 0.00, -0.00, -1.00, 1249.7, 661.0)">s</text><image xlink:href="683E3FA51166EE4CA30CE35CCC8C6AF9.png" width="320.00" height="320.00" transform="matrix(1.00, 0.00, -0.00, -1.00, 831.0, 444.0)"></image><image xlink:href="36CABA657AF16343E42AA0F51341C28C.png" width="320.00" height="320.00" transform="matrix(1.00, 0.00, -0.00, -1.00, 1207.0, 436.0)"></image><image xlink:href="B96741233FD0D826E790E447258D0799.png" width="160.00" height="160.00" transform="matrix(1.00, 0.00, -0.00, -1.00, 393.0, 364.0)"></image><text xml:space="preserve" font-family="Helvetica" font-size="58.0" fill="#414141" transform="matrix(1.00, 0.00, -0.00, -1.00, 410.0, 416.0)">1</text><text xml:space="preserve" font-family="Helvetica" font-size="58.0" fill="#414141" transform="matrix(1.00, 0.00, -0.00, -1.00, 442.3, 416.0)">6</text><text xml:space="preserve" font-family="Helvetica" font-size="58.0" fill="#414141" transform="matrix(1.00, 0.00, -0.00, -1.00, 474.5, 416.0)">p</text><text xml:space="preserve" font-family="Helvetica" font-size="58.0" fill="#414141" transform="matrix(1.00, 0.00, -0.00, -1.00, 506.8, 416.0)">x</text><text xml:space="preserve" font-family="Helvetica" font-size="58.0" fill="#414141" transform="matrix(1.00, 0.00, -0.00, -1.00, 1117.0, 469.0)">3</text><text xml:space="preserve" font-family="Helvetica" font-size="58.0" fill="#414141" transform="matrix(1.00, 0.00, -0.00, -1.00, 1149.3, 469.0)">2</text><text xml:space="preserve" font-family="Helvetica" font-size="58.0" fill="#414141" transform="matrix(1.00, 0.00, -0.00, -1.00, 1181.5, 469.0)">p</text><text xml:space="preserve" font-family="Helvetica" font-size="58.0" fill="#414141" transform="matrix(1.00, 0.00, -0.00, -1.00, 1213.8, 469.0)">x</text><path d="M 710.0 267.6 L 710.0 233.6 L 774.0 283.6 L 710.0 333.6 L 710.0 299.6 L 610.5 299.6 L 610.5 267.6 Z M 710.0 267.6 " fill="#696969"></path><text xml:space="preserve" font-family="Helvetica" font-size="12.0" fill="#414141" transform="matrix(1.00, 0.00, -0.00, -1.00, 1807.1, 75.2)">1</text><text xml:space="preserve" font-family="Helvetica" font-size="12.0" fill="#414141" transform="matrix(1.00, 0.00, -0.00, -1.00, 1813.7, 75.2)">3</text><g><clipPath id="clip-1360"><path d="M 832.0 444.0 L 1152.0 444.0 L 1152.0 124.0 L 832.0 124.0 Z M 832.0 444.0 "></path></clipPath><g clip-path="url(#clip-1360)"><path d="M 11.0 1.0 L 11.0 321.0 " fill="none" stroke="#909695" stroke-opacity="0.50" stroke-width="2.00" transform="matrix(1.00, 0.00, 0.00, -1.00, 831.0, 445.0)"></path><path d="M 21.0 1.0 L 21.0 321.0 " fill="none" stroke="#909695" stroke-opacity="0.50" stroke-width="2.00" transform="matrix(1.00, 0.00, 0.00, -1.00, 831.0, 445.0)"></path><path d="M 31.0 1.0 L 31.0 321.0 " fill="none" stroke="#909695" stroke-opacity="0.50" stroke-width="2.00" transform="matrix(1.00, 0.00, 0.00, -1.00, 831.0, 445.0)"></path><path d="M 41.0 1.0 L 41.0 321.0 " fill="none" stroke="#909695" stroke-opacity="0.50" stroke-width="2.00" transform="matrix(1.00, 0.00, 0.00, -1.00, 831.0, 445.0)"></path><path d="M 51.0 1.0 L 51.0 321.0 " fill="none" stroke="#909695" stroke-opacity="0.50" stroke-width="2.00" transform="matrix(1.00, 0.00, 0.00, -1.00, 831.0, 445.0)"></path><path d="M 61.0 1.0 L 61.0 321.0 " fill="none" stroke="#909695" stroke-opacity="0.50" stroke-width="2.00" transform="matrix(1.00, 0.00, 0.00, -1.00, 831.0, 445.0)"></path><path d="M 71.0 1.0 L 71.0 321.0 " fill="none" stroke="#909695" stroke-opacity="0.50" stroke-width="2.00" transform="matrix(1.00, 0.00, 0.00, -1.00, 831.0, 445.0)"></path><path d="M 81.0 1.0 L 81.0 321.0 " fill="none" stroke="#909695" stroke-opacity="0.50" stroke-width="2.00" transform="matrix(1.00, 0.00, 0.00, -1.00, 831.0, 445.0)"></path><path d="M 91.0 1.0 L 91.0 321.0 " fill="none" stroke="#909695" stroke-opacity="0.50" stroke-width="2.00" transform="matrix(1.00, 0.00, 0.00, -1.00, 831.0, 445.0)"></path><path d="M 101.0 1.0 L 101.0 321.0 " fill="none" stroke="#909695" stroke-opacity="0.50" stroke-width="2.00" transform="matrix(1.00, 0.00, 0.00, -1.00, 831.0, 445.0)"></path><path d="M 111.0 1.0 L 111.0 321.0 " fill="none" stroke="#909695" stroke-opacity="0.50" stroke-width="2.00" transform="matrix(1.00, 0.00, 0.00, -1.00, 831.0, 445.0)"></path><path d="M 121.0 1.0 L 121.0 321.0 " fill="none" stroke="#909695" stroke-opacity="0.50" stroke-width="2.00" transform="matrix(1.00, 0.00, 0.00, -1.00, 831.0, 445.0)"></path><path d="M 131.0 1.0 L 131.0 321.0 " fill="none" stroke="#909695" stroke-opacity="0.50" stroke-width="2.00" transform="matrix(1.00, 0.00, 0.00, -1.00, 831.0, 445.0)"></path><path d="M 141.0 1.0 L 141.0 321.0 " fill="none" stroke="#909695" stroke-opacity="0.50" stroke-width="2.00" transform="matrix(1.00, 0.00, 0.00, -1.00, 831.0, 445.0)"></path><path d="M 151.0 1.0 L 151.0 321.0 " fill="none" stroke="#909695" stroke-opacity="0.50" stroke-width="2.00" transform="matrix(1.00, 0.00, 0.00, -1.00, 831.0, 445.0)"></path><path d="M 161.0 1.0 L 161.0 321.0 " fill="none" stroke="#909695" stroke-opacity="0.50" stroke-width="2.00" transform="matrix(1.00, 0.00, 0.00, -1.00, 831.0, 445.0)"></path><path d="M 171.0 1.0 L 171.0 321.0 " fill="none" stroke="#909695" stroke-opacity="0.50" stroke-width="2.00" transform="matrix(1.00, 0.00, 0.00, -1.00, 831.0, 445.0)"></path><path d="M 181.0 1.0 L 181.0 321.0 " fill="none" stroke="#909695" stroke-opacity="0.50" stroke-width="2.00" transform="matrix(1.00, 0.00, 0.00, -1.00, 831.0, 445.0)"></path><path d="M 191.0 1.0 L 191.0 321.0 " fill="none" stroke="#909695" stroke-opacity="0.50" stroke-width="2.00" transform="matrix(1.00, 0.00, 0.00, -1.00, 831.0, 445.0)"></path><path d="M 201.0 1.0 L 201.0 321.0 " fill="none" stroke="#909695" stroke-opacity="0.50" stroke-width="2.00" transform="matrix(1.00, 0.00, 0.00, -1.00, 831.0, 445.0)"></path><path d="M 211.0 1.0 L 211.0 321.0 " fill="none" stroke="#909695" stroke-opacity="0.50" stroke-width="2.00" transform="matrix(1.00, 0.00, 0.00, -1.00, 831.0, 445.0)"></path><path d="M 221.0 1.0 L 221.0 321.0 " fill="none" stroke="#909695" stroke-opacity="0.50" stroke-width="2.00" transform="matrix(1.00, 0.00, 0.00, -1.00, 831.0, 445.0)"></path><path d="M 231.0 1.0 L 231.0 321.0 " fill="none" stroke="#909695" stroke-opacity="0.50" stroke-width="2.00" transform="matrix(1.00, 0.00, 0.00, -1.00, 831.0, 445.0)"></path><path d="M 241.0 1.0 L 241.0 321.0 " fill="none" stroke="#909695" stroke-opacity="0.50" stroke-width="2.00" transform="matrix(1.00, 0.00, 0.00, -1.00, 831.0, 445.0)"></path><path d="M 251.0 1.0 L 251.0 321.0 " fill="none" stroke="#909695" stroke-opacity="0.50" stroke-width="2.00" transform="matrix(1.00, 0.00, 0.00, -1.00, 831.0, 445.0)"></path><path d="M 261.0 1.0 L 261.0 321.0 " fill="none" stroke="#909695" stroke-opacity="0.50" stroke-width="2.00" transform="matrix(1.00, 0.00, 0.00, -1.00, 831.0, 445.0)"></path><path d="M 271.0 1.0 L 271.0 321.0 " fill="none" stroke="#909695" stroke-opacity="0.50" stroke-width="2.00" transform="matrix(1.00, 0.00, 0.00, -1.00, 831.0, 445.0)"></path><path d="M 281.0 1.0 L 281.0 321.0 " fill="none" stroke="#909695" stroke-opacity="0.50" stroke-width="2.00" transform="matrix(1.00, 0.00, 0.00, -1.00, 831.0, 445.0)"></path><path d="M 291.0 1.0 L 291.0 321.0 " fill="none" stroke="#909695" stroke-opacity="0.50" stroke-width="2.00" transform="matrix(1.00, 0.00, 0.00, -1.00, 831.0, 445.0)"></path><path d="M 301.0 1.0 L 301.0 321.0 " fill="none" stroke="#909695" stroke-opacity="0.50" stroke-width="2.00" transform="matrix(1.00, 0.00, 0.00, -1.00, 831.0, 445.0)"></path><path d="M 311.0 1.0 L 311.0 321.0 " fill="none" stroke="#909695" stroke-opacity="0.50" stroke-width="2.00" transform="matrix(1.00, 0.00, 0.00, -1.00, 831.0, 445.0)"></path><path d="M 1.0 11.0 L 321.0 11.0 " fill="none" stroke="#909695" stroke-opacity="0.50" stroke-width="2.00" transform="matrix(1.00, 0.00, 0.00, -1.00, 831.0, 445.0)"></path><path d="M 1.0 21.0 L 321.0 21.0 " fill="none" stroke="#909695" stroke-opacity="0.50" stroke-width="2.00" transform="matrix(1.00, 0.00, 0.00, -1.00, 831.0, 445.0)"></path><path d="M 1.0 31.0 L 321.0 31.0 " fill="none" stroke="#909695" stroke-opacity="0.50" stroke-width="2.00" transform="matrix(1.00, 0.00, 0.00, -1.00, 831.0, 445.0)"></path><path d="M 1.0 41.0 L 321.0 41.0 " fill="none" stroke="#909695" stroke-opacity="0.50" stroke-width="2.00" transform="matrix(1.00, 0.00, 0.00, -1.00, 831.0, 445.0)"></path><path d="M 1.0 51.0 L 321.0 51.0 " fill="none" stroke="#909695" stroke-opacity="0.50" stroke-width="2.00" transform="matrix(1.00, 0.00, 0.00, -1.00, 831.0, 445.0)"></path><path d="M 1.0 61.0 L 321.0 61.0 " fill="none" stroke="#909695" stroke-opacity="0.50" stroke-width="2.00" transform="matrix(1.00, 0.00, 0.00, -1.00, 831.0, 445.0)"></path><path d="M 1.0 71.0 L 321.0 71.0 " fill="none" stroke="#909695" stroke-opacity="0.50" stroke-width="2.00" transform="matrix(1.00, 0.00, 0.00, -1.00, 831.0, 445.0)"></path><path d="M 1.0 81.0 L 321.0 81.0 " fill="none" stroke="#909695" stroke-opacity="0.50" stroke-width="2.00" transform="matrix(1.00, 0.00, 0.00, -1.00, 831.0, 445.0)"></path><path d="M 1.0 91.0 L 321.0 91.0 " fill="none" stroke="#909695" stroke-opacity="0.50" stroke-width="2.00" transform="matrix(1.00, 0.00, 0.00, -1.00, 831.0, 445.0)"></path><path d="M 1.0 101.0 L 321.0 101.0 " fill="none" stroke="#909695" stroke-opacity="0.50" stroke-width="2.00" transform="matrix(1.00, 0.00, 0.00, -1.00, 831.0, 445.0)"></path><path d="M 1.0 111.0 L 321.0 111.0 " fill="none" stroke="#909695" stroke-opacity="0.50" stroke-width="2.00" transform="matrix(1.00, 0.00, 0.00, -1.00, 831.0, 445.0)"></path><path d="M 1.0 121.0 L 321.0 121.0 " fill="none" stroke="#909695" stroke-opacity="0.50" stroke-width="2.00" transform="matrix(1.00, 0.00, 0.00, -1.00, 831.0, 445.0)"></path><path d="M 1.0 131.0 L 321.0 131.0 " fill="none" stroke="#909695" stroke-opacity="0.50" stroke-width="2.00" transform="matrix(1.00, 0.00, 0.00, -1.00, 831.0, 445.0)"></path><path d="M 1.0 141.0 L 321.0 141.0 " fill="none" stroke="#909695" stroke-opacity="0.50" stroke-width="2.00" transform="matrix(1.00, 0.00, 0.00, -1.00, 831.0, 445.0)"></path><path d="M 1.0 151.0 L 321.0 151.0 " fill="none" stroke="#909695" stroke-opacity="0.50" stroke-width="2.00" transform="matrix(1.00, 0.00, 0.00, -1.00, 831.0, 445.0)"></path><path d="M 1.0 161.0 L 321.0 161.0 " fill="none" stroke="#909695" stroke-opacity="0.50" stroke-width="2.00" transform="matrix(1.00, 0.00, 0.00, -1.00, 831.0, 445.0)"></path><path d="M 1.0 171.0 L 321.0 171.0 " fill="none" stroke="#909695" stroke-opacity="0.50" stroke-width="2.00" transform="matrix(1.00, 0.00, 0.00, -1.00, 831.0, 445.0)"></path><path d="M 1.0 181.0 L 321.0 181.0 " fill="none" stroke="#909695" stroke-opacity="0.50" stroke-width="2.00" transform="matrix(1.00, 0.00, 0.00, -1.00, 831.0, 445.0)"></path><path d="M 1.0 191.0 L 321.0 191.0 " fill="none" stroke="#909695" stroke-opacity="0.50" stroke-width="2.00" transform="matrix(1.00, 0.00, 0.00, -1.00, 831.0, 445.0)"></path><path d="M 1.0 201.0 L 321.0 201.0 " fill="none" stroke="#909695" stroke-opacity="0.50" stroke-width="2.00" transform="matrix(1.00, 0.00, 0.00, -1.00, 831.0, 445.0)"></path><path d="M 1.0 211.0 L 321.0 211.0 " fill="none" stroke="#909695" stroke-opacity="0.50" stroke-width="2.00" transform="matrix(1.00, 0.00, 0.00, -1.00, 831.0, 445.0)"></path><path d="M 1.0 221.0 L 321.0 221.0 " fill="none" stroke="#909695" stroke-opacity="0.50" stroke-width="2.00" transform="matrix(1.00, 0.00, 0.00, -1.00, 831.0, 445.0)"></path><path d="M 1.0 231.0 L 321.0 231.0 " fill="none" stroke="#909695" stroke-opacity="0.50" stroke-width="2.00" transform="matrix(1.00, 0.00, 0.00, -1.00, 831.0, 445.0)"></path><path d="M 1.0 241.0 L 321.0 241.0 " fill="none" stroke="#909695" stroke-opacity="0.50" stroke-width="2.00" transform="matrix(1.00, 0.00, 0.00, -1.00, 831.0, 445.0)"></path><path d="M 1.0 251.0 L 321.0 251.0 " fill="none" stroke="#909695" stroke-opacity="0.50" stroke-width="2.00" transform="matrix(1.00, 0.00, 0.00, -1.00, 831.0, 445.0)"></path><path d="M 1.0 261.0 L 321.0 261.0 " fill="none" stroke="#909695" stroke-opacity="0.50" stroke-width="2.00" transform="matrix(1.00, 0.00, 0.00, -1.00, 831.0, 445.0)"></path><path d="M 1.0 271.0 L 321.0 271.0 " fill="none" stroke="#909695" stroke-opacity="0.50" stroke-width="2.00" transform="matrix(1.00, 0.00, 0.00, -1.00, 831.0, 445.0)"></path><path d="M 1.0 281.0 L 321.0 281.0 " fill="none" stroke="#909695" stroke-opacity="0.50" stroke-width="2.00" transform="matrix(1.00, 0.00, 0.00, -1.00, 831.0, 445.0)"></path><path d="M 1.0 291.0 L 321.0 291.0 " fill="none" stroke="#909695" stroke-opacity="0.50" stroke-width="2.00" transform="matrix(1.00, 0.00, 0.00, -1.00, 831.0, 445.0)"></path><path d="M 1.0 301.0 L 321.0 301.0 " fill="none" stroke="#909695" stroke-opacity="0.50" stroke-width="2.00" transform="matrix(1.00, 0.00, 0.00, -1.00, 831.0, 445.0)"></path><path d="M 1.0 311.0 L 321.0 311.0 " fill="none" stroke="#909695" stroke-opacity="0.50" stroke-width="2.00" transform="matrix(1.00, 0.00, 0.00, -1.00, 831.0, 445.0)"></path></g></g><g><clipPath id="clip-1361"><path d="M 1206.0 444.0 L 1526.0 444.0 L 1526.0 124.0 L 1206.0 124.0 Z M 1206.0 444.0 "></path></clipPath><g clip-path="url(#clip-1361)"><path d="M 11.0 1.0 L 11.0 321.0 " fill="none" stroke="#909695" stroke-opacity="0.50" stroke-width="2.00" transform="matrix(1.00, 0.00, 0.00, -1.00, 1205.0, 445.0)"></path><path d="M 21.0 1.0 L 21.0 321.0 " fill="none" stroke="#909695" stroke-opacity="0.50" stroke-width="2.00" transform="matrix(1.00, 0.00, 0.00, -1.00, 1205.0, 445.0)"></path><path d="M 31.0 1.0 L 31.0 321.0 " fill="none" stroke="#909695" stroke-opacity="0.50" stroke-width="2.00" transform="matrix(1.00, 0.00, 0.00, -1.00, 1205.0, 445.0)"></path><path d="M 41.0 1.0 L 41.0 321.0 " fill="none" stroke="#909695" stroke-opacity="0.50" stroke-width="2.00" transform="matrix(1.00, 0.00, 0.00, -1.00, 1205.0, 445.0)"></path><path d="M 51.0 1.0 L 51.0 321.0 " fill="none" stroke="#909695" stroke-opacity="0.50" stroke-width="2.00" transform="matrix(1.00, 0.00, 0.00, -1.00, 1205.0, 445.0)"></path><path d="M 61.0 1.0 L 61.0 321.0 " fill="none" stroke="#909695" stroke-opacity="0.50" stroke-width="2.00" transform="matrix(1.00, 0.00, 0.00, -1.00, 1205.0, 445.0)"></path><path d="M 71.0 1.0 L 71.0 321.0 " fill="none" stroke="#909695" stroke-opacity="0.50" stroke-width="2.00" transform="matrix(1.00, 0.00, 0.00, -1.00, 1205.0, 445.0)"></path><path d="M 81.0 1.0 L 81.0 321.0 " fill="none" stroke="#909695" stroke-opacity="0.50" stroke-width="2.00" transform="matrix(1.00, 0.00, 0.00, -1.00, 1205.0, 445.0)"></path><path d="M 91.0 1.0 L 91.0 321.0 " fill="none" stroke="#909695" stroke-opacity="0.50" stroke-width="2.00" transform="matrix(1.00, 0.00, 0.00, -1.00, 1205.0, 445.0)"></path><path d="M 101.0 1.0 L 101.0 321.0 " fill="none" stroke="#909695" stroke-opacity="0.50" stroke-width="2.00" transform="matrix(1.00, 0.00, 0.00, -1.00, 1205.0, 445.0)"></path><path d="M 111.0 1.0 L 111.0 321.0 " fill="none" stroke="#909695" stroke-opacity="0.50" stroke-width="2.00" transform="matrix(1.00, 0.00, 0.00, -1.00, 1205.0, 445.0)"></path><path d="M 121.0 1.0 L 121.0 321.0 " fill="none" stroke="#909695" stroke-opacity="0.50" stroke-width="2.00" transform="matrix(1.00, 0.00, 0.00, -1.00, 1205.0, 445.0)"></path><path d="M 131.0 1.0 L 131.0 321.0 " fill="none" stroke="#909695" stroke-opacity="0.50" stroke-width="2.00" transform="matrix(1.00, 0.00, 0.00, -1.00, 1205.0, 445.0)"></path><path d="M 141.0 1.0 L 141.0 321.0 " fill="none" stroke="#909695" stroke-opacity="0.50" stroke-width="2.00" transform="matrix(1.00, 0.00, 0.00, -1.00, 1205.0, 445.0)"></path><path d="M 151.0 1.0 L 151.0 321.0 " fill="none" stroke="#909695" stroke-opacity="0.50" stroke-width="2.00" transform="matrix(1.00, 0.00, 0.00, -1.00, 1205.0, 445.0)"></path><path d="M 161.0 1.0 L 161.0 321.0 " fill="none" stroke="#909695" stroke-opacity="0.50" stroke-width="2.00" transform="matrix(1.00, 0.00, 0.00, -1.00, 1205.0, 445.0)"></path><path d="M 171.0 1.0 L 171.0 321.0 " fill="none" stroke="#909695" stroke-opacity="0.50" stroke-width="2.00" transform="matrix(1.00, 0.00, 0.00, -1.00, 1205.0, 445.0)"></path><path d="M 181.0 1.0 L 181.0 321.0 " fill="none" stroke="#909695" stroke-opacity="0.50" stroke-width="2.00" transform="matrix(1.00, 0.00, 0.00, -1.00, 1205.0, 445.0)"></path><path d="M 191.0 1.0 L 191.0 321.0 " fill="none" stroke="#909695" stroke-opacity="0.50" stroke-width="2.00" transform="matrix(1.00, 0.00, 0.00, -1.00, 1205.0, 445.0)"></path><path d="M 201.0 1.0 L 201.0 321.0 " fill="none" stroke="#909695" stroke-opacity="0.50" stroke-width="2.00" transform="matrix(1.00, 0.00, 0.00, -1.00, 1205.0, 445.0)"></path><path d="M 211.0 1.0 L 211.0 321.0 " fill="none" stroke="#909695" stroke-opacity="0.50" stroke-width="2.00" transform="matrix(1.00, 0.00, 0.00, -1.00, 1205.0, 445.0)"></path><path d="M 221.0 1.0 L 221.0 321.0 " fill="none" stroke="#909695" stroke-opacity="0.50" stroke-width="2.00" transform="matrix(1.00, 0.00, 0.00, -1.00, 1205.0, 445.0)"></path><path d="M 231.0 1.0 L 231.0 321.0 " fill="none" stroke="#909695" stroke-opacity="0.50" stroke-width="2.00" transform="matrix(1.00, 0.00, 0.00, -1.00, 1205.0, 445.0)"></path><path d="M 241.0 1.0 L 241.0 321.0 " fill="none" stroke="#909695" stroke-opacity="0.50" stroke-width="2.00" transform="matrix(1.00, 0.00, 0.00, -1.00, 1205.0, 445.0)"></path><path d="M 251.0 1.0 L 251.0 321.0 " fill="none" stroke="#909695" stroke-opacity="0.50" stroke-width="2.00" transform="matrix(1.00, 0.00, 0.00, -1.00, 1205.0, 445.0)"></path><path d="M 261.0 1.0 L 261.0 321.0 " fill="none" stroke="#909695" stroke-opacity="0.50" stroke-width="2.00" transform="matrix(1.00, 0.00, 0.00, -1.00, 1205.0, 445.0)"></path><path d="M 271.0 1.0 L 271.0 321.0 " fill="none" stroke="#909695" stroke-opacity="0.50" stroke-width="2.00" transform="matrix(1.00, 0.00, 0.00, -1.00, 1205.0, 445.0)"></path><path d="M 281.0 1.0 L 281.0 321.0 " fill="none" stroke="#909695" stroke-opacity="0.50" stroke-width="2.00" transform="matrix(1.00, 0.00, 0.00, -1.00, 1205.0, 445.0)"></path><path d="M 291.0 1.0 L 291.0 321.0 " fill="none" stroke="#909695" stroke-opacity="0.50" stroke-width="2.00" transform="matrix(1.00, 0.00, 0.00, -1.00, 1205.0, 445.0)"></path><path d="M 301.0 1.0 L 301.0 321.0 " fill="none" stroke="#909695" stroke-opacity="0.50" stroke-width="2.00" transform="matrix(1.00, 0.00, 0.00, -1.00, 1205.0, 445.0)"></path><path d="M 311.0 1.0 L 311.0 321.0 " fill="none" stroke="#909695" stroke-opacity="0.50" stroke-width="2.00" transform="matrix(1.00, 0.00, 0.00, -1.00, 1205.0, 445.0)"></path><path d="M 1.0 11.0 L 321.0 11.0 " fill="none" stroke="#909695" stroke-opacity="0.50" stroke-width="2.00" transform="matrix(1.00, 0.00, 0.00, -1.00, 1205.0, 445.0)"></path><path d="M 1.0 21.0 L 321.0 21.0 " fill="none" stroke="#909695" stroke-opacity="0.50" stroke-width="2.00" transform="matrix(1.00, 0.00, 0.00, -1.00, 1205.0, 445.0)"></path><path d="M 1.0 31.0 L 321.0 31.0 " fill="none" stroke="#909695" stroke-opacity="0.50" stroke-width="2.00" transform="matrix(1.00, 0.00, 0.00, -1.00, 1205.0, 445.0)"></path><path d="M 1.0 41.0 L 321.0 41.0 " fill="none" stroke="#909695" stroke-opacity="0.50" stroke-width="2.00" transform="matrix(1.00, 0.00, 0.00, -1.00, 1205.0, 445.0)"></path><path d="M 1.0 51.0 L 321.0 51.0 " fill="none" stroke="#909695" stroke-opacity="0.50" stroke-width="2.00" transform="matrix(1.00, 0.00, 0.00, -1.00, 1205.0, 445.0)"></path><path d="M 1.0 61.0 L 321.0 61.0 " fill="none" stroke="#909695" stroke-opacity="0.50" stroke-width="2.00" transform="matrix(1.00, 0.00, 0.00, -1.00, 1205.0, 445.0)"></path><path d="M 1.0 71.0 L 321.0 71.0 " fill="none" stroke="#909695" stroke-opacity="0.50" stroke-width="2.00" transform="matrix(1.00, 0.00, 0.00, -1.00, 1205.0, 445.0)"></path><path d="M 1.0 81.0 L 321.0 81.0 " fill="none" stroke="#909695" stroke-opacity="0.50" stroke-width="2.00" transform="matrix(1.00, 0.00, 0.00, -1.00, 1205.0, 445.0)"></path><path d="M 1.0 91.0 L 321.0 91.0 " fill="none" stroke="#909695" stroke-opacity="0.50" stroke-width="2.00" transform="matrix(1.00, 0.00, 0.00, -1.00, 1205.0, 445.0)"></path><path d="M 1.0 101.0 L 321.0 101.0 " fill="none" stroke="#909695" stroke-opacity="0.50" stroke-width="2.00" transform="matrix(1.00, 0.00, 0.00, -1.00, 1205.0, 445.0)"></path><path d="M 1.0 111.0 L 321.0 111.0 " fill="none" stroke="#909695" stroke-opacity="0.50" stroke-width="2.00" transform="matrix(1.00, 0.00, 0.00, -1.00, 1205.0, 445.0)"></path><path d="M 1.0 121.0 L 321.0 121.0 " fill="none" stroke="#909695" stroke-opacity="0.50" stroke-width="2.00" transform="matrix(1.00, 0.00, 0.00, -1.00, 1205.0, 445.0)"></path><path d="M 1.0 131.0 L 321.0 131.0 " fill="none" stroke="#909695" stroke-opacity="0.50" stroke-width="2.00" transform="matrix(1.00, 0.00, 0.00, -1.00, 1205.0, 445.0)"></path><path d="M 1.0 141.0 L 321.0 141.0 " fill="none" stroke="#909695" stroke-opacity="0.50" stroke-width="2.00" transform="matrix(1.00, 0.00, 0.00, -1.00, 1205.0, 445.0)"></path><path d="M 1.0 151.0 L 321.0 151.0 " fill="none" stroke="#909695" stroke-opacity="0.50" stroke-width="2.00" transform="matrix(1.00, 0.00, 0.00, -1.00, 1205.0, 445.0)"></path><path d="M 1.0 161.0 L 321.0 161.0 " fill="none" stroke="#909695" stroke-opacity="0.50" stroke-width="2.00" transform="matrix(1.00, 0.00, 0.00, -1.00, 1205.0, 445.0)"></path><path d="M 1.0 171.0 L 321.0 171.0 " fill="none" stroke="#909695" stroke-opacity="0.50" stroke-width="2.00" transform="matrix(1.00, 0.00, 0.00, -1.00, 1205.0, 445.0)"></path><path d="M 1.0 181.0 L 321.0 181.0 " fill="none" stroke="#909695" stroke-opacity="0.50" stroke-width="2.00" transform="matrix(1.00, 0.00, 0.00, -1.00, 1205.0, 445.0)"></path><path d="M 1.0 191.0 L 321.0 191.0 " fill="none" stroke="#909695" stroke-opacity="0.50" stroke-width="2.00" transform="matrix(1.00, 0.00, 0.00, -1.00, 1205.0, 445.0)"></path><path d="M 1.0 201.0 L 321.0 201.0 " fill="none" stroke="#909695" stroke-opacity="0.50" stroke-width="2.00" transform="matrix(1.00, 0.00, 0.00, -1.00, 1205.0, 445.0)"></path><path d="M 1.0 211.0 L 321.0 211.0 " fill="none" stroke="#909695" stroke-opacity="0.50" stroke-width="2.00" transform="matrix(1.00, 0.00, 0.00, -1.00, 1205.0, 445.0)"></path><path d="M 1.0 221.0 L 321.0 221.0 " fill="none" stroke="#909695" stroke-opacity="0.50" stroke-width="2.00" transform="matrix(1.00, 0.00, 0.00, -1.00, 1205.0, 445.0)"></path><path d="M 1.0 231.0 L 321.0 231.0 " fill="none" stroke="#909695" stroke-opacity="0.50" stroke-width="2.00" transform="matrix(1.00, 0.00, 0.00, -1.00, 1205.0, 445.0)"></path><path d="M 1.0 241.0 L 321.0 241.0 " fill="none" stroke="#909695" stroke-opacity="0.50" stroke-width="2.00" transform="matrix(1.00, 0.00, 0.00, -1.00, 1205.0, 445.0)"></path><path d="M 1.0 251.0 L 321.0 251.0 " fill="none" stroke="#909695" stroke-opacity="0.50" stroke-width="2.00" transform="matrix(1.00, 0.00, 0.00, -1.00, 1205.0, 445.0)"></path><path d="M 1.0 261.0 L 321.0 261.0 " fill="none" stroke="#909695" stroke-opacity="0.50" stroke-width="2.00" transform="matrix(1.00, 0.00, 0.00, -1.00, 1205.0, 445.0)"></path><path d="M 1.0 271.0 L 321.0 271.0 " fill="none" stroke="#909695" stroke-opacity="0.50" stroke-width="2.00" transform="matrix(1.00, 0.00, 0.00, -1.00, 1205.0, 445.0)"></path><path d="M 1.0 281.0 L 321.0 281.0 " fill="none" stroke="#909695" stroke-opacity="0.50" stroke-width="2.00" transform="matrix(1.00, 0.00, 0.00, -1.00, 1205.0, 445.0)"></path><path d="M 1.0 291.0 L 321.0 291.0 " fill="none" stroke="#909695" stroke-opacity="0.50" stroke-width="2.00" transform="matrix(1.00, 0.00, 0.00, -1.00, 1205.0, 445.0)"></path><path d="M 1.0 301.0 L 321.0 301.0 " fill="none" stroke="#909695" stroke-opacity="0.50" stroke-width="2.00" transform="matrix(1.00, 0.00, 0.00, -1.00, 1205.0, 445.0)"></path><path d="M 1.0 311.0 L 321.0 311.0 " fill="none" stroke="#909695" stroke-opacity="0.50" stroke-width="2.00" transform="matrix(1.00, 0.00, 0.00, -1.00, 1205.0, 445.0)"></path></g></g><g><clipPath id="clip-1362"><path d="M 392.0 364.0 L 555.5 364.0 L 555.5 202.0 L 392.0 202.0 Z M 392.0 364.0 "></path></clipPath><g clip-path="url(#clip-1362)"><path d="M 11.2 1.0 L 11.2 163.0 " fill="none" stroke="#909695" stroke-opacity="0.50" stroke-width="2.00" transform="matrix(1.00, 0.00, 0.00, -1.00, 391.0, 365.0)"></path><path d="M 21.4 1.0 L 21.4 163.0 " fill="none" stroke="#909695" stroke-opacity="0.50" stroke-width="2.00" transform="matrix(1.00, 0.00, 0.00, -1.00, 391.0, 365.0)"></path><path d="M 31.7 1.0 L 31.7 163.0 " fill="none" stroke="#909695" stroke-opacity="0.50" stroke-width="2.00" transform="matrix(1.00, 0.00, 0.00, -1.00, 391.0, 365.0)"></path><path d="M 41.9 1.0 L 41.9 163.0 " fill="none" stroke="#909695" stroke-opacity="0.50" stroke-width="2.00" transform="matrix(1.00, 0.00, 0.00, -1.00, 391.0, 365.0)"></path><path d="M 52.1 1.0 L 52.1 163.0 " fill="none" stroke="#909695" stroke-opacity="0.50" stroke-width="2.00" transform="matrix(1.00, 0.00, 0.00, -1.00, 391.0, 365.0)"></path><path d="M 62.3 1.0 L 62.3 163.0 " fill="none" stroke="#909695" stroke-opacity="0.50" stroke-width="2.00" transform="matrix(1.00, 0.00, 0.00, -1.00, 391.0, 365.0)"></path><path d="M 72.5 1.0 L 72.5 163.0 " fill="none" stroke="#909695" stroke-opacity="0.50" stroke-width="2.00" transform="matrix(1.00, 0.00, 0.00, -1.00, 391.0, 365.0)"></path><path d="M 82.8 1.0 L 82.8 163.0 " fill="none" stroke="#909695" stroke-opacity="0.50" stroke-width="2.00" transform="matrix(1.00, 0.00, 0.00, -1.00, 391.0, 365.0)"></path><path d="M 93.0 1.0 L 93.0 163.0 " fill="none" stroke="#909695" stroke-opacity="0.50" stroke-width="2.00" transform="matrix(1.00, 0.00, 0.00, -1.00, 391.0, 365.0)"></path><path d="M 103.2 1.0 L 103.2 163.0 " fill="none" stroke="#909695" stroke-opacity="0.50" stroke-width="2.00" transform="matrix(1.00, 0.00, 0.00, -1.00, 391.0, 365.0)"></path><path d="M 113.4 1.0 L 113.4 163.0 " fill="none" stroke="#909695" stroke-opacity="0.50" stroke-width="2.00" transform="matrix(1.00, 0.00, 0.00, -1.00, 391.0, 365.0)"></path><path d="M 123.7 1.0 L 123.7 163.0 " fill="none" stroke="#909695" stroke-opacity="0.50" stroke-width="2.00" transform="matrix(1.00, 0.00, 0.00, -1.00, 391.0, 365.0)"></path><path d="M 133.9 1.0 L 133.9 163.0 " fill="none" stroke="#909695" stroke-opacity="0.50" stroke-width="2.00" transform="matrix(1.00, 0.00, 0.00, -1.00, 391.0, 365.0)"></path><path d="M 144.1 1.0 L 144.1 163.0 " fill="none" stroke="#909695" stroke-opacity="0.50" stroke-width="2.00" transform="matrix(1.00, 0.00, 0.00, -1.00, 391.0, 365.0)"></path><path d="M 154.3 1.0 L 154.3 163.0 " fill="none" stroke="#909695" stroke-opacity="0.50" stroke-width="2.00" transform="matrix(1.00, 0.00, 0.00, -1.00, 391.0, 365.0)"></path><path d="M 1.0 11.1 L 164.5 11.1 " fill="none" stroke="#909695" stroke-opacity="0.50" stroke-width="2.00" transform="matrix(1.00, 0.00, 0.00, -1.00, 391.0, 365.0)"></path><path d="M 1.0 21.2 L 164.5 21.2 " fill="none" stroke="#909695" stroke-opacity="0.50" stroke-width="2.00" transform="matrix(1.00, 0.00, 0.00, -1.00, 391.0, 365.0)"></path><path d="M 1.0 31.4 L 164.5 31.4 " fill="none" stroke="#909695" stroke-opacity="0.50" stroke-width="2.00" transform="matrix(1.00, 0.00, 0.00, -1.00, 391.0, 365.0)"></path><path d="M 1.0 41.5 L 164.5 41.5 " fill="none" stroke="#909695" stroke-opacity="0.50" stroke-width="2.00" transform="matrix(1.00, 0.00, 0.00, -1.00, 391.0, 365.0)"></path><path d="M 1.0 51.6 L 164.5 51.6 " fill="none" stroke="#909695" stroke-opacity="0.50" stroke-width="2.00" transform="matrix(1.00, 0.00, 0.00, -1.00, 391.0, 365.0)"></path><path d="M 1.0 61.8 L 164.5 61.8 " fill="none" stroke="#909695" stroke-opacity="0.50" stroke-width="2.00" transform="matrix(1.00, 0.00, 0.00, -1.00, 391.0, 365.0)"></path><path d="M 1.0 71.9 L 164.5 71.9 " fill="none" stroke="#909695" stroke-opacity="0.50" stroke-width="2.00" transform="matrix(1.00, 0.00, 0.00, -1.00, 391.0, 365.0)"></path><path d="M 1.0 82.0 L 164.5 82.0 " fill="none" stroke="#909695" stroke-opacity="0.50" stroke-width="2.00" transform="matrix(1.00, 0.00, 0.00, -1.00, 391.0, 365.0)"></path><path d="M 1.0 92.1 L 164.5 92.1 " fill="none" stroke="#909695" stroke-opacity="0.50" stroke-width="2.00" transform="matrix(1.00, 0.00, 0.00, -1.00, 391.0, 365.0)"></path><path d="M 1.0 102.2 L 164.5 102.2 " fill="none" stroke="#909695" stroke-opacity="0.50" stroke-width="2.00" transform="matrix(1.00, 0.00, 0.00, -1.00, 391.0, 365.0)"></path><path d="M 1.0 112.4 L 164.5 112.4 " fill="none" stroke="#909695" stroke-opacity="0.50" stroke-width="2.00" transform="matrix(1.00, 0.00, 0.00, -1.00, 391.0, 365.0)"></path><path d="M 1.0 122.5 L 164.5 122.5 " fill="none" stroke="#909695" stroke-opacity="0.50" stroke-width="2.00" transform="matrix(1.00, 0.00, 0.00, -1.00, 391.0, 365.0)"></path><path d="M 1.0 132.6 L 164.5 132.6 " fill="none" stroke="#909695" stroke-opacity="0.50" stroke-width="2.00" transform="matrix(1.00, 0.00, 0.00, -1.00, 391.0, 365.0)"></path><path d="M 1.0 142.8 L 164.5 142.8 " fill="none" stroke="#909695" stroke-opacity="0.50" stroke-width="2.00" transform="matrix(1.00, 0.00, 0.00, -1.00, 391.0, 365.0)"></path><path d="M 1.0 152.9 L 164.5 152.9 " fill="none" stroke="#909695" stroke-opacity="0.50" stroke-width="2.00" transform="matrix(1.00, 0.00, 0.00, -1.00, 391.0, 365.0)"></path></g></g></g></svg>