<?xml version="1.0" encoding="UTF-8" standalone="no"?><svg xmlns="http://www.w3.org/2000/svg" xmlns:xlink="http://www.w3.org/1999/xlink" clip-rule="evenodd" stroke-miterlimit="4.00" viewBox="0 0 1920 1080"><desc>SVG generated by Keynote</desc><defs></defs><g transform="matrix(1.00, 0.00, -0.00, -1.00, 0.0, 1080.0)"><g><clipPath id="clip-1353"><path d="M 0.0 1080.0 L 1920.0 1080.0 L 1920.0 0.0 L 0.0 0.0 Z M 0.0 1080.0 "></path></clipPath><g clip-path="url(#clip-1353)"><image xlink:href="../../1A0DE70C-F61B-4676-8BB6-F4857BFF56AD/assets/B0E4B2F49AA342F7FB226A4FA1212BF9.png" width="960.00" height="768.00" transform="matrix(2.00, 0.00, -0.00, -1.41, 0.0, 1080.0)"></image></g></g><image xlink:href="../../1A0DE70C-F61B-4676-8BB6-F4857BFF56AD/assets/FDAADD4F67D3860E728FE9F36FD602FD.png" width="145.00" height="38.00" transform="matrix(1.00, 0.00, -0.00, -1.03, 1725.0, 1080.0)"></image><text xml:space="preserve" font-family="Helvetica" font-size="84.0" fill="#2E302E" transform="matrix(1.00, 0.00, -0.00, -1.00, 783.0, 915.0)">T</text><text xml:space="preserve" font-family="Helvetica" font-size="84.0" fill="#2E302E" transform="matrix(1.00, 0.00, -0.00, -1.00, 834.3, 915.0)">h</text><text xml:space="preserve" font-family="Helvetica" font-size="84.0" fill="#2E302E" transform="matrix(1.00, 0.00, -0.00, -1.00, 881.0, 915.0)">e</text><text xml:space="preserve" font-family="Helvetica" font-size="84.0" fill="#2E302E" transform="matrix(1.00, 0.00, -0.00, -1.00, 927.7, 915.0)"> </text><text xml:space="preserve" font-family="Helvetica" font-size="84.0" fill="#2E302E" transform="matrix(1.00, 0.00, -0.00, -1.00, 951.0, 915.0)">g</text><text xml:space="preserve" font-family="Helvetica" font-size="84.0" fill="#2E302E" transform="matrix(1.00, 0.00, -0.00, -1.00, 997.7, 915.0)">o</text><text xml:space="preserve" font-family="Helvetica" font-size="84.0" fill="#2E302E" transform="matrix(1.00, 0.00, -0.00, -1.00, 1044.4, 915.0)">o</text><text xml:space="preserve" font-family="Helvetica" font-size="84.0" fill="#2E302E" transform="matrix(1.00, 0.00, -0.00, -1.00, 1091.1, 915.0)">d</text><text xml:space="preserve" font-family="Helvetica" font-size="52.0" fill="#2E302E" transform="matrix(1.00, 0.00, -0.00, -1.00, 674.0, 774.0)">E</text><text xml:space="preserve" font-family="Helvetica" font-size="52.0" fill="#2E302E" transform="matrix(1.00, 0.00, -0.00, -1.00, 708.7, 774.0)">v</text><text xml:space="preserve" font-family="Helvetica" font-size="52.0" fill="#2E302E" transform="matrix(1.00, 0.00, -0.00, -1.00, 734.7, 774.0)">e</text><text xml:space="preserve" font-family="Helvetica" font-size="52.0" fill="#2E302E" transform="matrix(1.00, 0.00, -0.00, -1.00, 763.6, 774.0)">r</text><text xml:space="preserve" font-family="Helvetica" font-size="52.0" fill="#2E302E" transform="matrix(1.00, 0.00, -0.00, -1.00, 780.9, 774.0)">y</text><text xml:space="preserve" font-family="Helvetica" font-size="52.0" fill="#2E302E" transform="matrix(1.00, 0.00, -0.00, -1.00, 806.9, 774.0)">t</text><text xml:space="preserve" font-family="Helvetica" font-size="52.0" fill="#2E302E" transform="matrix(1.00, 0.00, -0.00, -1.00, 821.4, 774.0)">h</text><text xml:space="preserve" font-family="Helvetica" font-size="52.0" fill="#2E302E" transform="matrix(1.00, 0.00, -0.00, -1.00, 850.3, 774.0)">i</text><text xml:space="preserve" font-family="Helvetica" font-size="52.0" fill="#2E302E" transform="matrix(1.00, 0.00, -0.00, -1.00, 861.9, 774.0)">n</text><text xml:space="preserve" font-family="Helvetica" font-size="52.0" fill="#2E302E" transform="matrix(1.00, 0.00, -0.00, -1.00, 890.8, 774.0)">g</text><text xml:space="preserve" font-family="Helvetica" font-size="52.0" fill="#2E302E" transform="matrix(1.00, 0.00, -0.00, -1.00, 919.7, 774.0)"> </text><text xml:space="preserve" font-family="Helvetica" font-size="52.0" fill="#2E302E" transform="matrix(1.00, 0.00, -0.00, -1.00, 934.2, 774.0)">l</text><text xml:space="preserve" font-family="Helvetica" font-size="52.0" fill="#2E302E" transform="matrix(1.00, 0.00, -0.00, -1.00, 945.7, 774.0)">o</text><text xml:space="preserve" font-family="Helvetica" font-size="52.0" fill="#2E302E" transform="matrix(1.00, 0.00, -0.00, -1.00, 974.7, 774.0)">o</text><text xml:space="preserve" font-family="Helvetica" font-size="52.0" fill="#2E302E" transform="matrix(1.00, 0.00, -0.00, -1.00, 1003.6, 774.0)">k</text><text xml:space="preserve" font-family="Helvetica" font-size="52.0" fill="#2E302E" transform="matrix(1.00, 0.00, -0.00, -1.00, 1029.6, 774.0)">s</text><text xml:space="preserve" font-family="Helvetica" font-size="52.0" fill="#2E302E" transform="matrix(1.00, 0.00, -0.00, -1.00, 1055.6, 774.0)"> </text><text xml:space="preserve" font-family="Helvetica" font-size="52.0" fill="#2E302E" transform="matrix(1.00, 0.00, -0.00, -1.00, 1070.0, 774.0)">s</text><text xml:space="preserve" font-family="Helvetica" font-size="52.0" fill="#2E302E" transform="matrix(1.00, 0.00, -0.00, -1.00, 1096.0, 774.0)">h</text><text xml:space="preserve" font-family="Helvetica" font-size="52.0" fill="#2E302E" transform="matrix(1.00, 0.00, -0.00, -1.00, 1124.9, 774.0)">a</text><text xml:space="preserve" font-family="Helvetica" font-size="52.0" fill="#2E302E" transform="matrix(1.00, 0.00, -0.00, -1.00, 1153.9, 774.0)">r</text><text xml:space="preserve" font-family="Helvetica" font-size="52.0" fill="#2E302E" transform="matrix(1.00, 0.00, -0.00, -1.00, 1171.2, 774.0)">p</text><text xml:space="preserve" font-family="Helvetica" font-size="52.0" fill="#2E302E" transform="matrix(1.00, 0.00, -0.00, -1.00, 1200.1, 774.0)">e</text><text xml:space="preserve" font-family="Helvetica" font-size="52.0" fill="#2E302E" transform="matrix(1.00, 0.00, -0.00, -1.00, 1229.1, 774.0)">r</text><image xlink:href="60463413916E1043E64D91112382E096.png" width="732.00" height="150.00" transform="matrix(1.00, 0.00, -0.00, -1.00, 318.6, 235.4)" opacity="0.75"></image><image xlink:href="F8225031D4DCE06FBE6CACBB121CD027.png" width="492.00" height="498.00" transform="matrix(1.00, 0.00, -0.00, -1.00, 439.0, 658.0)"></image><image xlink:href="8E5B1A85DD5DE3ABE52948829C3915B8.png" width="732.00" height="150.00" transform="matrix(1.00, 0.00, -0.00, -1.00, 869.4, 235.4)" opacity="0.75"></image><image xlink:href="AE2D5772ACB1600294002827D3213B02.png" width="492.00" height="498.00" transform="matrix(1.00, 0.00, -0.00, -1.00, 989.0, 658.0)"></image><text xml:space="preserve" font-family="Helvetica" font-size="12.0" fill="#414141" transform="matrix(1.00, 0.00, -0.00, -1.00, 1807.1, 75.2)">1</text><text xml:space="preserve" font-family="Helvetica" font-size="12.0" fill="#414141" transform="matrix(1.00, 0.00, -0.00, -1.00, 1813.7, 75.2)">0</text></g></svg>