<?xml version="1.0" encoding="UTF-8" standalone="no"?><svg xmlns="http://www.w3.org/2000/svg" xmlns:xlink="http://www.w3.org/1999/xlink" clip-rule="evenodd" stroke-miterlimit="4.00" viewBox="0 0 1920 1080"><desc>SVG generated by Keynote</desc><defs></defs><g transform="matrix(1.00, 0.00, -0.00, -1.00, 0.0, 1080.0)"><g><clipPath id="clip-1322"><path d="M 0.0 1080.0 L 1920.0 1080.0 L 1920.0 0.0 L 0.0 0.0 Z M 0.0 1080.0 "></path></clipPath><g clip-path="url(#clip-1322)"><image xlink:href="../../1A0DE70C-F61B-4676-8BB6-F4857BFF56AD/assets/B0E4B2F49AA342F7FB226A4FA1212BF9.png" width="960.00" height="768.00" transform="matrix(2.00, 0.00, -0.00, -1.41, 0.0, 1080.0)"></image></g></g><image xlink:href="../../1A0DE70C-F61B-4676-8BB6-F4857BFF56AD/assets/FDAADD4F67D3860E728FE9F36FD602FD.png" width="145.00" height="38.00" transform="matrix(1.00, 0.00, -0.00, -1.03, 1725.0, 1080.0)"></image><text xml:space="preserve" font-family="Helvetica" font-size="109.0" fill="#2E302E" transform="matrix(1.00, 0.00, -0.00, -1.00, 292.0, 499.0)">H</text><text xml:space="preserve" font-family="Helvetica" font-size="109.0" fill="#2E302E" transform="matrix(1.00, 0.00, -0.00, -1.00, 370.7, 499.0)">i</text><text xml:space="preserve" font-family="Helvetica" font-size="109.0" fill="#2E302E" transform="matrix(1.00, 0.00, -0.00, -1.00, 395.0, 499.0)">g</text><text xml:space="preserve" font-family="Helvetica" font-size="109.0" fill="#2E302E" transform="matrix(1.00, 0.00, -0.00, -1.00, 455.6, 499.0)">h</text><text xml:space="preserve" font-family="Helvetica" font-size="109.0" fill="#2E302E" transform="matrix(1.00, 0.00, -0.00, -1.00, 516.3, 499.0)"> </text><text xml:space="preserve" font-family="Helvetica" font-size="109.0" fill="#2E302E" transform="matrix(1.00, 0.00, -0.00, -1.00, 546.5, 499.0)">D</text><text xml:space="preserve" font-family="Helvetica" font-size="109.0" fill="#2E302E" transform="matrix(1.00, 0.00, -0.00, -1.00, 625.3, 499.0)">P</text><text xml:space="preserve" font-family="Helvetica" font-size="109.0" fill="#2E302E" transform="matrix(1.00, 0.00, -0.00, -1.00, 698.0, 499.0)">I</text><text xml:space="preserve" font-family="Helvetica" font-size="109.0" fill="#2E302E" transform="matrix(1.00, 0.00, -0.00, -1.00, 728.2, 499.0)"> </text><text xml:space="preserve" font-family="Helvetica" font-size="109.0" fill="#2E302E" transform="matrix(1.00, 0.00, -0.00, -1.00, 758.5, 499.0)">F</text><text xml:space="preserve" font-family="Helvetica" font-size="109.0" fill="#2E302E" transform="matrix(1.00, 0.00, -0.00, -1.00, 825.0, 499.0)">a</text><text xml:space="preserve" font-family="Helvetica" font-size="109.0" fill="#2E302E" transform="matrix(1.00, 0.00, -0.00, -1.00, 885.7, 499.0)">v</text><text xml:space="preserve" font-family="Helvetica" font-size="109.0" fill="#2E302E" transform="matrix(1.00, 0.00, -0.00, -1.00, 940.2, 499.0)">i</text><text xml:space="preserve" font-family="Helvetica" font-size="109.0" fill="#2E302E" transform="matrix(1.00, 0.00, -0.00, -1.00, 964.4, 499.0)">c</text><text xml:space="preserve" font-family="Helvetica" font-size="109.0" fill="#2E302E" transform="matrix(1.00, 0.00, -0.00, -1.00, 1018.9, 499.0)">o</text><text xml:space="preserve" font-family="Helvetica" font-size="109.0" fill="#2E302E" transform="matrix(1.00, 0.00, -0.00, -1.00, 1079.6, 499.0)">n</text><text xml:space="preserve" font-family="Helvetica" font-size="109.0" fill="#2E302E" transform="matrix(1.00, 0.00, -0.00, -1.00, 1140.2, 499.0)">s</text><text xml:space="preserve" font-family="Helvetica" font-size="109.0" fill="#2E302E" transform="matrix(1.00, 0.00, -0.00, -1.00, 1194.7, 499.0)">?</text><text xml:space="preserve" font-family="Helvetica" font-size="109.0" fill="#2E302E" transform="matrix(1.00, 0.00, -0.00, -1.00, 1255.4, 499.0)"> </text><text xml:space="preserve" font-family="Helvetica" font-size="109.0" fill="#2E302E" transform="matrix(1.00, 0.00, -0.00, -1.00, 1285.6, 499.0)">W</text><text xml:space="preserve" font-family="Helvetica" font-size="109.0" fill="#2E302E" transform="matrix(1.00, 0.00, -0.00, -1.00, 1386.6, 499.0)">o</text><text xml:space="preserve" font-family="Helvetica" font-size="109.0" fill="#2E302E" transform="matrix(1.00, 0.00, -0.00, -1.00, 1447.2, 499.0)">o</text><text xml:space="preserve" font-family="Helvetica" font-size="109.0" fill="#2E302E" transform="matrix(1.00, 0.00, -0.00, -1.00, 1507.9, 499.0)">t</text><text xml:space="preserve" font-family="Helvetica" font-size="109.0" fill="#2E302E" transform="matrix(1.00, 0.00, -0.00, -1.00, 1538.1, 499.0)">?</text><text xml:space="preserve" font-family="Helvetica" font-size="109.0" fill="#2E302E" transform="matrix(1.00, 0.00, -0.00, -1.00, 1598.8, 499.0)">!</text><text xml:space="preserve" font-family="Helvetica" font-size="12.0" fill="#414141" transform="matrix(1.00, 0.00, -0.00, -1.00, 1813.7, 75.2)">5</text></g></svg>