<?xml version="1.0" encoding="UTF-8" standalone="no"?><svg xmlns="http://www.w3.org/2000/svg" xmlns:xlink="http://www.w3.org/1999/xlink" clip-rule="evenodd" stroke-miterlimit="4.00" viewBox="0 0 1920 1080"><desc>SVG generated by Keynote</desc><defs></defs><g transform="matrix(1.00, 0.00, -0.00, -1.00, 0.0, 1080.0)"><g><clipPath id="clip-1375"><path d="M 0.0 1080.0 L 1920.0 1080.0 L 1920.0 0.0 L 0.0 0.0 Z M 0.0 1080.0 "></path></clipPath><g clip-path="url(#clip-1375)"><image xlink:href="../../1A0DE70C-F61B-4676-8BB6-F4857BFF56AD/assets/B0E4B2F49AA342F7FB226A4FA1212BF9.png" width="960.00" height="768.00" transform="matrix(2.00, 0.00, -0.00, -1.41, 0.0, 1080.0)"></image></g></g><image xlink:href="../../1A0DE70C-F61B-4676-8BB6-F4857BFF56AD/assets/FDAADD4F67D3860E728FE9F36FD602FD.png" width="145.00" height="38.00" transform="matrix(1.00, 0.00, -0.00, -1.03, 1725.0, 1080.0)"></image><text xml:space="preserve" font-family="Helvetica" font-size="84.0" fill="#2E302E" transform="matrix(1.00, 0.00, -0.00, -1.00, 561.0, 915.0)">H</text><text xml:space="preserve" font-family="Helvetica" font-size="84.0" fill="#2E302E" transform="matrix(1.00, 0.00, -0.00, -1.00, 621.7, 915.0)">o</text><text xml:space="preserve" font-family="Helvetica" font-size="84.0" fill="#2E302E" transform="matrix(1.00, 0.00, -0.00, -1.00, 668.4, 915.0)">w</text><text xml:space="preserve" font-family="Helvetica" font-size="84.0" fill="#2E302E" transform="matrix(1.00, 0.00, -0.00, -1.00, 729.1, 915.0)"> </text><text xml:space="preserve" font-family="Helvetica" font-size="84.0" fill="#2E302E" transform="matrix(1.00, 0.00, -0.00, -1.00, 752.4, 915.0)">a</text><text xml:space="preserve" font-family="Helvetica" font-size="84.0" fill="#2E302E" transform="matrix(1.00, 0.00, -0.00, -1.00, 799.1, 915.0)">r</text><text xml:space="preserve" font-family="Helvetica" font-size="84.0" fill="#2E302E" transform="matrix(1.00, 0.00, -0.00, -1.00, 827.1, 915.0)">e</text><text xml:space="preserve" font-family="Helvetica" font-size="84.0" fill="#2E302E" transform="matrix(1.00, 0.00, -0.00, -1.00, 873.9, 915.0)"> </text><text xml:space="preserve" font-family="Helvetica" font-size="84.0" fill="#2E302E" transform="matrix(1.00, 0.00, -0.00, -1.00, 897.2, 915.0)">t</text><text xml:space="preserve" font-family="Helvetica" font-size="84.0" fill="#2E302E" transform="matrix(1.00, 0.00, -0.00, -1.00, 920.5, 915.0)">h</text><text xml:space="preserve" font-family="Helvetica" font-size="84.0" fill="#2E302E" transform="matrix(1.00, 0.00, -0.00, -1.00, 967.2, 915.0)">e</text><text xml:space="preserve" font-family="Helvetica" font-size="84.0" fill="#2E302E" transform="matrix(1.00, 0.00, -0.00, -1.00, 1014.0, 915.0)">y</text><text xml:space="preserve" font-family="Helvetica" font-size="84.0" fill="#2E302E" transform="matrix(1.00, 0.00, -0.00, -1.00, 1056.0, 915.0)"> </text><text xml:space="preserve" font-family="Helvetica" font-size="84.0" fill="#2E302E" transform="matrix(1.00, 0.00, -0.00, -1.00, 1079.3, 915.0)">s</text><text xml:space="preserve" font-family="Helvetica" font-size="84.0" fill="#2E302E" transform="matrix(1.00, 0.00, -0.00, -1.00, 1121.3, 915.0)">t</text><text xml:space="preserve" font-family="Helvetica" font-size="84.0" fill="#2E302E" transform="matrix(1.00, 0.00, -0.00, -1.00, 1144.6, 915.0)">o</text><text xml:space="preserve" font-family="Helvetica" font-size="84.0" fill="#2E302E" transform="matrix(1.00, 0.00, -0.00, -1.00, 1191.3, 915.0)">r</text><text xml:space="preserve" font-family="Helvetica" font-size="84.0" fill="#2E302E" transform="matrix(1.00, 0.00, -0.00, -1.00, 1219.3, 915.0)">e</text><text xml:space="preserve" font-family="Helvetica" font-size="84.0" fill="#2E302E" transform="matrix(1.00, 0.00, -0.00, -1.00, 1266.0, 915.0)">d</text><text xml:space="preserve" font-family="Helvetica" font-size="84.0" fill="#2E302E" transform="matrix(1.00, 0.00, -0.00, -1.00, 1312.8, 915.0)">?</text><text xml:space="preserve" font-family="Helvetica" font-size="52.0" fill="#2E302E" transform="matrix(1.00, 0.00, -0.00, -1.00, 347.0, 722.0)">S</text><text xml:space="preserve" font-family="Helvetica" font-size="52.0" fill="#2E302E" transform="matrix(1.00, 0.00, -0.00, -1.00, 381.7, 722.0)">Q</text><text xml:space="preserve" font-family="Helvetica" font-size="52.0" fill="#2E302E" transform="matrix(1.00, 0.00, -0.00, -1.00, 422.1, 722.0)">L</text><text xml:space="preserve" font-family="Helvetica" font-size="52.0" fill="#2E302E" transform="matrix(1.00, 0.00, -0.00, -1.00, 451.1, 722.0)">i</text><text xml:space="preserve" font-family="Helvetica" font-size="52.0" fill="#2E302E" transform="matrix(1.00, 0.00, -0.00, -1.00, 462.6, 722.0)">t</text><text xml:space="preserve" font-family="Helvetica" font-size="52.0" fill="#2E302E" transform="matrix(1.00, 0.00, -0.00, -1.00, 477.1, 722.0)">e</text><text xml:space="preserve" font-family="Helvetica" font-size="52.0" fill="#2E302E" transform="matrix(1.00, 0.00, -0.00, -1.00, 506.0, 722.0)">:</text><text xml:space="preserve" font-family="Helvetica" font-size="52.0" fill="#2E302E" transform="matrix(1.00, 0.00, -0.00, -1.00, 520.4, 722.0)"> </text><text xml:space="preserve" font-family="Helvetica" font-size="52.0" fill="#2E302E" transform="matrix(1.00, 0.00, -0.00, -1.00, 534.9, 722.0)">m</text><text xml:space="preserve" font-family="Helvetica" font-size="52.0" fill="#2E302E" transform="matrix(1.00, 0.00, -0.00, -1.00, 578.2, 722.0)">o</text><text xml:space="preserve" font-family="Helvetica" font-size="52.0" fill="#2E302E" transform="matrix(1.00, 0.00, -0.00, -1.00, 607.1, 722.0)">z</text><text xml:space="preserve" font-family="Helvetica" font-size="52.0" fill="#2E302E" transform="matrix(1.00, 0.00, -0.00, -1.00, 633.1, 722.0)">_</text><text xml:space="preserve" font-family="Helvetica" font-size="52.0" fill="#2E302E" transform="matrix(1.00, 0.00, -0.00, -1.00, 662.0, 722.0)">f</text><text xml:space="preserve" font-family="Helvetica" font-size="52.0" fill="#2E302E" transform="matrix(1.00, 0.00, -0.00, -1.00, 676.5, 722.0)">a</text><text xml:space="preserve" font-family="Helvetica" font-size="52.0" fill="#2E302E" transform="matrix(1.00, 0.00, -0.00, -1.00, 705.4, 722.0)">v</text><text xml:space="preserve" font-family="Helvetica" font-size="52.0" fill="#2E302E" transform="matrix(1.00, 0.00, -0.00, -1.00, 731.4, 722.0)">i</text><text xml:space="preserve" font-family="Helvetica" font-size="52.0" fill="#2E302E" transform="matrix(1.00, 0.00, -0.00, -1.00, 743.0, 722.0)">c</text><text xml:space="preserve" font-family="Helvetica" font-size="52.0" fill="#2E302E" transform="matrix(1.00, 0.00, -0.00, -1.00, 769.0, 722.0)">o</text><text xml:space="preserve" font-family="Helvetica" font-size="52.0" fill="#2E302E" transform="matrix(1.00, 0.00, -0.00, -1.00, 797.9, 722.0)">n</text><text xml:space="preserve" font-family="Helvetica" font-size="52.0" fill="#2E302E" transform="matrix(1.00, 0.00, -0.00, -1.00, 826.8, 722.0)"> </text><text xml:space="preserve" font-family="Helvetica" font-size="52.0" fill="#2E302E" transform="matrix(1.00, 0.00, -0.00, -1.00, 841.3, 722.0)">t</text><text xml:space="preserve" font-family="Helvetica" font-size="52.0" fill="#2E302E" transform="matrix(1.00, 0.00, -0.00, -1.00, 855.7, 722.0)">a</text><text xml:space="preserve" font-family="Helvetica" font-size="52.0" fill="#2E302E" transform="matrix(1.00, 0.00, -0.00, -1.00, 884.6, 722.0)">b</text><text xml:space="preserve" font-family="Helvetica" font-size="52.0" fill="#2E302E" transform="matrix(1.00, 0.00, -0.00, -1.00, 913.6, 722.0)">l</text><text xml:space="preserve" font-family="Helvetica" font-size="52.0" fill="#2E302E" transform="matrix(1.00, 0.00, -0.00, -1.00, 925.1, 722.0)">e</text><text xml:space="preserve" font-family="Helvetica" font-size="52.0" fill="#2E302E" transform="matrix(1.00, 0.00, -0.00, -1.00, 954.1, 722.0)"> </text><text xml:space="preserve" font-family="Helvetica" font-size="52.0" fill="#2E302E" transform="matrix(1.00, 0.00, -0.00, -1.00, 968.5, 722.0)">f</text><text xml:space="preserve" font-family="Helvetica" font-size="52.0" fill="#2E302E" transform="matrix(1.00, 0.00, -0.00, -1.00, 982.9, 722.0)">r</text><text xml:space="preserve" font-family="Helvetica" font-size="52.0" fill="#2E302E" transform="matrix(1.00, 0.00, -0.00, -1.00, 1000.2, 722.0)">o</text><text xml:space="preserve" font-family="Helvetica" font-size="52.0" fill="#2E302E" transform="matrix(1.00, 0.00, -0.00, -1.00, 1029.2, 722.0)">m</text><text xml:space="preserve" font-family="Helvetica" font-size="52.0" fill="#2E302E" transform="matrix(1.00, 0.00, -0.00, -1.00, 1072.5, 722.0)"> </text><text xml:space="preserve" font-family="Helvetica" font-size="52.0" fill="#2E302E" transform="matrix(1.00, 0.00, -0.00, -1.00, 1086.9, 722.0)">t</text><text xml:space="preserve" font-family="Helvetica" font-size="52.0" fill="#2E302E" transform="matrix(1.00, 0.00, -0.00, -1.00, 1101.4, 722.0)">h</text><text xml:space="preserve" font-family="Helvetica" font-size="52.0" fill="#2E302E" transform="matrix(1.00, 0.00, -0.00, -1.00, 1130.3, 722.0)">e</text><text xml:space="preserve" font-family="Helvetica" font-size="52.0" fill="#2E302E" transform="matrix(1.00, 0.00, -0.00, -1.00, 1159.2, 722.0)"> </text><text xml:space="preserve" font-family="Helvetica" font-size="52.0" fill="#2E302E" transform="matrix(1.00, 0.00, -0.00, -1.00, 1173.7, 722.0)">P</text><text xml:space="preserve" font-family="Helvetica" font-size="52.0" fill="#2E302E" transform="matrix(1.00, 0.00, -0.00, -1.00, 1208.3, 722.0)">l</text><text xml:space="preserve" font-family="Helvetica" font-size="52.0" fill="#2E302E" transform="matrix(1.00, 0.00, -0.00, -1.00, 1219.9, 722.0)">a</text><text xml:space="preserve" font-family="Helvetica" font-size="52.0" fill="#2E302E" transform="matrix(1.00, 0.00, -0.00, -1.00, 1248.8, 722.0)">c</text><text xml:space="preserve" font-family="Helvetica" font-size="52.0" fill="#2E302E" transform="matrix(1.00, 0.00, -0.00, -1.00, 1274.8, 722.0)">e</text><text xml:space="preserve" font-family="Helvetica" font-size="52.0" fill="#2E302E" transform="matrix(1.00, 0.00, -0.00, -1.00, 1303.8, 722.0)">s</text><text xml:space="preserve" font-family="Helvetica" font-size="52.0" fill="#2E302E" transform="matrix(1.00, 0.00, -0.00, -1.00, 1329.8, 722.0)"> </text><text xml:space="preserve" font-family="Helvetica" font-size="52.0" fill="#2E302E" transform="matrix(1.00, 0.00, -0.00, -1.00, 1344.2, 722.0)">d</text><text xml:space="preserve" font-family="Helvetica" font-size="52.0" fill="#2E302E" transform="matrix(1.00, 0.00, -0.00, -1.00, 1373.1, 722.0)">a</text><text xml:space="preserve" font-family="Helvetica" font-size="52.0" fill="#2E302E" transform="matrix(1.00, 0.00, -0.00, -1.00, 1402.1, 722.0)">t</text><text xml:space="preserve" font-family="Helvetica" font-size="52.0" fill="#2E302E" transform="matrix(1.00, 0.00, -0.00, -1.00, 1416.5, 722.0)">a</text><text xml:space="preserve" font-family="Helvetica" font-size="52.0" fill="#2E302E" transform="matrix(1.00, 0.00, -0.00, -1.00, 1445.4, 722.0)">b</text><text xml:space="preserve" font-family="Helvetica" font-size="52.0" fill="#2E302E" transform="matrix(1.00, 0.00, -0.00, -1.00, 1474.4, 722.0)">a</text><text xml:space="preserve" font-family="Helvetica" font-size="52.0" fill="#2E302E" transform="matrix(1.00, 0.00, -0.00, -1.00, 1503.3, 722.0)">s</text><text xml:space="preserve" font-family="Helvetica" font-size="52.0" fill="#2E302E" transform="matrix(1.00, 0.00, -0.00, -1.00, 1529.3, 722.0)">e</text><text xml:space="preserve" font-family="Helvetica" font-size="52.0" fill="#2E302E" transform="matrix(1.00, 0.00, -0.00, -1.00, 1558.2, 722.0)">.</text><image xlink:href="../../EC70E70C-F61B-4676-8BB6-F4857BFF56AD/assets/699CC8A666A2742054225FE1450BC886.png" width="1534.00" height="540.00" transform="matrix(1.00, 0.00, -0.00, -1.00, 193.0, 758.0)"></image><g><clipPath id="clip-1376"><path d="M 233.0 632.0 L 1687.0 632.0 L 1687.0 345.0 L 233.0 345.0 Z M 233.0 632.4 "></path></clipPath><g clip-path="url(#clip-1376)"><image xlink:href="../../EC70E70C-F61B-4676-8BB6-F4857BFF56AD/assets/4EA32B82EE20688858EC15B3FCB6136B.png" width="1366.00" height="400.00" transform="matrix(1.06, 0.00, -0.00, -1.06, 233.0, 632.0)"></image></g></g><text xml:space="preserve" font-family="Helvetica" font-size="52.0" fill="#2E302E" transform="matrix(1.00, 0.00, -0.00, -1.00, 750.0, 211.0)">1</text><text xml:space="preserve" font-family="Helvetica" font-size="52.0" fill="#2E302E" transform="matrix(1.00, 0.00, -0.00, -1.00, 778.9, 211.0)">K</text><text xml:space="preserve" font-family="Helvetica" font-size="52.0" fill="#2E302E" transform="matrix(1.00, 0.00, -0.00, -1.00, 813.6, 211.0)">B</text><text xml:space="preserve" font-family="Helvetica" font-size="52.0" fill="#2E302E" transform="matrix(1.00, 0.00, -0.00, -1.00, 848.3, 211.0)"> </text><text xml:space="preserve" font-family="Helvetica" font-size="52.0" fill="#2E302E" transform="matrix(1.00, 0.00, -0.00, -1.00, 862.7, 211.0)">f</text><text xml:space="preserve" font-family="Helvetica" font-size="52.0" fill="#2E302E" transform="matrix(1.00, 0.00, -0.00, -1.00, 877.2, 211.0)">i</text><text xml:space="preserve" font-family="Helvetica" font-size="52.0" fill="#2E302E" transform="matrix(1.00, 0.00, -0.00, -1.00, 888.7, 211.0)">l</text><text xml:space="preserve" font-family="Helvetica" font-size="52.0" fill="#2E302E" transform="matrix(1.00, 0.00, -0.00, -1.00, 900.3, 211.0)">e</text><text xml:space="preserve" font-family="Helvetica" font-size="52.0" fill="#2E302E" transform="matrix(1.00, 0.00, -0.00, -1.00, 929.2, 211.0)"> </text><text xml:space="preserve" font-family="Helvetica" font-size="52.0" fill="#2E302E" transform="matrix(1.00, 0.00, -0.00, -1.00, 943.7, 211.0)">s</text><text xml:space="preserve" font-family="Helvetica" font-size="52.0" fill="#2E302E" transform="matrix(1.00, 0.00, -0.00, -1.00, 969.7, 211.0)">i</text><text xml:space="preserve" font-family="Helvetica" font-size="52.0" fill="#2E302E" transform="matrix(1.00, 0.00, -0.00, -1.00, 981.2, 211.0)">z</text><text xml:space="preserve" font-family="Helvetica" font-size="52.0" fill="#2E302E" transform="matrix(1.00, 0.00, -0.00, -1.00, 1007.2, 211.0)">e</text><text xml:space="preserve" font-family="Helvetica" font-size="52.0" fill="#2E302E" transform="matrix(1.00, 0.00, -0.00, -1.00, 1036.2, 211.0)"> </text><text xml:space="preserve" font-family="Helvetica" font-size="52.0" fill="#2E302E" transform="matrix(1.00, 0.00, -0.00, -1.00, 1050.6, 211.0)">“</text><text xml:space="preserve" font-family="Helvetica" font-size="52.0" fill="#2E302E" transform="matrix(1.00, 0.00, -0.00, -1.00, 1067.9, 211.0)">c</text><text xml:space="preserve" font-family="Helvetica" font-size="52.0" fill="#2E302E" transform="matrix(1.00, 0.00, -0.00, -1.00, 1093.9, 211.0)">a</text><text xml:space="preserve" font-family="Helvetica" font-size="52.0" fill="#2E302E" transform="matrix(1.00, 0.00, -0.00, -1.00, 1122.8, 211.0)">p</text><text xml:space="preserve" font-family="Helvetica" font-size="52.0" fill="#2E302E" transform="matrix(1.00, 0.00, -0.00, -1.00, 1151.8, 211.0)">”</text><text xml:space="preserve" font-family="Helvetica" font-size="12.0" fill="#414141" transform="matrix(1.00, 0.00, -0.00, -1.00, 1807.1, 75.2)">1</text><text xml:space="preserve" font-family="Helvetica" font-size="12.0" fill="#414141" transform="matrix(1.00, 0.00, -0.00, -1.00, 1813.7, 75.2)">7</text></g></svg>