<?xml version="1.0" encoding="UTF-8" standalone="no"?><svg xmlns="http://www.w3.org/2000/svg" xmlns:xlink="http://www.w3.org/1999/xlink" clip-rule="evenodd" stroke-miterlimit="4.00" viewBox="0 0 1920 1080"><desc>SVG generated by Keynote</desc><defs></defs><g transform="matrix(1.00, 0.00, -0.00, -1.00, 0.0, 1080.0)"><g><clipPath id="clip-1384"><path d="M 0.0 1080.0 L 1920.0 1080.0 L 1920.0 0.0 L 0.0 0.0 Z M 0.0 1080.0 "></path></clipPath><g clip-path="url(#clip-1384)"><image xlink:href="../../1A0DE70C-F61B-4676-8BB6-F4857BFF56AD/assets/B0E4B2F49AA342F7FB226A4FA1212BF9.png" width="960.00" height="768.00" transform="matrix(2.00, 0.00, -0.00, -1.41, 0.0, 1080.0)"></image></g></g><image xlink:href="../../1A0DE70C-F61B-4676-8BB6-F4857BFF56AD/assets/FDAADD4F67D3860E728FE9F36FD602FD.png" width="145.00" height="38.00" transform="matrix(1.00, 0.00, -0.00, -1.03, 1725.0, 1080.0)"></image><text xml:space="preserve" font-family="Helvetica" font-size="84.0" fill="#2E302E" transform="matrix(1.00, 0.00, -0.00, -1.00, 874.0, 915.0)">.</text><text xml:space="preserve" font-family="Helvetica" font-size="84.0" fill="#2E302E" transform="matrix(1.00, 0.00, -0.00, -1.00, 897.3, 915.0)">I</text><text xml:space="preserve" font-family="Helvetica" font-size="84.0" fill="#2E302E" transform="matrix(1.00, 0.00, -0.00, -1.00, 920.6, 915.0)">C</text><text xml:space="preserve" font-family="Helvetica" font-size="84.0" fill="#2E302E" transform="matrix(1.00, 0.00, -0.00, -1.00, 981.3, 915.0)">O</text><text xml:space="preserve" font-family="GillSans-Light" font-size="42.1" fill="#414141" transform="matrix(1.00, 0.00, -0.00, -1.00, 99.6, 779.4)">•</text><text xml:space="preserve" font-family="Helvetica" font-size="52.0" fill="#2E302E" transform="matrix(1.00, 0.00, -0.00, -1.00, 124.0, 774.0)">.</text><text xml:space="preserve" font-family="Helvetica" font-size="52.0" fill="#2E302E" transform="matrix(1.00, 0.00, -0.00, -1.00, 138.4, 774.0)">I</text><text xml:space="preserve" font-family="Helvetica" font-size="52.0" fill="#2E302E" transform="matrix(1.00, 0.00, -0.00, -1.00, 152.9, 774.0)">C</text><text xml:space="preserve" font-family="Helvetica" font-size="52.0" fill="#2E302E" transform="matrix(1.00, 0.00, -0.00, -1.00, 190.4, 774.0)">O</text><text xml:space="preserve" font-family="Helvetica" font-size="52.0" fill="#2E302E" transform="matrix(1.00, 0.00, -0.00, -1.00, 230.9, 774.0)">s</text><text xml:space="preserve" font-family="Helvetica" font-size="52.0" fill="#2E302E" transform="matrix(1.00, 0.00, -0.00, -1.00, 256.9, 774.0)"> </text><text xml:space="preserve" font-family="Helvetica" font-size="52.0" fill="#2E302E" transform="matrix(1.00, 0.00, -0.00, -1.00, 271.3, 774.0)">a</text><text xml:space="preserve" font-family="Helvetica" font-size="52.0" fill="#2E302E" transform="matrix(1.00, 0.00, -0.00, -1.00, 300.2, 774.0)">c</text><text xml:space="preserve" font-family="Helvetica" font-size="52.0" fill="#2E302E" transform="matrix(1.00, 0.00, -0.00, -1.00, 326.2, 774.0)">c</text><text xml:space="preserve" font-family="Helvetica" font-size="52.0" fill="#2E302E" transform="matrix(1.00, 0.00, -0.00, -1.00, 352.2, 774.0)">o</text><text xml:space="preserve" font-family="Helvetica" font-size="52.0" fill="#2E302E" transform="matrix(1.00, 0.00, -0.00, -1.00, 381.2, 774.0)">u</text><text xml:space="preserve" font-family="Helvetica" font-size="52.0" fill="#2E302E" transform="matrix(1.00, 0.00, -0.00, -1.00, 410.1, 774.0)">n</text><text xml:space="preserve" font-family="Helvetica" font-size="52.0" fill="#2E302E" transform="matrix(1.00, 0.00, -0.00, -1.00, 439.0, 774.0)">t</text><text xml:space="preserve" font-family="Helvetica" font-size="52.0" fill="#2E302E" transform="matrix(1.00, 0.00, -0.00, -1.00, 453.5, 774.0)"> </text><text xml:space="preserve" font-family="Helvetica" font-size="52.0" fill="#2E302E" transform="matrix(1.00, 0.00, -0.00, -1.00, 467.9, 774.0)">f</text><text xml:space="preserve" font-family="Helvetica" font-size="52.0" fill="#2E302E" transform="matrix(1.00, 0.00, -0.00, -1.00, 482.3, 774.0)">o</text><text xml:space="preserve" font-family="Helvetica" font-size="52.0" fill="#2E302E" transform="matrix(1.00, 0.00, -0.00, -1.00, 511.3, 774.0)">r</text><text xml:space="preserve" font-family="Helvetica" font-size="52.0" fill="#2E302E" transform="matrix(1.00, 0.00, -0.00, -1.00, 528.6, 774.0)"> </text><text xml:space="preserve" font-family="Helvetica" font-size="52.0" fill="#2E302E" transform="matrix(1.00, 0.00, -0.00, -1.00, 543.0, 774.0)">≈</text><text xml:space="preserve" font-family="Helvetica" font-size="52.0" fill="#2E302E" transform="matrix(1.00, 0.00, -0.00, -1.00, 571.6, 774.0)"> </text><text xml:space="preserve" font-family="Helvetica" font-size="52.0" fill="#2E302E" transform="matrix(1.00, 0.00, -0.00, -1.00, 586.0, 774.0)">5</text><text xml:space="preserve" font-family="Helvetica" font-size="52.0" fill="#2E302E" transform="matrix(1.00, 0.00, -0.00, -1.00, 614.9, 774.0)">0</text><text xml:space="preserve" font-family="Helvetica" font-size="52.0" fill="#2E302E" transform="matrix(1.00, 0.00, -0.00, -1.00, 643.9, 774.0)">%</text><text xml:space="preserve" font-family="Helvetica" font-size="52.0" fill="#2E302E" transform="matrix(1.00, 0.00, -0.00, -1.00, 690.1, 774.0)"> </text><text xml:space="preserve" font-family="Helvetica" font-size="52.0" fill="#2E302E" transform="matrix(1.00, 0.00, -0.00, -1.00, 704.5, 774.0)">o</text><text xml:space="preserve" font-family="Helvetica" font-size="52.0" fill="#2E302E" transform="matrix(1.00, 0.00, -0.00, -1.00, 733.5, 774.0)">f</text><text xml:space="preserve" font-family="Helvetica" font-size="52.0" fill="#2E302E" transform="matrix(1.00, 0.00, -0.00, -1.00, 747.9, 774.0)"> </text><text xml:space="preserve" font-family="Helvetica" font-size="52.0" fill="#2E302E" transform="matrix(1.00, 0.00, -0.00, -1.00, 762.3, 774.0)">t</text><text xml:space="preserve" font-family="Helvetica" font-size="52.0" fill="#2E302E" transform="matrix(1.00, 0.00, -0.00, -1.00, 776.8, 774.0)">h</text><text xml:space="preserve" font-family="Helvetica" font-size="52.0" fill="#2E302E" transform="matrix(1.00, 0.00, -0.00, -1.00, 805.7, 774.0)">e</text><text xml:space="preserve" font-family="Helvetica" font-size="52.0" fill="#2E302E" transform="matrix(1.00, 0.00, -0.00, -1.00, 834.6, 774.0)"> </text><text xml:space="preserve" font-family="Helvetica" font-size="52.0" fill="#2E302E" transform="matrix(1.00, 0.00, -0.00, -1.00, 849.1, 774.0)">f</text><text xml:space="preserve" font-family="Helvetica" font-size="52.0" fill="#2E302E" transform="matrix(1.00, 0.00, -0.00, -1.00, 863.5, 774.0)">a</text><text xml:space="preserve" font-family="Helvetica" font-size="52.0" fill="#2E302E" transform="matrix(1.00, 0.00, -0.00, -1.00, 892.4, 774.0)">v</text><text xml:space="preserve" font-family="Helvetica" font-size="52.0" fill="#2E302E" transform="matrix(1.00, 0.00, -0.00, -1.00, 918.4, 774.0)">i</text><text xml:space="preserve" font-family="Helvetica" font-size="52.0" fill="#2E302E" transform="matrix(1.00, 0.00, -0.00, -1.00, 930.0, 774.0)">c</text><text xml:space="preserve" font-family="Helvetica" font-size="52.0" fill="#2E302E" transform="matrix(1.00, 0.00, -0.00, -1.00, 956.0, 774.0)">o</text><text xml:space="preserve" font-family="Helvetica" font-size="52.0" fill="#2E302E" transform="matrix(1.00, 0.00, -0.00, -1.00, 984.9, 774.0)">n</text><text xml:space="preserve" font-family="Helvetica" font-size="52.0" fill="#2E302E" transform="matrix(1.00, 0.00, -0.00, -1.00, 1013.9, 774.0)">s</text><text xml:space="preserve" font-family="Helvetica" font-size="52.0" fill="#2E302E" transform="matrix(1.00, 0.00, -0.00, -1.00, 1039.9, 774.0)"> </text><text xml:space="preserve" font-family="Helvetica" font-size="52.0" fill="#2E302E" transform="matrix(1.00, 0.00, -0.00, -1.00, 1054.3, 774.0)">o</text><text xml:space="preserve" font-family="Helvetica" font-size="52.0" fill="#2E302E" transform="matrix(1.00, 0.00, -0.00, -1.00, 1083.2, 774.0)">n</text><text xml:space="preserve" font-family="Helvetica" font-size="52.0" fill="#2E302E" transform="matrix(1.00, 0.00, -0.00, -1.00, 1112.2, 774.0)"> </text><text xml:space="preserve" font-family="Helvetica" font-size="52.0" fill="#2E302E" transform="matrix(1.00, 0.00, -0.00, -1.00, 1126.6, 774.0)">t</text><text xml:space="preserve" font-family="Helvetica" font-size="52.0" fill="#2E302E" transform="matrix(1.00, 0.00, -0.00, -1.00, 1141.0, 774.0)">h</text><text xml:space="preserve" font-family="Helvetica" font-size="52.0" fill="#2E302E" transform="matrix(1.00, 0.00, -0.00, -1.00, 1170.0, 774.0)">e</text><text xml:space="preserve" font-family="Helvetica" font-size="52.0" fill="#2E302E" transform="matrix(1.00, 0.00, -0.00, -1.00, 1198.9, 774.0)"> </text><text xml:space="preserve" font-family="Helvetica" font-size="52.0" fill="#2E302E" transform="matrix(1.00, 0.00, -0.00, -1.00, 1213.3, 774.0)">w</text><text xml:space="preserve" font-family="Helvetica" font-size="52.0" fill="#2E302E" transform="matrix(1.00, 0.00, -0.00, -1.00, 1250.9, 774.0)">e</text><text xml:space="preserve" font-family="Helvetica" font-size="52.0" fill="#2E302E" transform="matrix(1.00, 0.00, -0.00, -1.00, 1279.8, 774.0)">b</text><text xml:space="preserve" font-family="GillSans-Light" font-size="42.1" fill="#414141" transform="matrix(1.00, 0.00, -0.00, -1.00, 99.6, 666.4)">•</text><text xml:space="preserve" font-family="Helvetica" font-size="52.0" fill="#2E302E" transform="matrix(1.00, 0.00, -0.00, -1.00, 124.0, 661.0)">.</text><text xml:space="preserve" font-family="Helvetica" font-size="52.0" fill="#2E302E" transform="matrix(1.00, 0.00, -0.00, -1.00, 138.4, 661.0)">I</text><text xml:space="preserve" font-family="Helvetica" font-size="52.0" fill="#2E302E" transform="matrix(1.00, 0.00, -0.00, -1.00, 152.9, 661.0)">C</text><text xml:space="preserve" font-family="Helvetica" font-size="52.0" fill="#2E302E" transform="matrix(1.00, 0.00, -0.00, -1.00, 190.4, 661.0)">O</text><text xml:space="preserve" font-family="Helvetica" font-size="52.0" fill="#2E302E" transform="matrix(1.00, 0.00, -0.00, -1.00, 230.9, 661.0)">s</text><text xml:space="preserve" font-family="Helvetica" font-size="52.0" fill="#2E302E" transform="matrix(1.00, 0.00, -0.00, -1.00, 256.9, 661.0)"> </text><text xml:space="preserve" font-family="Helvetica" font-size="52.0" fill="#2E302E" transform="matrix(1.00, 0.00, -0.00, -1.00, 271.3, 661.0)">m</text><text xml:space="preserve" font-family="Helvetica" font-size="52.0" fill="#2E302E" transform="matrix(1.00, 0.00, -0.00, -1.00, 314.6, 661.0)">a</text><text xml:space="preserve" font-family="Helvetica" font-size="52.0" fill="#2E302E" transform="matrix(1.00, 0.00, -0.00, -1.00, 343.6, 661.0)">y</text><text xml:space="preserve" font-family="Helvetica" font-size="52.0" fill="#2E302E" transform="matrix(1.00, 0.00, -0.00, -1.00, 369.6, 661.0)"> </text><text xml:space="preserve" font-family="Helvetica" font-size="52.0" fill="#2E302E" transform="matrix(1.00, 0.00, -0.00, -1.00, 384.0, 661.0)">c</text><text xml:space="preserve" font-family="Helvetica" font-size="52.0" fill="#2E302E" transform="matrix(1.00, 0.00, -0.00, -1.00, 410.0, 661.0)">o</text><text xml:space="preserve" font-family="Helvetica" font-size="52.0" fill="#2E302E" transform="matrix(1.00, 0.00, -0.00, -1.00, 438.9, 661.0)">n</text><text xml:space="preserve" font-family="Helvetica" font-size="52.0" fill="#2E302E" transform="matrix(1.00, 0.00, -0.00, -1.00, 467.9, 661.0)">t</text><text xml:space="preserve" font-family="Helvetica" font-size="52.0" fill="#2E302E" transform="matrix(1.00, 0.00, -0.00, -1.00, 482.3, 661.0)">a</text><text xml:space="preserve" font-family="Helvetica" font-size="52.0" fill="#2E302E" transform="matrix(1.00, 0.00, -0.00, -1.00, 511.2, 661.0)">i</text><text xml:space="preserve" font-family="Helvetica" font-size="52.0" fill="#2E302E" transform="matrix(1.00, 0.00, -0.00, -1.00, 522.8, 661.0)">n</text><text xml:space="preserve" font-family="Helvetica" font-size="52.0" fill="#2E302E" transform="matrix(1.00, 0.00, -0.00, -1.00, 551.7, 661.0)"> </text><text xml:space="preserve" font-family="Helvetica" font-size="52.0" fill="#2E302E" transform="matrix(1.00, 0.00, -0.00, -1.00, 566.2, 661.0)">m</text><text xml:space="preserve" font-family="Helvetica" font-size="52.0" fill="#2E302E" transform="matrix(1.00, 0.00, -0.00, -1.00, 609.5, 661.0)">u</text><text xml:space="preserve" font-family="Helvetica" font-size="52.0" fill="#2E302E" transform="matrix(1.00, 0.00, -0.00, -1.00, 638.4, 661.0)">l</text><text xml:space="preserve" font-family="Helvetica" font-size="52.0" fill="#2E302E" transform="matrix(1.00, 0.00, -0.00, -1.00, 650.0, 661.0)">t</text><text xml:space="preserve" font-family="Helvetica" font-size="52.0" fill="#2E302E" transform="matrix(1.00, 0.00, -0.00, -1.00, 664.4, 661.0)">i</text><text xml:space="preserve" font-family="Helvetica" font-size="52.0" fill="#2E302E" transform="matrix(1.00, 0.00, -0.00, -1.00, 676.0, 661.0)">p</text><text xml:space="preserve" font-family="Helvetica" font-size="52.0" fill="#2E302E" transform="matrix(1.00, 0.00, -0.00, -1.00, 704.9, 661.0)">l</text><text xml:space="preserve" font-family="Helvetica" font-size="52.0" fill="#2E302E" transform="matrix(1.00, 0.00, -0.00, -1.00, 716.5, 661.0)">e</text><text xml:space="preserve" font-family="Helvetica" font-size="52.0" fill="#2E302E" transform="matrix(1.00, 0.00, -0.00, -1.00, 745.4, 661.0)"> </text><text xml:space="preserve" font-family="Helvetica" font-size="52.0" fill="#2E302E" transform="matrix(1.00, 0.00, -0.00, -1.00, 759.8, 661.0)">i</text><text xml:space="preserve" font-family="Helvetica" font-size="52.0" fill="#2E302E" transform="matrix(1.00, 0.00, -0.00, -1.00, 771.4, 661.0)">m</text><text xml:space="preserve" font-family="Helvetica" font-size="52.0" fill="#2E302E" transform="matrix(1.00, 0.00, -0.00, -1.00, 814.7, 661.0)">a</text><text xml:space="preserve" font-family="Helvetica" font-size="52.0" fill="#2E302E" transform="matrix(1.00, 0.00, -0.00, -1.00, 843.6, 661.0)">g</text><text xml:space="preserve" font-family="Helvetica" font-size="52.0" fill="#2E302E" transform="matrix(1.00, 0.00, -0.00, -1.00, 872.6, 661.0)">e</text><text xml:space="preserve" font-family="Helvetica" font-size="52.0" fill="#2E302E" transform="matrix(1.00, 0.00, -0.00, -1.00, 901.5, 661.0)">s</text><text xml:space="preserve" font-family="GillSans-Light" font-size="42.1" fill="#414141" transform="matrix(1.00, 0.00, -0.00, -1.00, 129.6, 553.4)">•</text><text xml:space="preserve" font-family="Helvetica" font-size="52.0" fill="#2C2C2C" transform="matrix(1.00, 0.00, -0.00, -1.00, 154.0, 548.0)">3</text><text xml:space="preserve" font-family="Helvetica" font-size="52.0" fill="#2C2C2C" transform="matrix(1.00, 0.00, -0.00, -1.00, 182.9, 548.0)">0</text><text xml:space="preserve" font-family="Helvetica" font-size="52.0" fill="#2C2C2C" transform="matrix(1.00, 0.00, -0.00, -1.00, 211.9, 548.0)">%</text><text xml:space="preserve" font-family="Helvetica" font-size="52.0" fill="#2C2C2C" transform="matrix(1.00, 0.00, -0.00, -1.00, 258.1, 548.0)">+</text><text xml:space="preserve" font-family="Helvetica" font-size="52.0" fill="#2C2C2C" transform="matrix(1.00, 0.00, -0.00, -1.00, 288.5, 548.0)"> </text><text xml:space="preserve" font-family="Helvetica" font-size="52.0" fill="#2C2C2C" transform="matrix(1.00, 0.00, -0.00, -1.00, 302.9, 548.0)">o</text><text xml:space="preserve" font-family="Helvetica" font-size="52.0" fill="#2C2C2C" transform="matrix(1.00, 0.00, -0.00, -1.00, 331.8, 548.0)">f</text><text xml:space="preserve" font-family="Helvetica" font-size="52.0" fill="#2C2C2C" transform="matrix(1.00, 0.00, -0.00, -1.00, 346.3, 548.0)"> </text><text xml:space="preserve" font-family="Helvetica" font-size="52.0" fill="#2C2C2C" transform="matrix(1.00, 0.00, -0.00, -1.00, 360.7, 548.0)">t</text><text xml:space="preserve" font-family="Helvetica" font-size="52.0" fill="#2C2C2C" transform="matrix(1.00, 0.00, -0.00, -1.00, 375.2, 548.0)">h</text><text xml:space="preserve" font-family="Helvetica" font-size="52.0" fill="#2C2C2C" transform="matrix(1.00, 0.00, -0.00, -1.00, 404.1, 548.0)">e</text><text xml:space="preserve" font-family="Helvetica" font-size="52.0" fill="#2C2C2C" transform="matrix(1.00, 0.00, -0.00, -1.00, 433.0, 548.0)"> </text><text xml:space="preserve" font-family="Helvetica" font-size="52.0" fill="#2C2C2C" transform="matrix(1.00, 0.00, -0.00, -1.00, 447.4, 548.0)">m</text><text xml:space="preserve" font-family="Helvetica" font-size="52.0" fill="#2C2C2C" transform="matrix(1.00, 0.00, -0.00, -1.00, 490.8, 548.0)">e</text><text xml:space="preserve" font-family="Helvetica" font-size="52.0" fill="#2C2C2C" transform="matrix(1.00, 0.00, -0.00, -1.00, 519.7, 548.0)">a</text><text xml:space="preserve" font-family="Helvetica" font-size="52.0" fill="#2C2C2C" transform="matrix(1.00, 0.00, -0.00, -1.00, 548.6, 548.0)">s</text><text xml:space="preserve" font-family="Helvetica" font-size="52.0" fill="#2C2C2C" transform="matrix(1.00, 0.00, -0.00, -1.00, 574.6, 548.0)">u</text><text xml:space="preserve" font-family="Helvetica" font-size="52.0" fill="#2C2C2C" transform="matrix(1.00, 0.00, -0.00, -1.00, 603.6, 548.0)">r</text><text xml:space="preserve" font-family="Helvetica" font-size="52.0" fill="#2C2C2C" transform="matrix(1.00, 0.00, -0.00, -1.00, 620.9, 548.0)">e</text><text xml:space="preserve" font-family="Helvetica" font-size="52.0" fill="#2C2C2C" transform="matrix(1.00, 0.00, -0.00, -1.00, 649.8, 548.0)">d</text><text xml:space="preserve" font-family="Helvetica" font-size="52.0" fill="#2C2C2C" transform="matrix(1.00, 0.00, -0.00, -1.00, 678.7, 548.0)"> </text><text xml:space="preserve" font-family="Helvetica" font-size="52.0" fill="#2C2C2C" transform="matrix(1.00, 0.00, -0.00, -1.00, 693.2, 548.0)">I</text><text xml:space="preserve" font-family="Helvetica" font-size="52.0" fill="#2C2C2C" transform="matrix(1.00, 0.00, -0.00, -1.00, 707.6, 548.0)">C</text><text xml:space="preserve" font-family="Helvetica" font-size="52.0" fill="#2C2C2C" transform="matrix(1.00, 0.00, -0.00, -1.00, 745.2, 548.0)">O</text><text xml:space="preserve" font-family="Helvetica" font-size="52.0" fill="#2C2C2C" transform="matrix(1.00, 0.00, -0.00, -1.00, 785.6, 548.0)">s</text><text xml:space="preserve" font-family="Helvetica" font-size="52.0" fill="#2C2C2C" transform="matrix(1.00, 0.00, -0.00, -1.00, 811.6, 548.0)"> </text><text xml:space="preserve" font-family="Helvetica-Oblique" font-style="italic" font-size="52.0" fill="#2C2C2C" transform="matrix(1.00, 0.00, -0.00, -1.00, 826.0, 548.0)">p</text><text xml:space="preserve" font-family="Helvetica-Oblique" font-style="italic" font-size="52.0" fill="#2C2C2C" transform="matrix(1.00, 0.00, -0.00, -1.00, 854.9, 548.0)">r</text><text xml:space="preserve" font-family="Helvetica-Oblique" font-style="italic" font-size="52.0" fill="#2C2C2C" transform="matrix(1.00, 0.00, -0.00, -1.00, 872.3, 548.0)">o</text><text xml:space="preserve" font-family="Helvetica-Oblique" font-style="italic" font-size="52.0" fill="#2C2C2C" transform="matrix(1.00, 0.00, -0.00, -1.00, 901.2, 548.0)">b</text><text xml:space="preserve" font-family="Helvetica-Oblique" font-style="italic" font-size="52.0" fill="#2C2C2C" transform="matrix(1.00, 0.00, -0.00, -1.00, 930.1, 548.0)">a</text><text xml:space="preserve" font-family="Helvetica-Oblique" font-style="italic" font-size="52.0" fill="#2C2C2C" transform="matrix(1.00, 0.00, -0.00, -1.00, 959.1, 548.0)">b</text><text xml:space="preserve" font-family="Helvetica-Oblique" font-style="italic" font-size="52.0" fill="#2C2C2C" transform="matrix(1.00, 0.00, -0.00, -1.00, 988.0, 548.0)">l</text><text xml:space="preserve" font-family="Helvetica-Oblique" font-style="italic" font-size="52.0" fill="#2C2C2C" transform="matrix(1.00, 0.00, -0.00, -1.00, 999.5, 548.0)">y</text><text xml:space="preserve" font-family="Helvetica" font-size="52.0" fill="#2C2C2C" transform="matrix(1.00, 0.00, -0.00, -1.00, 1025.5, 548.0)"> </text><text xml:space="preserve" font-family="Helvetica" font-size="52.0" fill="#2C2C2C" transform="matrix(1.00, 0.00, -0.00, -1.00, 1039.9, 548.0)">c</text><text xml:space="preserve" font-family="Helvetica" font-size="52.0" fill="#2C2C2C" transform="matrix(1.00, 0.00, -0.00, -1.00, 1065.9, 548.0)">o</text><text xml:space="preserve" font-family="Helvetica" font-size="52.0" fill="#2C2C2C" transform="matrix(1.00, 0.00, -0.00, -1.00, 1094.8, 548.0)">n</text><text xml:space="preserve" font-family="Helvetica" font-size="52.0" fill="#2C2C2C" transform="matrix(1.00, 0.00, -0.00, -1.00, 1123.8, 548.0)">t</text><text xml:space="preserve" font-family="Helvetica" font-size="52.0" fill="#2C2C2C" transform="matrix(1.00, 0.00, -0.00, -1.00, 1138.2, 548.0)">a</text><text xml:space="preserve" font-family="Helvetica" font-size="52.0" fill="#2C2C2C" transform="matrix(1.00, 0.00, -0.00, -1.00, 1167.1, 548.0)">i</text><text xml:space="preserve" font-family="Helvetica" font-size="52.0" fill="#2C2C2C" transform="matrix(1.00, 0.00, -0.00, -1.00, 1178.7, 548.0)">n</text><text xml:space="preserve" font-family="Helvetica" font-size="52.0" fill="#2C2C2C" transform="matrix(1.00, 0.00, -0.00, -1.00, 1207.6, 548.0)"> </text><text xml:space="preserve" font-family="Helvetica" font-size="52.0" fill="#2C2C2C" transform="matrix(1.00, 0.00, -0.00, -1.00, 1222.1, 548.0)">i</text><text xml:space="preserve" font-family="Helvetica" font-size="52.0" fill="#2C2C2C" transform="matrix(1.00, 0.00, -0.00, -1.00, 1233.6, 548.0)">m</text><text xml:space="preserve" font-family="Helvetica" font-size="52.0" fill="#2C2C2C" transform="matrix(1.00, 0.00, -0.00, -1.00, 1277.0, 548.0)">a</text><text xml:space="preserve" font-family="Helvetica" font-size="52.0" fill="#2C2C2C" transform="matrix(1.00, 0.00, -0.00, -1.00, 1305.9, 548.0)">g</text><text xml:space="preserve" font-family="Helvetica" font-size="52.0" fill="#2C2C2C" transform="matrix(1.00, 0.00, -0.00, -1.00, 1334.8, 548.0)">e</text><text xml:space="preserve" font-family="Helvetica" font-size="52.0" fill="#2C2C2C" transform="matrix(1.00, 0.00, -0.00, -1.00, 1363.7, 548.0)">s</text><text xml:space="preserve" font-family="Helvetica" font-size="52.0" fill="#2C2C2C" transform="matrix(1.00, 0.00, -0.00, -1.00, 1389.7, 548.0)"> </text><text xml:space="preserve" font-family="Helvetica" font-size="52.0" fill="#2C2C2C" transform="matrix(1.00, 0.00, -0.00, -1.00, 1404.2, 548.0)">b</text><text xml:space="preserve" font-family="Helvetica" font-size="52.0" fill="#2C2C2C" transform="matrix(1.00, 0.00, -0.00, -1.00, 1433.1, 548.0)">i</text><text xml:space="preserve" font-family="Helvetica" font-size="52.0" fill="#2C2C2C" transform="matrix(1.00, 0.00, -0.00, -1.00, 1444.7, 548.0)">g</text><text xml:space="preserve" font-family="Helvetica" font-size="52.0" fill="#2C2C2C" transform="matrix(1.00, 0.00, -0.00, -1.00, 1473.6, 548.0)">g</text><text xml:space="preserve" font-family="Helvetica" font-size="52.0" fill="#2C2C2C" transform="matrix(1.00, 0.00, -0.00, -1.00, 1502.5, 548.0)">e</text><text xml:space="preserve" font-family="Helvetica" font-size="52.0" fill="#2C2C2C" transform="matrix(1.00, 0.00, -0.00, -1.00, 1531.5, 548.0)">r</text><text xml:space="preserve" font-family="Helvetica" font-size="52.0" fill="#2C2C2C" transform="matrix(1.00, 0.00, -0.00, -1.00, 1548.8, 548.0)"> </text><text xml:space="preserve" font-family="Helvetica" font-size="52.0" fill="#2C2C2C" transform="matrix(1.00, 0.00, -0.00, -1.00, 1563.2, 548.0)">t</text><text xml:space="preserve" font-family="Helvetica" font-size="52.0" fill="#2C2C2C" transform="matrix(1.00, 0.00, -0.00, -1.00, 1577.7, 548.0)">h</text><text xml:space="preserve" font-family="Helvetica" font-size="52.0" fill="#2C2C2C" transform="matrix(1.00, 0.00, -0.00, -1.00, 1606.6, 548.0)">a</text><text xml:space="preserve" font-family="Helvetica" font-size="52.0" fill="#2C2C2C" transform="matrix(1.00, 0.00, -0.00, -1.00, 1635.5, 548.0)">n</text><text xml:space="preserve" font-family="Helvetica" font-size="52.0" fill="#2C2C2C" transform="matrix(1.00, 0.00, -0.00, -1.00, 1664.5, 548.0)"> </text><text xml:space="preserve" font-family="Helvetica" font-size="52.0" fill="#2C2C2C" transform="matrix(1.00, 0.00, -0.00, -1.00, 154.0, 486.0)">1</text><text xml:space="preserve" font-family="Helvetica" font-size="52.0" fill="#2C2C2C" transform="matrix(1.00, 0.00, -0.00, -1.00, 182.9, 486.0)">6</text><text xml:space="preserve" font-family="Helvetica" font-size="52.0" fill="#2C2C2C" transform="matrix(1.00, 0.00, -0.00, -1.00, 211.9, 486.0)">×</text><text xml:space="preserve" font-family="Helvetica" font-size="52.0" fill="#2C2C2C" transform="matrix(1.00, 0.00, -0.00, -1.00, 242.2, 486.0)">1</text><text xml:space="preserve" font-family="Helvetica" font-size="52.0" fill="#2C2C2C" transform="matrix(1.00, 0.00, -0.00, -1.00, 271.1, 486.0)">6</text><text xml:space="preserve" font-family="GillSans-Light" font-size="42.1" fill="#414141" transform="matrix(1.00, 0.00, -0.00, -1.00, 129.6, 378.4)">•</text><text xml:space="preserve" font-family="Helvetica" font-size="52.0" fill="#2E302E" transform="matrix(1.00, 0.00, -0.00, -1.00, 154.0, 373.0)">I</text><text xml:space="preserve" font-family="Helvetica" font-size="52.0" fill="#2E302E" transform="matrix(1.00, 0.00, -0.00, -1.00, 168.4, 373.0)">C</text><text xml:space="preserve" font-family="Helvetica" font-size="52.0" fill="#2E302E" transform="matrix(1.00, 0.00, -0.00, -1.00, 206.0, 373.0)">O</text><text xml:space="preserve" font-family="Helvetica" font-size="52.0" fill="#2E302E" transform="matrix(1.00, 0.00, -0.00, -1.00, 246.4, 373.0)">s</text><text xml:space="preserve" font-family="Helvetica" font-size="52.0" fill="#2E302E" transform="matrix(1.00, 0.00, -0.00, -1.00, 272.4, 373.0)"> </text><text xml:space="preserve" font-family="Helvetica" font-size="52.0" fill="#2E302E" transform="matrix(1.00, 0.00, -0.00, -1.00, 286.9, 373.0)">c</text><text xml:space="preserve" font-family="Helvetica" font-size="52.0" fill="#2E302E" transform="matrix(1.00, 0.00, -0.00, -1.00, 312.9, 373.0)">o</text><text xml:space="preserve" font-family="Helvetica" font-size="52.0" fill="#2E302E" transform="matrix(1.00, 0.00, -0.00, -1.00, 341.8, 373.0)">n</text><text xml:space="preserve" font-family="Helvetica" font-size="52.0" fill="#2E302E" transform="matrix(1.00, 0.00, -0.00, -1.00, 370.7, 373.0)">t</text><text xml:space="preserve" font-family="Helvetica" font-size="52.0" fill="#2E302E" transform="matrix(1.00, 0.00, -0.00, -1.00, 385.2, 373.0)">a</text><text xml:space="preserve" font-family="Helvetica" font-size="52.0" fill="#2E302E" transform="matrix(1.00, 0.00, -0.00, -1.00, 414.1, 373.0)">i</text><text xml:space="preserve" font-family="Helvetica" font-size="52.0" fill="#2E302E" transform="matrix(1.00, 0.00, -0.00, -1.00, 425.7, 373.0)">n</text><text xml:space="preserve" font-family="Helvetica" font-size="52.0" fill="#2E302E" transform="matrix(1.00, 0.00, -0.00, -1.00, 454.6, 373.0)">i</text><text xml:space="preserve" font-family="Helvetica" font-size="52.0" fill="#2E302E" transform="matrix(1.00, 0.00, -0.00, -1.00, 466.2, 373.0)">n</text><text xml:space="preserve" font-family="Helvetica" font-size="52.0" fill="#2E302E" transform="matrix(1.00, 0.00, -0.00, -1.00, 495.1, 373.0)">g</text><text xml:space="preserve" font-family="Helvetica" font-size="52.0" fill="#2E302E" transform="matrix(1.00, 0.00, -0.00, -1.00, 524.0, 373.0)"> </text><text xml:space="preserve" font-family="Helvetica" font-size="52.0" fill="#2E302E" transform="matrix(1.00, 0.00, -0.00, -1.00, 538.5, 373.0)">1</text><text xml:space="preserve" font-family="Helvetica" font-size="52.0" fill="#2E302E" transform="matrix(1.00, 0.00, -0.00, -1.00, 567.4, 373.0)">6</text><text xml:space="preserve" font-family="Helvetica" font-size="52.0" fill="#2E302E" transform="matrix(1.00, 0.00, -0.00, -1.00, 596.3, 373.0)">×</text><text xml:space="preserve" font-family="Helvetica" font-size="52.0" fill="#2E302E" transform="matrix(1.00, 0.00, -0.00, -1.00, 626.7, 373.0)">1</text><text xml:space="preserve" font-family="Helvetica" font-size="52.0" fill="#2E302E" transform="matrix(1.00, 0.00, -0.00, -1.00, 655.6, 373.0)">6</text><text xml:space="preserve" font-family="Helvetica" font-size="52.0" fill="#2E302E" transform="matrix(1.00, 0.00, -0.00, -1.00, 684.5, 373.0)"> </text><text xml:space="preserve" font-family="Helvetica" font-size="52.0" fill="#2E302E" transform="matrix(1.00, 0.00, -0.00, -1.00, 699.0, 373.0)">a</text><text xml:space="preserve" font-family="Helvetica" font-size="52.0" fill="#2E302E" transform="matrix(1.00, 0.00, -0.00, -1.00, 727.9, 373.0)">n</text><text xml:space="preserve" font-family="Helvetica" font-size="52.0" fill="#2E302E" transform="matrix(1.00, 0.00, -0.00, -1.00, 756.8, 373.0)">d</text><text xml:space="preserve" font-family="Helvetica" font-size="52.0" fill="#2E302E" transform="matrix(1.00, 0.00, -0.00, -1.00, 785.8, 373.0)"> </text><text xml:space="preserve" font-family="Helvetica" font-size="52.0" fill="#2E302E" transform="matrix(1.00, 0.00, -0.00, -1.00, 800.2, 373.0)">3</text><text xml:space="preserve" font-family="Helvetica" font-size="52.0" fill="#2E302E" transform="matrix(1.00, 0.00, -0.00, -1.00, 829.1, 373.0)">2</text><text xml:space="preserve" font-family="Helvetica" font-size="52.0" fill="#2E302E" transform="matrix(1.00, 0.00, -0.00, -1.00, 858.1, 373.0)">×</text><text xml:space="preserve" font-family="Helvetica" font-size="52.0" fill="#2E302E" transform="matrix(1.00, 0.00, -0.00, -1.00, 888.3, 373.0)">3</text><text xml:space="preserve" font-family="Helvetica" font-size="52.0" fill="#2E302E" transform="matrix(1.00, 0.00, -0.00, -1.00, 917.3, 373.0)">2</text><text xml:space="preserve" font-family="Helvetica" font-size="52.0" fill="#2E302E" transform="matrix(1.00, 0.00, -0.00, -1.00, 946.2, 373.0)"> </text><text xml:space="preserve" font-family="Helvetica" font-size="52.0" fill="#2E302E" transform="matrix(1.00, 0.00, -0.00, -1.00, 960.6, 373.0)">i</text><text xml:space="preserve" font-family="Helvetica" font-size="52.0" fill="#2E302E" transform="matrix(1.00, 0.00, -0.00, -1.00, 972.2, 373.0)">m</text><text xml:space="preserve" font-family="Helvetica" font-size="52.0" fill="#2E302E" transform="matrix(1.00, 0.00, -0.00, -1.00, 1015.5, 373.0)">a</text><text xml:space="preserve" font-family="Helvetica" font-size="52.0" fill="#2E302E" transform="matrix(1.00, 0.00, -0.00, -1.00, 1044.4, 373.0)">g</text><text xml:space="preserve" font-family="Helvetica" font-size="52.0" fill="#2E302E" transform="matrix(1.00, 0.00, -0.00, -1.00, 1073.4, 373.0)">e</text><text xml:space="preserve" font-family="Helvetica" font-size="52.0" fill="#2E302E" transform="matrix(1.00, 0.00, -0.00, -1.00, 1102.3, 373.0)">s</text><text xml:space="preserve" font-family="Helvetica" font-size="52.0" fill="#2E302E" transform="matrix(1.00, 0.00, -0.00, -1.00, 1128.3, 373.0)"> </text><text xml:space="preserve" font-family="Helvetica" font-size="52.0" fill="#2E302E" transform="matrix(1.00, 0.00, -0.00, -1.00, 1142.7, 373.0)">a</text><text xml:space="preserve" font-family="Helvetica" font-size="52.0" fill="#2E302E" transform="matrix(1.00, 0.00, -0.00, -1.00, 1171.7, 373.0)">r</text><text xml:space="preserve" font-family="Helvetica" font-size="52.0" fill="#2E302E" transform="matrix(1.00, 0.00, -0.00, -1.00, 1189.0, 373.0)">e</text><text xml:space="preserve" font-family="Helvetica" font-size="52.0" fill="#2E302E" transform="matrix(1.00, 0.00, -0.00, -1.00, 1217.9, 373.0)"> </text><text xml:space="preserve" font-family="Helvetica" font-size="52.0" fill="#2E302E" transform="matrix(1.00, 0.00, -0.00, -1.00, 1232.3, 373.0)">u</text><text xml:space="preserve" font-family="Helvetica" font-size="52.0" fill="#2E302E" transform="matrix(1.00, 0.00, -0.00, -1.00, 1261.3, 373.0)">s</text><text xml:space="preserve" font-family="Helvetica" font-size="52.0" fill="#2E302E" transform="matrix(1.00, 0.00, -0.00, -1.00, 1287.3, 373.0)">u</text><text xml:space="preserve" font-family="Helvetica" font-size="52.0" fill="#2E302E" transform="matrix(1.00, 0.00, -0.00, -1.00, 1316.2, 373.0)">a</text><text xml:space="preserve" font-family="Helvetica" font-size="52.0" fill="#2E302E" transform="matrix(1.00, 0.00, -0.00, -1.00, 1345.1, 373.0)">l</text><text xml:space="preserve" font-family="Helvetica" font-size="52.0" fill="#2E302E" transform="matrix(1.00, 0.00, -0.00, -1.00, 1356.7, 373.0)">l</text><text xml:space="preserve" font-family="Helvetica" font-size="52.0" fill="#2E302E" transform="matrix(1.00, 0.00, -0.00, -1.00, 1368.3, 373.0)">y</text><text xml:space="preserve" font-family="Helvetica" font-size="52.0" fill="#2E302E" transform="matrix(1.00, 0.00, -0.00, -1.00, 1394.3, 373.0)"> </text><text xml:space="preserve" font-family="Helvetica" font-size="52.0" fill="#2E302E" transform="matrix(1.00, 0.00, -0.00, -1.00, 1408.7, 373.0)">a</text><text xml:space="preserve" font-family="Helvetica" font-size="52.0" fill="#2E302E" transform="matrix(1.00, 0.00, -0.00, -1.00, 1437.6, 373.0)">r</text><text xml:space="preserve" font-family="Helvetica" font-size="52.0" fill="#2E302E" transform="matrix(1.00, 0.00, -0.00, -1.00, 1454.9, 373.0)">o</text><text xml:space="preserve" font-family="Helvetica" font-size="52.0" fill="#2E302E" transform="matrix(1.00, 0.00, -0.00, -1.00, 1483.9, 373.0)">u</text><text xml:space="preserve" font-family="Helvetica" font-size="52.0" fill="#2E302E" transform="matrix(1.00, 0.00, -0.00, -1.00, 1512.8, 373.0)">n</text><text xml:space="preserve" font-family="Helvetica" font-size="52.0" fill="#2E302E" transform="matrix(1.00, 0.00, -0.00, -1.00, 1541.7, 373.0)">d</text><text xml:space="preserve" font-family="Helvetica" font-size="52.0" fill="#2E302E" transform="matrix(1.00, 0.00, -0.00, -1.00, 1570.7, 373.0)"> </text><text xml:space="preserve" font-family="Helvetica" font-size="52.0" fill="#2E302E" transform="matrix(1.00, 0.00, -0.00, -1.00, 1585.1, 373.0)">5</text><text xml:space="preserve" font-family="Helvetica" font-size="52.0" fill="#2E302E" transform="matrix(1.00, 0.00, -0.00, -1.00, 1614.0, 373.0)">K</text><text xml:space="preserve" font-family="Helvetica" font-size="52.0" fill="#2E302E" transform="matrix(1.00, 0.00, -0.00, -1.00, 1648.7, 373.0)">B</text><text xml:space="preserve" font-family="Helvetica-Bold" font-weight="bold" font-size="81.0" fill="#414141" transform="matrix(1.00, 0.00, -0.00, -1.00, 135.0, 244.0)">C</text><text xml:space="preserve" font-family="Helvetica-Bold" font-weight="bold" font-size="81.0" fill="#414141" transform="matrix(1.00, 0.00, -0.00, -1.00, 193.5, 244.0)">o</text><text xml:space="preserve" font-family="Helvetica-Bold" font-weight="bold" font-size="81.0" fill="#414141" transform="matrix(1.00, 0.00, -0.00, -1.00, 243.0, 244.0)">n</text><text xml:space="preserve" font-family="Helvetica-Bold" font-weight="bold" font-size="81.0" fill="#414141" transform="matrix(1.00, 0.00, -0.00, -1.00, 292.4, 244.0)">c</text><text xml:space="preserve" font-family="Helvetica-Bold" font-weight="bold" font-size="81.0" fill="#414141" transform="matrix(1.00, 0.00, -0.00, -1.00, 337.5, 244.0)">l</text><text xml:space="preserve" font-family="Helvetica-Bold" font-weight="bold" font-size="81.0" fill="#414141" transform="matrix(1.00, 0.00, -0.00, -1.00, 360.0, 244.0)">u</text><text xml:space="preserve" font-family="Helvetica-Bold" font-weight="bold" font-size="81.0" fill="#414141" transform="matrix(1.00, 0.00, -0.00, -1.00, 409.5, 244.0)">s</text><text xml:space="preserve" font-family="Helvetica-Bold" font-weight="bold" font-size="81.0" fill="#414141" transform="matrix(1.00, 0.00, -0.00, -1.00, 454.5, 244.0)">i</text><text xml:space="preserve" font-family="Helvetica-Bold" font-weight="bold" font-size="81.0" fill="#414141" transform="matrix(1.00, 0.00, -0.00, -1.00, 477.0, 244.0)">o</text><text xml:space="preserve" font-family="Helvetica-Bold" font-weight="bold" font-size="81.0" fill="#414141" transform="matrix(1.00, 0.00, -0.00, -1.00, 526.5, 244.0)">n</text><text xml:space="preserve" font-family="Helvetica-Bold" font-weight="bold" font-size="81.0" fill="#414141" transform="matrix(1.00, 0.00, -0.00, -1.00, 575.9, 244.0)">:</text><text xml:space="preserve" font-family="Helvetica-Bold" font-weight="bold" font-size="81.0" fill="#414141" transform="matrix(1.00, 0.00, -0.00, -1.00, 602.9, 244.0)"> </text><text xml:space="preserve" font-family="Helvetica-Bold" font-weight="bold" font-size="81.0" fill="#414141" transform="matrix(1.00, 0.00, -0.00, -1.00, 625.4, 244.0)">W</text><text xml:space="preserve" font-family="Helvetica-Bold" font-weight="bold" font-size="81.0" fill="#414141" transform="matrix(1.00, 0.00, -0.00, -1.00, 700.4, 244.0)">e</text><text xml:space="preserve" font-family="Helvetica-Bold" font-weight="bold" font-size="81.0" fill="#414141" transform="matrix(1.00, 0.00, -0.00, -1.00, 745.5, 244.0)"> </text><text xml:space="preserve" font-family="Helvetica-Bold" font-weight="bold" font-size="81.0" fill="#414141" transform="matrix(1.00, 0.00, -0.00, -1.00, 768.0, 244.0)">n</text><text xml:space="preserve" font-family="Helvetica-Bold" font-weight="bold" font-size="81.0" fill="#414141" transform="matrix(1.00, 0.00, -0.00, -1.00, 817.4, 244.0)">e</text><text xml:space="preserve" font-family="Helvetica-Bold" font-weight="bold" font-size="81.0" fill="#414141" transform="matrix(1.00, 0.00, -0.00, -1.00, 862.5, 244.0)">e</text><text xml:space="preserve" font-family="Helvetica-Bold" font-weight="bold" font-size="81.0" fill="#414141" transform="matrix(1.00, 0.00, -0.00, -1.00, 907.5, 244.0)">d</text><text xml:space="preserve" font-family="Helvetica-Bold" font-weight="bold" font-size="81.0" fill="#414141" transform="matrix(1.00, 0.00, -0.00, -1.00, 957.0, 244.0)"> </text><text xml:space="preserve" font-family="Helvetica-Bold" font-weight="bold" font-size="81.0" fill="#414141" transform="matrix(1.00, 0.00, -0.00, -1.00, 979.5, 244.0)">t</text><text xml:space="preserve" font-family="Helvetica-Bold" font-weight="bold" font-size="81.0" fill="#414141" transform="matrix(1.00, 0.00, -0.00, -1.00, 1006.5, 244.0)">o</text><text xml:space="preserve" font-family="Helvetica-Bold" font-weight="bold" font-size="81.0" fill="#414141" transform="matrix(1.00, 0.00, -0.00, -1.00, 1055.9, 244.0)"> </text><text xml:space="preserve" font-family="Helvetica-Bold" font-weight="bold" font-size="81.0" fill="#414141" transform="matrix(1.00, 0.00, -0.00, -1.00, 1078.4, 244.0)">s</text><text xml:space="preserve" font-family="Helvetica-Bold" font-weight="bold" font-size="81.0" fill="#414141" transform="matrix(1.00, 0.00, -0.00, -1.00, 1123.5, 244.0)">t</text><text xml:space="preserve" font-family="Helvetica-Bold" font-weight="bold" font-size="81.0" fill="#414141" transform="matrix(1.00, 0.00, -0.00, -1.00, 1150.5, 244.0)">o</text><text xml:space="preserve" font-family="Helvetica-Bold" font-weight="bold" font-size="81.0" fill="#414141" transform="matrix(1.00, 0.00, -0.00, -1.00, 1199.9, 244.0)">r</text><text xml:space="preserve" font-family="Helvetica-Bold" font-weight="bold" font-size="81.0" fill="#414141" transform="matrix(1.00, 0.00, -0.00, -1.00, 1231.5, 244.0)">e</text><text xml:space="preserve" font-family="Helvetica-Bold" font-weight="bold" font-size="81.0" fill="#414141" transform="matrix(1.00, 0.00, -0.00, -1.00, 1276.5, 244.0)"> </text><text xml:space="preserve" font-family="Helvetica-Bold" font-weight="bold" font-size="81.0" fill="#414141" transform="matrix(1.00, 0.00, -0.00, -1.00, 1299.0, 244.0)">b</text><text xml:space="preserve" font-family="Helvetica-Bold" font-weight="bold" font-size="81.0" fill="#414141" transform="matrix(1.00, 0.00, -0.00, -1.00, 1348.5, 244.0)">i</text><text xml:space="preserve" font-family="Helvetica-Bold" font-weight="bold" font-size="81.0" fill="#414141" transform="matrix(1.00, 0.00, -0.00, -1.00, 1371.0, 244.0)">g</text><text xml:space="preserve" font-family="Helvetica-Bold" font-weight="bold" font-size="81.0" fill="#414141" transform="matrix(1.00, 0.00, -0.00, -1.00, 1420.4, 244.0)">g</text><text xml:space="preserve" font-family="Helvetica-Bold" font-weight="bold" font-size="81.0" fill="#414141" transform="matrix(1.00, 0.00, -0.00, -1.00, 1469.9, 244.0)">e</text><text xml:space="preserve" font-family="Helvetica-Bold" font-weight="bold" font-size="81.0" fill="#414141" transform="matrix(1.00, 0.00, -0.00, -1.00, 1515.0, 244.0)">r</text><text xml:space="preserve" font-family="Helvetica-Bold" font-weight="bold" font-size="81.0" fill="#414141" transform="matrix(1.00, 0.00, -0.00, -1.00, 1546.5, 244.0)"> </text><text xml:space="preserve" font-family="Helvetica-Bold" font-weight="bold" font-size="81.0" fill="#414141" transform="matrix(1.00, 0.00, -0.00, -1.00, 1569.0, 244.0)">I</text><text xml:space="preserve" font-family="Helvetica-Bold" font-weight="bold" font-size="81.0" fill="#414141" transform="matrix(1.00, 0.00, -0.00, -1.00, 1591.5, 244.0)">C</text><text xml:space="preserve" font-family="Helvetica-Bold" font-weight="bold" font-size="81.0" fill="#414141" transform="matrix(1.00, 0.00, -0.00, -1.00, 1650.0, 244.0)">O</text><text xml:space="preserve" font-family="Helvetica-Bold" font-weight="bold" font-size="81.0" fill="#414141" transform="matrix(1.00, 0.00, -0.00, -1.00, 1713.0, 244.0)">s</text><text xml:space="preserve" font-family="Helvetica-Bold" font-weight="bold" font-size="81.0" fill="#414141" transform="matrix(1.00, 0.00, -0.00, -1.00, 1758.0, 244.0)">!</text><text xml:space="preserve" font-family="Helvetica" font-size="12.0" fill="#414141" transform="matrix(1.00, 0.00, -0.00, -1.00, 1807.1, 75.2)">2</text><text xml:space="preserve" font-family="Helvetica" font-size="12.0" fill="#414141" transform="matrix(1.00, 0.00, -0.00, -1.00, 1813.7, 75.2)">0</text></g></svg>