<?xml version="1.0" encoding="UTF-8" standalone="no"?><svg xmlns="http://www.w3.org/2000/svg" xmlns:xlink="http://www.w3.org/1999/xlink" clip-rule="evenodd" stroke-miterlimit="4.00" viewBox="0 0 1920 1080"><desc>SVG generated by Keynote</desc><defs></defs><g transform="matrix(1.00, 0.00, -0.00, -1.00, 0.0, 1080.0)"><g><clipPath id="clip-1379"><path d="M 0.0 1080.0 L 1920.0 1080.0 L 1920.0 0.0 L 0.0 0.0 Z M 0.0 1080.0 "></path></clipPath><g clip-path="url(#clip-1379)"><image xlink:href="../../1A0DE70C-F61B-4676-8BB6-F4857BFF56AD/assets/B0E4B2F49AA342F7FB226A4FA1212BF9.png" width="960.00" height="768.00" transform="matrix(2.00, 0.00, -0.00, -1.41, 0.0, 1080.0)"></image></g></g><image xlink:href="../../1A0DE70C-F61B-4676-8BB6-F4857BFF56AD/assets/FDAADD4F67D3860E728FE9F36FD602FD.png" width="145.00" height="38.00" transform="matrix(1.00, 0.00, -0.00, -1.03, 1725.0, 1080.0)"></image><text xml:space="preserve" font-family="Helvetica" font-size="84.0" fill="#2E302E" transform="matrix(1.00, 0.00, -0.00, -1.00, 582.0, 915.0)">I</text><text xml:space="preserve" font-family="Helvetica" font-size="84.0" fill="#2E302E" transform="matrix(1.00, 0.00, -0.00, -1.00, 605.3, 915.0)">n</text><text xml:space="preserve" font-family="Helvetica" font-size="84.0" fill="#2E302E" transform="matrix(1.00, 0.00, -0.00, -1.00, 652.1, 915.0)">f</text><text xml:space="preserve" font-family="Helvetica" font-size="84.0" fill="#2E302E" transform="matrix(1.00, 0.00, -0.00, -1.00, 675.4, 915.0)">o</text><text xml:space="preserve" font-family="Helvetica" font-size="84.0" fill="#2E302E" transform="matrix(1.00, 0.00, -0.00, -1.00, 722.1, 915.0)">r</text><text xml:space="preserve" font-family="Helvetica" font-size="84.0" fill="#2E302E" transform="matrix(1.00, 0.00, -0.00, -1.00, 750.1, 915.0)">m</text><text xml:space="preserve" font-family="Helvetica" font-size="84.0" fill="#2E302E" transform="matrix(1.00, 0.00, -0.00, -1.00, 820.1, 915.0)">a</text><text xml:space="preserve" font-family="Helvetica" font-size="84.0" fill="#2E302E" transform="matrix(1.00, 0.00, -0.00, -1.00, 866.8, 915.0)">t</text><text xml:space="preserve" font-family="Helvetica" font-size="84.0" fill="#2E302E" transform="matrix(1.00, 0.00, -0.00, -1.00, 890.1, 915.0)">i</text><text xml:space="preserve" font-family="Helvetica" font-size="84.0" fill="#2E302E" transform="matrix(1.00, 0.00, -0.00, -1.00, 908.8, 915.0)">o</text><text xml:space="preserve" font-family="Helvetica" font-size="84.0" fill="#2E302E" transform="matrix(1.00, 0.00, -0.00, -1.00, 955.5, 915.0)">n</text><text xml:space="preserve" font-family="Helvetica" font-size="84.0" fill="#2E302E" transform="matrix(1.00, 0.00, -0.00, -1.00, 1002.3, 915.0)"> </text><text xml:space="preserve" font-family="Helvetica" font-size="84.0" fill="#2E302E" transform="matrix(1.00, 0.00, -0.00, -1.00, 1025.6, 915.0)">i</text><text xml:space="preserve" font-family="Helvetica" font-size="84.0" fill="#2E302E" transform="matrix(1.00, 0.00, -0.00, -1.00, 1044.3, 915.0)">s</text><text xml:space="preserve" font-family="Helvetica" font-size="84.0" fill="#2E302E" transform="matrix(1.00, 0.00, -0.00, -1.00, 1086.3, 915.0)"> </text><text xml:space="preserve" font-family="Helvetica" font-size="84.0" fill="#2E302E" transform="matrix(1.00, 0.00, -0.00, -1.00, 1109.6, 915.0)">p</text><text xml:space="preserve" font-family="Helvetica" font-size="84.0" fill="#2E302E" transform="matrix(1.00, 0.00, -0.00, -1.00, 1156.3, 915.0)">o</text><text xml:space="preserve" font-family="Helvetica" font-size="84.0" fill="#2E302E" transform="matrix(1.00, 0.00, -0.00, -1.00, 1203.0, 915.0)">w</text><text xml:space="preserve" font-family="Helvetica" font-size="84.0" fill="#2E302E" transform="matrix(1.00, 0.00, -0.00, -1.00, 1263.7, 915.0)">e</text><text xml:space="preserve" font-family="Helvetica" font-size="84.0" fill="#2E302E" transform="matrix(1.00, 0.00, -0.00, -1.00, 1310.5, 915.0)">r</text><text xml:space="preserve" font-family="GillSans-Light" font-size="42.1" fill="#414141" transform="matrix(1.00, 0.00, -0.00, -1.00, 99.6, 644.9)">•</text><text xml:space="preserve" font-family="Helvetica" font-size="52.0" fill="#2E302E" transform="matrix(1.00, 0.00, -0.00, -1.00, 124.0, 640.0)">T</text><text xml:space="preserve" font-family="Helvetica" font-size="52.0" fill="#2E302E" transform="matrix(1.00, 0.00, -0.00, -1.00, 150.0, 640.0)">o</text><text xml:space="preserve" font-family="Helvetica" font-size="52.0" fill="#2E302E" transform="matrix(1.00, 0.00, -0.00, -1.00, 178.9, 640.0)"> </text><text xml:space="preserve" font-family="Helvetica" font-size="52.0" fill="#2E302E" transform="matrix(1.00, 0.00, -0.00, -1.00, 193.4, 640.0)">b</text><text xml:space="preserve" font-family="Helvetica" font-size="52.0" fill="#2E302E" transform="matrix(1.00, 0.00, -0.00, -1.00, 222.3, 640.0)">e</text><text xml:space="preserve" font-family="Helvetica" font-size="52.0" fill="#2E302E" transform="matrix(1.00, 0.00, -0.00, -1.00, 251.2, 640.0)">t</text><text xml:space="preserve" font-family="Helvetica" font-size="52.0" fill="#2E302E" transform="matrix(1.00, 0.00, -0.00, -1.00, 265.7, 640.0)">t</text><text xml:space="preserve" font-family="Helvetica" font-size="52.0" fill="#2E302E" transform="matrix(1.00, 0.00, -0.00, -1.00, 280.1, 640.0)">e</text><text xml:space="preserve" font-family="Helvetica" font-size="52.0" fill="#2E302E" transform="matrix(1.00, 0.00, -0.00, -1.00, 309.0, 640.0)">r</text><text xml:space="preserve" font-family="Helvetica" font-size="52.0" fill="#2E302E" transform="matrix(1.00, 0.00, -0.00, -1.00, 326.3, 640.0)"> </text><text xml:space="preserve" font-family="Helvetica" font-size="52.0" fill="#2E302E" transform="matrix(1.00, 0.00, -0.00, -1.00, 340.8, 640.0)">u</text><text xml:space="preserve" font-family="Helvetica" font-size="52.0" fill="#2E302E" transform="matrix(1.00, 0.00, -0.00, -1.00, 369.7, 640.0)">n</text><text xml:space="preserve" font-family="Helvetica" font-size="52.0" fill="#2E302E" transform="matrix(1.00, 0.00, -0.00, -1.00, 398.6, 640.0)">d</text><text xml:space="preserve" font-family="Helvetica" font-size="52.0" fill="#2E302E" transform="matrix(1.00, 0.00, -0.00, -1.00, 427.6, 640.0)">e</text><text xml:space="preserve" font-family="Helvetica" font-size="52.0" fill="#2E302E" transform="matrix(1.00, 0.00, -0.00, -1.00, 456.5, 640.0)">r</text><text xml:space="preserve" font-family="Helvetica" font-size="52.0" fill="#2E302E" transform="matrix(1.00, 0.00, -0.00, -1.00, 473.8, 640.0)">s</text><text xml:space="preserve" font-family="Helvetica" font-size="52.0" fill="#2E302E" transform="matrix(1.00, 0.00, -0.00, -1.00, 499.8, 640.0)">t</text><text xml:space="preserve" font-family="Helvetica" font-size="52.0" fill="#2E302E" transform="matrix(1.00, 0.00, -0.00, -1.00, 514.3, 640.0)">a</text><text xml:space="preserve" font-family="Helvetica" font-size="52.0" fill="#2E302E" transform="matrix(1.00, 0.00, -0.00, -1.00, 543.2, 640.0)">n</text><text xml:space="preserve" font-family="Helvetica" font-size="52.0" fill="#2E302E" transform="matrix(1.00, 0.00, -0.00, -1.00, 572.1, 640.0)">d</text><text xml:space="preserve" font-family="Helvetica" font-size="52.0" fill="#2E302E" transform="matrix(1.00, 0.00, -0.00, -1.00, 601.1, 640.0)"> </text><text xml:space="preserve" font-family="Helvetica" font-size="52.0" fill="#2E302E" transform="matrix(1.00, 0.00, -0.00, -1.00, 615.5, 640.0)">t</text><text xml:space="preserve" font-family="Helvetica" font-size="52.0" fill="#2E302E" transform="matrix(1.00, 0.00, -0.00, -1.00, 629.9, 640.0)">h</text><text xml:space="preserve" font-family="Helvetica" font-size="52.0" fill="#2E302E" transform="matrix(1.00, 0.00, -0.00, -1.00, 658.9, 640.0)">e</text><text xml:space="preserve" font-family="Helvetica" font-size="52.0" fill="#2E302E" transform="matrix(1.00, 0.00, -0.00, -1.00, 687.8, 640.0)"> </text><text xml:space="preserve" font-family="Helvetica" font-size="52.0" fill="#2E302E" transform="matrix(1.00, 0.00, -0.00, -1.00, 702.2, 640.0)">p</text><text xml:space="preserve" font-family="Helvetica" font-size="52.0" fill="#2E302E" transform="matrix(1.00, 0.00, -0.00, -1.00, 731.2, 640.0)">r</text><text xml:space="preserve" font-family="Helvetica" font-size="52.0" fill="#2E302E" transform="matrix(1.00, 0.00, -0.00, -1.00, 748.5, 640.0)">o</text><text xml:space="preserve" font-family="Helvetica" font-size="52.0" fill="#2E302E" transform="matrix(1.00, 0.00, -0.00, -1.00, 777.4, 640.0)">b</text><text xml:space="preserve" font-family="Helvetica" font-size="52.0" fill="#2E302E" transform="matrix(1.00, 0.00, -0.00, -1.00, 806.3, 640.0)">l</text><text xml:space="preserve" font-family="Helvetica" font-size="52.0" fill="#2E302E" transform="matrix(1.00, 0.00, -0.00, -1.00, 817.9, 640.0)">e</text><text xml:space="preserve" font-family="Helvetica" font-size="52.0" fill="#2E302E" transform="matrix(1.00, 0.00, -0.00, -1.00, 846.8, 640.0)">m</text><text xml:space="preserve" font-family="Helvetica" font-size="52.0" fill="#2E302E" transform="matrix(1.00, 0.00, -0.00, -1.00, 890.1, 640.0)">.</text><text xml:space="preserve" font-family="GillSans-Light" font-size="42.1" fill="#414141" transform="matrix(1.00, 0.00, -0.00, -1.00, 99.6, 531.9)">•</text><text xml:space="preserve" font-family="Helvetica" font-size="52.0" fill="#2E302E" transform="matrix(1.00, 0.00, -0.00, -1.00, 124.0, 527.0)">T</text><text xml:space="preserve" font-family="Helvetica" font-size="52.0" fill="#2E302E" transform="matrix(1.00, 0.00, -0.00, -1.00, 150.0, 527.0)">e</text><text xml:space="preserve" font-family="Helvetica" font-size="52.0" fill="#2E302E" transform="matrix(1.00, 0.00, -0.00, -1.00, 178.9, 527.0)">l</text><text xml:space="preserve" font-family="Helvetica" font-size="52.0" fill="#2E302E" transform="matrix(1.00, 0.00, -0.00, -1.00, 190.5, 527.0)">e</text><text xml:space="preserve" font-family="Helvetica" font-size="52.0" fill="#2E302E" transform="matrix(1.00, 0.00, -0.00, -1.00, 219.4, 527.0)">m</text><text xml:space="preserve" font-family="Helvetica" font-size="52.0" fill="#2E302E" transform="matrix(1.00, 0.00, -0.00, -1.00, 262.7, 527.0)">e</text><text xml:space="preserve" font-family="Helvetica" font-size="52.0" fill="#2E302E" transform="matrix(1.00, 0.00, -0.00, -1.00, 291.7, 527.0)">t</text><text xml:space="preserve" font-family="Helvetica" font-size="52.0" fill="#2E302E" transform="matrix(1.00, 0.00, -0.00, -1.00, 306.1, 527.0)">r</text><text xml:space="preserve" font-family="Helvetica" font-size="52.0" fill="#2E302E" transform="matrix(1.00, 0.00, -0.00, -1.00, 323.4, 527.0)">y</text><text xml:space="preserve" font-family="Helvetica" font-size="52.0" fill="#2E302E" transform="matrix(1.00, 0.00, -0.00, -1.00, 349.4, 527.0)"> </text><text xml:space="preserve" font-family="Helvetica" font-size="52.0" fill="#2E302E" transform="matrix(1.00, 0.00, -0.00, -1.00, 363.9, 527.0)">r</text><text xml:space="preserve" font-family="Helvetica" font-size="52.0" fill="#2E302E" transform="matrix(1.00, 0.00, -0.00, -1.00, 381.2, 527.0)">e</text><text xml:space="preserve" font-family="Helvetica" font-size="52.0" fill="#2E302E" transform="matrix(1.00, 0.00, -0.00, -1.00, 410.1, 527.0)">t</text><text xml:space="preserve" font-family="Helvetica" font-size="52.0" fill="#2E302E" transform="matrix(1.00, 0.00, -0.00, -1.00, 424.5, 527.0)">r</text><text xml:space="preserve" font-family="Helvetica" font-size="52.0" fill="#2E302E" transform="matrix(1.00, 0.00, -0.00, -1.00, 441.9, 527.0)">i</text><text xml:space="preserve" font-family="Helvetica" font-size="52.0" fill="#2E302E" transform="matrix(1.00, 0.00, -0.00, -1.00, 453.4, 527.0)">e</text><text xml:space="preserve" font-family="Helvetica" font-size="52.0" fill="#2E302E" transform="matrix(1.00, 0.00, -0.00, -1.00, 482.3, 527.0)">v</text><text xml:space="preserve" font-family="Helvetica" font-size="52.0" fill="#2E302E" transform="matrix(1.00, 0.00, -0.00, -1.00, 508.3, 527.0)">e</text><text xml:space="preserve" font-family="Helvetica" font-size="52.0" fill="#2E302E" transform="matrix(1.00, 0.00, -0.00, -1.00, 537.3, 527.0)">s</text><text xml:space="preserve" font-family="Helvetica" font-size="52.0" fill="#2E302E" transform="matrix(1.00, 0.00, -0.00, -1.00, 563.3, 527.0)"> </text><text xml:space="preserve" font-family="Helvetica" font-size="52.0" fill="#2E302E" transform="matrix(1.00, 0.00, -0.00, -1.00, 577.7, 527.0)">a</text><text xml:space="preserve" font-family="Helvetica" font-size="52.0" fill="#2E302E" transform="matrix(1.00, 0.00, -0.00, -1.00, 606.6, 527.0)">n</text><text xml:space="preserve" font-family="Helvetica" font-size="52.0" fill="#2E302E" transform="matrix(1.00, 0.00, -0.00, -1.00, 635.6, 527.0)">o</text><text xml:space="preserve" font-family="Helvetica" font-size="52.0" fill="#2E302E" transform="matrix(1.00, 0.00, -0.00, -1.00, 664.5, 527.0)">n</text><text xml:space="preserve" font-family="Helvetica" font-size="52.0" fill="#2E302E" transform="matrix(1.00, 0.00, -0.00, -1.00, 693.4, 527.0)">y</text><text xml:space="preserve" font-family="Helvetica" font-size="52.0" fill="#2E302E" transform="matrix(1.00, 0.00, -0.00, -1.00, 719.4, 527.0)">m</text><text xml:space="preserve" font-family="Helvetica" font-size="52.0" fill="#2E302E" transform="matrix(1.00, 0.00, -0.00, -1.00, 762.8, 527.0)">o</text><text xml:space="preserve" font-family="Helvetica" font-size="52.0" fill="#2E302E" transform="matrix(1.00, 0.00, -0.00, -1.00, 791.7, 527.0)">u</text><text xml:space="preserve" font-family="Helvetica" font-size="52.0" fill="#2E302E" transform="matrix(1.00, 0.00, -0.00, -1.00, 820.6, 527.0)">s</text><text xml:space="preserve" font-family="Helvetica" font-size="52.0" fill="#2E302E" transform="matrix(1.00, 0.00, -0.00, -1.00, 846.6, 527.0)"> </text><text xml:space="preserve" font-family="Helvetica" font-size="52.0" fill="#2E302E" transform="matrix(1.00, 0.00, -0.00, -1.00, 861.0, 527.0)">u</text><text xml:space="preserve" font-family="Helvetica" font-size="52.0" fill="#2E302E" transform="matrix(1.00, 0.00, -0.00, -1.00, 890.0, 527.0)">s</text><text xml:space="preserve" font-family="Helvetica" font-size="52.0" fill="#2E302E" transform="matrix(1.00, 0.00, -0.00, -1.00, 916.0, 527.0)">a</text><text xml:space="preserve" font-family="Helvetica" font-size="52.0" fill="#2E302E" transform="matrix(1.00, 0.00, -0.00, -1.00, 944.9, 527.0)">g</text><text xml:space="preserve" font-family="Helvetica" font-size="52.0" fill="#2E302E" transform="matrix(1.00, 0.00, -0.00, -1.00, 973.8, 527.0)">e</text><text xml:space="preserve" font-family="Helvetica" font-size="52.0" fill="#2E302E" transform="matrix(1.00, 0.00, -0.00, -1.00, 1002.8, 527.0)"> </text><text xml:space="preserve" font-family="Helvetica" font-size="52.0" fill="#2E302E" transform="matrix(1.00, 0.00, -0.00, -1.00, 1017.2, 527.0)">d</text><text xml:space="preserve" font-family="Helvetica" font-size="52.0" fill="#2E302E" transform="matrix(1.00, 0.00, -0.00, -1.00, 1046.1, 527.0)">a</text><text xml:space="preserve" font-family="Helvetica" font-size="52.0" fill="#2E302E" transform="matrix(1.00, 0.00, -0.00, -1.00, 1075.1, 527.0)">t</text><text xml:space="preserve" font-family="Helvetica" font-size="52.0" fill="#2E302E" transform="matrix(1.00, 0.00, -0.00, -1.00, 1089.5, 527.0)">a</text><text xml:space="preserve" font-family="Helvetica" font-size="52.0" fill="#2E302E" transform="matrix(1.00, 0.00, -0.00, -1.00, 1118.4, 527.0)">.</text><text xml:space="preserve" font-family="GillSans-Light" font-size="42.1" fill="#414141" transform="matrix(1.00, 0.00, -0.00, -1.00, 99.6, 418.9)">•</text><text xml:space="preserve" font-family="Helvetica" font-size="52.0" fill="#2E302E" transform="matrix(1.00, 0.00, -0.00, -1.00, 124.0, 414.0)">D</text><text xml:space="preserve" font-family="Helvetica" font-size="52.0" fill="#2E302E" transform="matrix(1.00, 0.00, -0.00, -1.00, 161.6, 414.0)">i</text><text xml:space="preserve" font-family="Helvetica" font-size="52.0" fill="#2E302E" transform="matrix(1.00, 0.00, -0.00, -1.00, 173.1, 414.0)">f</text><text xml:space="preserve" font-family="Helvetica" font-size="52.0" fill="#2E302E" transform="matrix(1.00, 0.00, -0.00, -1.00, 186.7, 414.0)">f</text><text xml:space="preserve" font-family="Helvetica" font-size="52.0" fill="#2E302E" transform="matrix(1.00, 0.00, -0.00, -1.00, 201.1, 414.0)">e</text><text xml:space="preserve" font-family="Helvetica" font-size="52.0" fill="#2E302E" transform="matrix(1.00, 0.00, -0.00, -1.00, 230.0, 414.0)">r</text><text xml:space="preserve" font-family="Helvetica" font-size="52.0" fill="#2E302E" transform="matrix(1.00, 0.00, -0.00, -1.00, 247.3, 414.0)">e</text><text xml:space="preserve" font-family="Helvetica" font-size="52.0" fill="#2E302E" transform="matrix(1.00, 0.00, -0.00, -1.00, 276.3, 414.0)">n</text><text xml:space="preserve" font-family="Helvetica" font-size="52.0" fill="#2E302E" transform="matrix(1.00, 0.00, -0.00, -1.00, 305.2, 414.0)">t</text><text xml:space="preserve" font-family="Helvetica" font-size="52.0" fill="#2E302E" transform="matrix(1.00, 0.00, -0.00, -1.00, 319.6, 414.0)"> </text><text xml:space="preserve" font-family="Helvetica" font-size="52.0" fill="#2E302E" transform="matrix(1.00, 0.00, -0.00, -1.00, 334.1, 414.0)">p</text><text xml:space="preserve" font-family="Helvetica" font-size="52.0" fill="#2E302E" transform="matrix(1.00, 0.00, -0.00, -1.00, 363.0, 414.0)">r</text><text xml:space="preserve" font-family="Helvetica" font-size="52.0" fill="#2E302E" transform="matrix(1.00, 0.00, -0.00, -1.00, 380.3, 414.0)">o</text><text xml:space="preserve" font-family="Helvetica" font-size="52.0" fill="#2E302E" transform="matrix(1.00, 0.00, -0.00, -1.00, 409.2, 414.0)">b</text><text xml:space="preserve" font-family="Helvetica" font-size="52.0" fill="#2E302E" transform="matrix(1.00, 0.00, -0.00, -1.00, 438.2, 414.0)">e</text><text xml:space="preserve" font-family="Helvetica" font-size="52.0" fill="#2E302E" transform="matrix(1.00, 0.00, -0.00, -1.00, 467.1, 414.0)">s</text><text xml:space="preserve" font-family="Helvetica" font-size="52.0" fill="#2E302E" transform="matrix(1.00, 0.00, -0.00, -1.00, 493.1, 414.0)"> </text><text xml:space="preserve" font-family="Helvetica" font-size="52.0" fill="#2E302E" transform="matrix(1.00, 0.00, -0.00, -1.00, 507.5, 414.0)">u</text><text xml:space="preserve" font-family="Helvetica" font-size="52.0" fill="#2E302E" transform="matrix(1.00, 0.00, -0.00, -1.00, 536.5, 414.0)">s</text><text xml:space="preserve" font-family="Helvetica" font-size="52.0" fill="#2E302E" transform="matrix(1.00, 0.00, -0.00, -1.00, 562.5, 414.0)">e</text><text xml:space="preserve" font-family="Helvetica" font-size="52.0" fill="#2E302E" transform="matrix(1.00, 0.00, -0.00, -1.00, 591.4, 414.0)">d</text><text xml:space="preserve" font-family="Helvetica" font-size="52.0" fill="#2E302E" transform="matrix(1.00, 0.00, -0.00, -1.00, 620.3, 414.0)">.</text><text xml:space="preserve" font-family="GillSans-Light" font-size="42.1" fill="#414141" transform="matrix(1.00, 0.00, -0.00, -1.00, 99.6, 305.9)">•</text><text xml:space="preserve" font-family="Helvetica" font-size="52.0" fill="#2E302E" transform="matrix(1.00, 0.00, -0.00, -1.00, 124.0, 301.0)">P</text><text xml:space="preserve" font-family="Helvetica" font-size="52.0" fill="#2E302E" transform="matrix(1.00, 0.00, -0.00, -1.00, 158.7, 301.0)">u</text><text xml:space="preserve" font-family="Helvetica" font-size="52.0" fill="#2E302E" transform="matrix(1.00, 0.00, -0.00, -1.00, 187.6, 301.0)">b</text><text xml:space="preserve" font-family="Helvetica" font-size="52.0" fill="#2E302E" transform="matrix(1.00, 0.00, -0.00, -1.00, 216.5, 301.0)">l</text><text xml:space="preserve" font-family="Helvetica" font-size="52.0" fill="#2E302E" transform="matrix(1.00, 0.00, -0.00, -1.00, 228.1, 301.0)">i</text><text xml:space="preserve" font-family="Helvetica" font-size="52.0" fill="#2E302E" transform="matrix(1.00, 0.00, -0.00, -1.00, 239.7, 301.0)">c</text><text xml:space="preserve" font-family="Helvetica" font-size="52.0" fill="#2E302E" transform="matrix(1.00, 0.00, -0.00, -1.00, 265.7, 301.0)">:</text><text xml:space="preserve" font-family="Helvetica" font-size="52.0" fill="#2E302E" transform="matrix(1.00, 0.00, -0.00, -1.00, 280.1, 301.0)"> </text><text xml:space="preserve" font-family="Helvetica" font-size="52.0" fill="#009999" transform="matrix(1.00, 0.00, -0.00, -1.00, 294.5, 301.0)">t</text><text xml:space="preserve" font-family="Helvetica" font-size="52.0" fill="#009999" transform="matrix(1.00, 0.00, -0.00, -1.00, 309.0, 301.0)">e</text><text xml:space="preserve" font-family="Helvetica" font-size="52.0" fill="#009999" transform="matrix(1.00, 0.00, -0.00, -1.00, 337.9, 301.0)">l</text><text xml:space="preserve" font-family="Helvetica" font-size="52.0" fill="#009999" transform="matrix(1.00, 0.00, -0.00, -1.00, 349.5, 301.0)">e</text><text xml:space="preserve" font-family="Helvetica" font-size="52.0" fill="#009999" transform="matrix(1.00, 0.00, -0.00, -1.00, 378.4, 301.0)">m</text><text xml:space="preserve" font-family="Helvetica" font-size="52.0" fill="#009999" transform="matrix(1.00, 0.00, -0.00, -1.00, 421.7, 301.0)">e</text><text xml:space="preserve" font-family="Helvetica" font-size="52.0" fill="#009999" transform="matrix(1.00, 0.00, -0.00, -1.00, 450.6, 301.0)">t</text><text xml:space="preserve" font-family="Helvetica" font-size="52.0" fill="#009999" transform="matrix(1.00, 0.00, -0.00, -1.00, 465.1, 301.0)">r</text><text xml:space="preserve" font-family="Helvetica" font-size="52.0" fill="#009999" transform="matrix(1.00, 0.00, -0.00, -1.00, 482.4, 301.0)">y</text><text xml:space="preserve" font-family="Helvetica" font-size="52.0" fill="#009999" transform="matrix(1.00, 0.00, -0.00, -1.00, 504.6, 301.0)">.</text><text xml:space="preserve" font-family="Helvetica" font-size="52.0" fill="#009999" transform="matrix(1.00, 0.00, -0.00, -1.00, 519.0, 301.0)">m</text><text xml:space="preserve" font-family="Helvetica" font-size="52.0" fill="#009999" transform="matrix(1.00, 0.00, -0.00, -1.00, 562.3, 301.0)">o</text><text xml:space="preserve" font-family="Helvetica" font-size="52.0" fill="#009999" transform="matrix(1.00, 0.00, -0.00, -1.00, 591.2, 301.0)">z</text><text xml:space="preserve" font-family="Helvetica" font-size="52.0" fill="#009999" transform="matrix(1.00, 0.00, -0.00, -1.00, 617.2, 301.0)">i</text><text xml:space="preserve" font-family="Helvetica" font-size="52.0" fill="#009999" transform="matrix(1.00, 0.00, -0.00, -1.00, 628.8, 301.0)">l</text><text xml:space="preserve" font-family="Helvetica" font-size="52.0" fill="#009999" transform="matrix(1.00, 0.00, -0.00, -1.00, 640.4, 301.0)">l</text><text xml:space="preserve" font-family="Helvetica" font-size="52.0" fill="#009999" transform="matrix(1.00, 0.00, -0.00, -1.00, 651.9, 301.0)">a</text><text xml:space="preserve" font-family="Helvetica" font-size="52.0" fill="#009999" transform="matrix(1.00, 0.00, -0.00, -1.00, 680.9, 301.0)">.</text><text xml:space="preserve" font-family="Helvetica" font-size="52.0" fill="#009999" transform="matrix(1.00, 0.00, -0.00, -1.00, 695.3, 301.0)">o</text><text xml:space="preserve" font-family="Helvetica" font-size="52.0" fill="#009999" transform="matrix(1.00, 0.00, -0.00, -1.00, 724.2, 301.0)">r</text><text xml:space="preserve" font-family="Helvetica" font-size="52.0" fill="#009999" transform="matrix(1.00, 0.00, -0.00, -1.00, 741.5, 301.0)">g</text><g><clipPath id="clip-1380"><path d="M 293.1 294.6 L 770.0 294.6 L 770.0 299.2 L 293.1 299.2 Z M 293.1 294.6 "></path></clipPath><g clip-path="url(#clip-1380)"><path d="M 198.1 466.6 L 674.0 466.6 " fill="none" stroke="#009999" stroke-width="2.56" stroke-miterlimit="0.00" transform="matrix(1.00, 0.00, 0.00, -1.00, 96.0, 763.5)"></path></g></g><image xlink:href="../../0547E70C-F61B-4676-8BB6-F4857BFF56AD/assets/A9123C539D311F9693B613BDBD5D7A2C.png" width="758.00" height="906.00" transform="matrix(1.00, 0.00, -0.00, -1.00, 1129.8, 923.5)"></image><image xlink:href="../../0547E70C-F61B-4676-8BB6-F4857BFF56AD/assets/58CB05D11E31E7DC8546FD1AD2B12FAC.png" width="490.00" height="373.00" transform="matrix(1.38, 0.00, -0.00, -1.38, 1170.0, 729.0)"></image><text xml:space="preserve" font-family="Helvetica" font-size="12.0" fill="#414141" transform="matrix(1.00, 0.00, -0.00, -1.00, 1807.1, 75.2)">1</text><text xml:space="preserve" font-family="Helvetica" font-size="12.0" fill="#414141" transform="matrix(1.00, 0.00, -0.00, -1.00, 1813.7, 75.2)">8</text></g></svg>