<?xml version="1.0" encoding="UTF-8" standalone="no"?><svg xmlns="http://www.w3.org/2000/svg" xmlns:xlink="http://www.w3.org/1999/xlink" clip-rule="evenodd" stroke-miterlimit="4.00" viewBox="0 0 1920 1080"><desc>SVG generated by Keynote</desc><defs></defs><g transform="matrix(1.00, 0.00, -0.00, -1.00, 0.0, 1080.0)"><g><clipPath id="clip-1413"><path d="M 0.0 1080.0 L 1920.0 1080.0 L 1920.0 0.0 L 0.0 0.0 Z M 0.0 1080.0 "></path></clipPath><g clip-path="url(#clip-1413)"><image xlink:href="../../1A0DE70C-F61B-4676-8BB6-F4857BFF56AD/assets/B0E4B2F49AA342F7FB226A4FA1212BF9.png" width="960.00" height="768.00" transform="matrix(2.00, 0.00, -0.00, -1.41, 0.0, 1080.0)"></image></g></g><image xlink:href="../../1A0DE70C-F61B-4676-8BB6-F4857BFF56AD/assets/FDAADD4F67D3860E728FE9F36FD602FD.png" width="145.00" height="38.00" transform="matrix(1.00, 0.00, -0.00, -1.03, 1725.0, 1080.0)"></image><text xml:space="preserve" font-family="Helvetica" font-size="84.0" fill="#2E302E" transform="matrix(1.00, 0.00, -0.00, -1.00, 605.0, 915.0)">D</text><text xml:space="preserve" font-family="Helvetica" font-size="84.0" fill="#2E302E" transform="matrix(1.00, 0.00, -0.00, -1.00, 665.7, 915.0)">o</text><text xml:space="preserve" font-family="Helvetica" font-size="84.0" fill="#2E302E" transform="matrix(1.00, 0.00, -0.00, -1.00, 712.4, 915.0)">n</text><text xml:space="preserve" font-family="Helvetica" font-size="84.0" fill="#2E302E" transform="matrix(1.00, 0.00, -0.00, -1.00, 759.1, 915.0)">’</text><text xml:space="preserve" font-family="Helvetica" font-size="84.0" fill="#2E302E" transform="matrix(1.00, 0.00, -0.00, -1.00, 777.8, 915.0)">t</text><text xml:space="preserve" font-family="Helvetica" font-size="84.0" fill="#2E302E" transform="matrix(1.00, 0.00, -0.00, -1.00, 801.2, 915.0)"> </text><text xml:space="preserve" font-family="Helvetica" font-size="84.0" fill="#2E302E" transform="matrix(1.00, 0.00, -0.00, -1.00, 824.5, 915.0)">w</text><text xml:space="preserve" font-family="Helvetica" font-size="84.0" fill="#2E302E" transform="matrix(1.00, 0.00, -0.00, -1.00, 885.2, 915.0)">a</text><text xml:space="preserve" font-family="Helvetica" font-size="84.0" fill="#2E302E" transform="matrix(1.00, 0.00, -0.00, -1.00, 931.9, 915.0)">n</text><text xml:space="preserve" font-family="Helvetica" font-size="84.0" fill="#2E302E" transform="matrix(1.00, 0.00, -0.00, -1.00, 978.7, 915.0)">t</text><text xml:space="preserve" font-family="Helvetica" font-size="84.0" fill="#2E302E" transform="matrix(1.00, 0.00, -0.00, -1.00, 1002.0, 915.0)"> </text><text xml:space="preserve" font-family="Helvetica" font-size="84.0" fill="#2E302E" transform="matrix(1.00, 0.00, -0.00, -1.00, 1025.4, 915.0)">t</text><text xml:space="preserve" font-family="Helvetica" font-size="84.0" fill="#2E302E" transform="matrix(1.00, 0.00, -0.00, -1.00, 1048.7, 915.0)">o</text><text xml:space="preserve" font-family="Helvetica" font-size="84.0" fill="#2E302E" transform="matrix(1.00, 0.00, -0.00, -1.00, 1095.5, 915.0)"> </text><text xml:space="preserve" font-family="Helvetica" font-size="84.0" fill="#2E302E" transform="matrix(1.00, 0.00, -0.00, -1.00, 1118.8, 915.0)">w</text><text xml:space="preserve" font-family="Helvetica" font-size="84.0" fill="#2E302E" transform="matrix(1.00, 0.00, -0.00, -1.00, 1179.5, 915.0)">a</text><text xml:space="preserve" font-family="Helvetica" font-size="84.0" fill="#2E302E" transform="matrix(1.00, 0.00, -0.00, -1.00, 1226.2, 915.0)">i</text><text xml:space="preserve" font-family="Helvetica" font-size="84.0" fill="#2E302E" transform="matrix(1.00, 0.00, -0.00, -1.00, 1244.9, 915.0)">t</text><text xml:space="preserve" font-family="Helvetica" font-size="84.0" fill="#2E302E" transform="matrix(1.00, 0.00, -0.00, -1.00, 1268.3, 915.0)">?</text><text xml:space="preserve" font-family="GillSans-Light" font-size="42.1" fill="#414141" transform="matrix(1.00, 0.00, -0.00, -1.00, 99.6, 779.4)">•</text><text xml:space="preserve" font-family="Helvetica" font-size="52.0" fill="#2E302E" transform="matrix(1.00, 0.00, -0.00, -1.00, 124.0, 774.0)">H</text><text xml:space="preserve" font-family="Helvetica" font-size="52.0" fill="#2E302E" transform="matrix(1.00, 0.00, -0.00, -1.00, 161.6, 774.0)">i</text><text xml:space="preserve" font-family="Helvetica" font-size="52.0" fill="#2E302E" transform="matrix(1.00, 0.00, -0.00, -1.00, 173.1, 774.0)">d</text><text xml:space="preserve" font-family="Helvetica" font-size="52.0" fill="#2E302E" transform="matrix(1.00, 0.00, -0.00, -1.00, 202.1, 774.0)">d</text><text xml:space="preserve" font-family="Helvetica" font-size="52.0" fill="#2E302E" transform="matrix(1.00, 0.00, -0.00, -1.00, 231.0, 774.0)">e</text><text xml:space="preserve" font-family="Helvetica" font-size="52.0" fill="#2E302E" transform="matrix(1.00, 0.00, -0.00, -1.00, 259.9, 774.0)">n</text><text xml:space="preserve" font-family="Helvetica" font-size="52.0" fill="#2E302E" transform="matrix(1.00, 0.00, -0.00, -1.00, 288.8, 774.0)"> </text><text xml:space="preserve" font-family="Helvetica" font-size="52.0" fill="#2E302E" transform="matrix(1.00, 0.00, -0.00, -1.00, 303.3, 774.0)">p</text><text xml:space="preserve" font-family="Helvetica" font-size="52.0" fill="#2E302E" transform="matrix(1.00, 0.00, -0.00, -1.00, 332.2, 774.0)">r</text><text xml:space="preserve" font-family="Helvetica" font-size="52.0" fill="#2E302E" transform="matrix(1.00, 0.00, -0.00, -1.00, 349.5, 774.0)">e</text><text xml:space="preserve" font-family="Helvetica" font-size="52.0" fill="#2E302E" transform="matrix(1.00, 0.00, -0.00, -1.00, 378.5, 774.0)">f</text><text xml:space="preserve" font-family="Helvetica" font-size="52.0" fill="#2E302E" transform="matrix(1.00, 0.00, -0.00, -1.00, 392.9, 774.0)">e</text><text xml:space="preserve" font-family="Helvetica" font-size="52.0" fill="#2E302E" transform="matrix(1.00, 0.00, -0.00, -1.00, 421.8, 774.0)">r</text><text xml:space="preserve" font-family="Helvetica" font-size="52.0" fill="#2E302E" transform="matrix(1.00, 0.00, -0.00, -1.00, 439.1, 774.0)">e</text><text xml:space="preserve" font-family="Helvetica" font-size="52.0" fill="#2E302E" transform="matrix(1.00, 0.00, -0.00, -1.00, 468.1, 774.0)">n</text><text xml:space="preserve" font-family="Helvetica" font-size="52.0" fill="#2E302E" transform="matrix(1.00, 0.00, -0.00, -1.00, 497.0, 774.0)">c</text><text xml:space="preserve" font-family="Helvetica" font-size="52.0" fill="#2E302E" transform="matrix(1.00, 0.00, -0.00, -1.00, 523.0, 774.0)">e</text><text xml:space="preserve" font-family="Helvetica" font-size="52.0" fill="#2E302E" transform="matrix(1.00, 0.00, -0.00, -1.00, 551.9, 774.0)"> </text><text xml:space="preserve" font-family="Helvetica" font-size="52.0" fill="#2E302E" transform="matrix(1.00, 0.00, -0.00, -1.00, 566.4, 774.0)">t</text><text xml:space="preserve" font-family="Helvetica" font-size="52.0" fill="#2E302E" transform="matrix(1.00, 0.00, -0.00, -1.00, 580.8, 774.0)">o</text><text xml:space="preserve" font-family="Helvetica" font-size="52.0" fill="#2E302E" transform="matrix(1.00, 0.00, -0.00, -1.00, 609.7, 774.0)"> </text><text xml:space="preserve" font-family="Helvetica" font-size="52.0" fill="#2E302E" transform="matrix(1.00, 0.00, -0.00, -1.00, 624.2, 774.0)">c</text><text xml:space="preserve" font-family="Helvetica" font-size="52.0" fill="#2E302E" transform="matrix(1.00, 0.00, -0.00, -1.00, 650.2, 774.0)">h</text><text xml:space="preserve" font-family="Helvetica" font-size="52.0" fill="#2E302E" transform="matrix(1.00, 0.00, -0.00, -1.00, 679.1, 774.0)">a</text><text xml:space="preserve" font-family="Helvetica" font-size="52.0" fill="#2E302E" transform="matrix(1.00, 0.00, -0.00, -1.00, 708.0, 774.0)">n</text><text xml:space="preserve" font-family="Helvetica" font-size="52.0" fill="#2E302E" transform="matrix(1.00, 0.00, -0.00, -1.00, 737.0, 774.0)">g</text><text xml:space="preserve" font-family="Helvetica" font-size="52.0" fill="#2E302E" transform="matrix(1.00, 0.00, -0.00, -1.00, 765.9, 774.0)">e</text><text xml:space="preserve" font-family="Helvetica" font-size="52.0" fill="#2E302E" transform="matrix(1.00, 0.00, -0.00, -1.00, 794.8, 774.0)"> </text><text xml:space="preserve" font-family="Helvetica" font-size="52.0" fill="#2E302E" transform="matrix(1.00, 0.00, -0.00, -1.00, 809.3, 774.0)">t</text><text xml:space="preserve" font-family="Helvetica" font-size="52.0" fill="#2E302E" transform="matrix(1.00, 0.00, -0.00, -1.00, 823.7, 774.0)">h</text><text xml:space="preserve" font-family="Helvetica" font-size="52.0" fill="#2E302E" transform="matrix(1.00, 0.00, -0.00, -1.00, 852.6, 774.0)">e</text><text xml:space="preserve" font-family="Helvetica" font-size="52.0" fill="#2E302E" transform="matrix(1.00, 0.00, -0.00, -1.00, 881.6, 774.0)"> </text><text xml:space="preserve" font-family="Helvetica" font-size="52.0" fill="#2E302E" transform="matrix(1.00, 0.00, -0.00, -1.00, 896.0, 774.0)">f</text><text xml:space="preserve" font-family="Helvetica" font-size="52.0" fill="#2E302E" transform="matrix(1.00, 0.00, -0.00, -1.00, 910.4, 774.0)">a</text><text xml:space="preserve" font-family="Helvetica" font-size="52.0" fill="#2E302E" transform="matrix(1.00, 0.00, -0.00, -1.00, 939.4, 774.0)">v</text><text xml:space="preserve" font-family="Helvetica" font-size="52.0" fill="#2E302E" transform="matrix(1.00, 0.00, -0.00, -1.00, 965.4, 774.0)">i</text><text xml:space="preserve" font-family="Helvetica" font-size="52.0" fill="#2E302E" transform="matrix(1.00, 0.00, -0.00, -1.00, 976.9, 774.0)">c</text><text xml:space="preserve" font-family="Helvetica" font-size="52.0" fill="#2E302E" transform="matrix(1.00, 0.00, -0.00, -1.00, 1002.9, 774.0)">o</text><text xml:space="preserve" font-family="Helvetica" font-size="52.0" fill="#2E302E" transform="matrix(1.00, 0.00, -0.00, -1.00, 1031.9, 774.0)">n</text><text xml:space="preserve" font-family="Helvetica" font-size="52.0" fill="#2E302E" transform="matrix(1.00, 0.00, -0.00, -1.00, 1060.8, 774.0)"> </text><text xml:space="preserve" font-family="Helvetica" font-size="52.0" fill="#2E302E" transform="matrix(1.00, 0.00, -0.00, -1.00, 1075.2, 774.0)">“</text><text xml:space="preserve" font-family="Helvetica" font-size="52.0" fill="#2E302E" transform="matrix(1.00, 0.00, -0.00, -1.00, 1092.5, 774.0)">c</text><text xml:space="preserve" font-family="Helvetica" font-size="52.0" fill="#2E302E" transform="matrix(1.00, 0.00, -0.00, -1.00, 1118.5, 774.0)">a</text><text xml:space="preserve" font-family="Helvetica" font-size="52.0" fill="#2E302E" transform="matrix(1.00, 0.00, -0.00, -1.00, 1147.5, 774.0)">p</text><text xml:space="preserve" font-family="Helvetica" font-size="52.0" fill="#2E302E" transform="matrix(1.00, 0.00, -0.00, -1.00, 1176.4, 774.0)">”</text><text xml:space="preserve" font-family="Helvetica" font-size="12.0" fill="#414141" transform="matrix(1.00, 0.00, -0.00, -1.00, 1807.1, 75.2)">2</text><text xml:space="preserve" font-family="Helvetica" font-size="12.0" fill="#414141" transform="matrix(1.00, 0.00, -0.00, -1.00, 1813.7, 75.2)">8</text><image xlink:href="../../531CE70C-F61B-4676-8BB6-F4857BFF56AD/assets/8931A24ED04E1C64ABF1F2989CA5219B.png" width="1749.00" height="638.00" transform="matrix(1.00, 0.00, -0.00, -1.00, 85.8, 740.5)"></image><path d="M 129.8 310.2 L 129.8 534.3 C 129.8 566.5 155.9 592.6 188.1 592.6 L 1731.9 592.6 C 1764.1 592.6 1790.2 566.5 1790.2 534.3 L 1790.2 310.2 C 1790.2 278.0 1764.1 251.9 1731.9 251.9 L 188.1 251.9 C 155.9 251.9 129.8 278.0 129.8 310.2 Z M 129.8 310.2 " fill="#373737"></path><path d="M 0.0 282.4 L 0.0 58.3 C 0.0 26.1 26.1 0.0 58.3 0.0 L 1602.1 0.0 C 1634.3 0.0 1660.4 26.1 1660.4 58.3 L 1660.4 282.4 C 1660.4 314.6 1634.3 340.7 1602.1 340.7 L 58.3 340.7 C 26.1 340.7 0.0 314.6 0.0 282.4 Z M 0.0 282.4 " fill="none" stroke="#DCDDDD" stroke-width="8.00" transform="matrix(1.00, 0.00, 0.00, -1.00, 129.8, 592.6)"></path><g><clipPath id="clip-1414"><path d="M 117.4 251.9 L 1802.6 251.9 L 1802.6 592.6 L 117.4 592.6 Z M 117.4 251.9 "></path></clipPath><g clip-path="url(#clip-1414)"><text xml:space="preserve" font-family="Helvetica" font-size="80.0" fill="#FFFFFF" transform="matrix(1.00, 0.00, -0.00, -1.00, 229.0, 392.0)">p</text><text xml:space="preserve" font-family="Helvetica" font-size="80.0" fill="#FFFFFF" transform="matrix(1.00, 0.00, -0.00, -1.00, 273.5, 392.0)">l</text><text xml:space="preserve" font-family="Helvetica" font-size="80.0" fill="#FFFFFF" transform="matrix(1.00, 0.00, -0.00, -1.00, 291.3, 392.0)">a</text><text xml:space="preserve" font-family="Helvetica" font-size="80.0" fill="#FFFFFF" transform="matrix(1.00, 0.00, -0.00, -1.00, 335.8, 392.0)">c</text><text xml:space="preserve" font-family="Helvetica" font-size="80.0" fill="#FFFFFF" transform="matrix(1.00, 0.00, -0.00, -1.00, 375.8, 392.0)">e</text><text xml:space="preserve" font-family="Helvetica" font-size="80.0" fill="#FFFFFF" transform="matrix(1.00, 0.00, -0.00, -1.00, 420.3, 392.0)">s</text><text xml:space="preserve" font-family="Helvetica" font-size="80.0" fill="#FFFFFF" transform="matrix(1.00, 0.00, -0.00, -1.00, 460.3, 392.0)">.</text><text xml:space="preserve" font-family="Helvetica" font-size="80.0" fill="#FFFFFF" transform="matrix(1.00, 0.00, -0.00, -1.00, 482.5, 392.0)">f</text><text xml:space="preserve" font-family="Helvetica" font-size="80.0" fill="#FFFFFF" transform="matrix(1.00, 0.00, -0.00, -1.00, 504.7, 392.0)">a</text><text xml:space="preserve" font-family="Helvetica" font-size="80.0" fill="#FFFFFF" transform="matrix(1.00, 0.00, -0.00, -1.00, 549.2, 392.0)">v</text><text xml:space="preserve" font-family="Helvetica" font-size="80.0" fill="#FFFFFF" transform="matrix(1.00, 0.00, -0.00, -1.00, 589.2, 392.0)">i</text><text xml:space="preserve" font-family="Helvetica" font-size="80.0" fill="#FFFFFF" transform="matrix(1.00, 0.00, -0.00, -1.00, 607.0, 392.0)">c</text><text xml:space="preserve" font-family="Helvetica" font-size="80.0" fill="#FFFFFF" transform="matrix(1.00, 0.00, -0.00, -1.00, 647.0, 392.0)">o</text><text xml:space="preserve" font-family="Helvetica" font-size="80.0" fill="#FFFFFF" transform="matrix(1.00, 0.00, -0.00, -1.00, 691.5, 392.0)">n</text><text xml:space="preserve" font-family="Helvetica" font-size="80.0" fill="#FFFFFF" transform="matrix(1.00, 0.00, -0.00, -1.00, 736.0, 392.0)">s</text><text xml:space="preserve" font-family="Helvetica" font-size="80.0" fill="#FFFFFF" transform="matrix(1.00, 0.00, -0.00, -1.00, 776.0, 392.0)">.</text><text xml:space="preserve" font-family="Helvetica" font-size="80.0" fill="#FFFFFF" transform="matrix(1.00, 0.00, -0.00, -1.00, 798.3, 392.0)">o</text><text xml:space="preserve" font-family="Helvetica" font-size="80.0" fill="#FFFFFF" transform="matrix(1.00, 0.00, -0.00, -1.00, 842.8, 392.0)">p</text><text xml:space="preserve" font-family="Helvetica" font-size="80.0" fill="#FFFFFF" transform="matrix(1.00, 0.00, -0.00, -1.00, 887.3, 392.0)">t</text><text xml:space="preserve" font-family="Helvetica" font-size="80.0" fill="#FFFFFF" transform="matrix(1.00, 0.00, -0.00, -1.00, 909.5, 392.0)">i</text><text xml:space="preserve" font-family="Helvetica" font-size="80.0" fill="#FFFFFF" transform="matrix(1.00, 0.00, -0.00, -1.00, 927.3, 392.0)">m</text><text xml:space="preserve" font-family="Helvetica" font-size="80.0" fill="#FFFFFF" transform="matrix(1.00, 0.00, -0.00, -1.00, 993.9, 392.0)">i</text><text xml:space="preserve" font-family="Helvetica" font-size="80.0" fill="#FFFFFF" transform="matrix(1.00, 0.00, -0.00, -1.00, 1011.7, 392.0)">z</text><text xml:space="preserve" font-family="Helvetica" font-size="80.0" fill="#FFFFFF" transform="matrix(1.00, 0.00, -0.00, -1.00, 1051.7, 392.0)">e</text><text xml:space="preserve" font-family="Helvetica" font-size="80.0" fill="#FFFFFF" transform="matrix(1.00, 0.00, -0.00, -1.00, 1096.2, 392.0)">T</text><text xml:space="preserve" font-family="Helvetica" font-size="80.0" fill="#FFFFFF" transform="matrix(1.00, 0.00, -0.00, -1.00, 1136.2, 392.0)">o</text><text xml:space="preserve" font-family="Helvetica" font-size="80.0" fill="#FFFFFF" transform="matrix(1.00, 0.00, -0.00, -1.00, 1180.7, 392.0)">D</text><text xml:space="preserve" font-family="Helvetica" font-size="80.0" fill="#FFFFFF" transform="matrix(1.00, 0.00, -0.00, -1.00, 1238.5, 392.0)">i</text><text xml:space="preserve" font-family="Helvetica" font-size="80.0" fill="#FFFFFF" transform="matrix(1.00, 0.00, -0.00, -1.00, 1256.3, 392.0)">m</text><text xml:space="preserve" font-family="Helvetica" font-size="80.0" fill="#FFFFFF" transform="matrix(1.00, 0.00, -0.00, -1.00, 1322.9, 392.0)">e</text><text xml:space="preserve" font-family="Helvetica" font-size="80.0" fill="#FFFFFF" transform="matrix(1.00, 0.00, -0.00, -1.00, 1367.4, 392.0)">n</text><text xml:space="preserve" font-family="Helvetica" font-size="80.0" fill="#FFFFFF" transform="matrix(1.00, 0.00, -0.00, -1.00, 1411.9, 392.0)">s</text><text xml:space="preserve" font-family="Helvetica" font-size="80.0" fill="#FFFFFF" transform="matrix(1.00, 0.00, -0.00, -1.00, 1451.9, 392.0)">i</text><text xml:space="preserve" font-family="Helvetica" font-size="80.0" fill="#FFFFFF" transform="matrix(1.00, 0.00, -0.00, -1.00, 1469.7, 392.0)">o</text><text xml:space="preserve" font-family="Helvetica" font-size="80.0" fill="#FFFFFF" transform="matrix(1.00, 0.00, -0.00, -1.00, 1514.2, 392.0)">n</text><text xml:space="preserve" font-family="Helvetica" font-size="80.0" fill="#FFFFFF" transform="matrix(1.00, 0.00, -0.00, -1.00, 1558.8, 392.0)">:</text><text xml:space="preserve" font-family="Helvetica" font-size="80.0" fill="#FFFFFF" transform="matrix(1.00, 0.00, -0.00, -1.00, 1581.0, 392.0)"> </text><text xml:space="preserve" font-family="Helvetica-Bold" font-weight="bold" font-size="80.0" fill="#FFFFFF" transform="matrix(1.00, 0.00, -0.00, -1.00, 1602.9, 392.0)">3</text><text xml:space="preserve" font-family="Helvetica-Bold" font-weight="bold" font-size="80.0" fill="#FFFFFF" transform="matrix(1.00, 0.00, -0.00, -1.00, 1647.5, 392.0)">2</text></g></g></g></svg>